<mxfile host="www.draw.io" modified="2019-12-11T08:07:55.377Z" agent="Mozilla/5.0 (Windows NT 10.0; Win64; x64) AppleWebKit/537.36 (KHTML, like Gecko) Chrome/78.0.3904.108 Safari/537.36" etag="NrwyFbn5ieRiD7AvtHjX" version="12.3.9" type="github" pages="1">
  <diagram id="B0hJfeLe22wjqrb1PiUp" name="Page-1">
    <mxGraphModel dx="4137" dy="2133" grid="1" gridSize="10" guides="1" tooltips="1" connect="1" arrows="1" fold="1" page="1" pageScale="1" pageWidth="827" pageHeight="1169" math="1" shadow="0">
      <root>
        <mxCell id="0"/>
        <mxCell id="1" parent="0"/>
        <mxCell id="Fq0w3CTVrM-0X5Oc_iIw-1" value="" style="shape=image;verticalLabelPosition=bottom;labelBackgroundColor=#ffffff;verticalAlign=top;aspect=fixed;imageAspect=0;image=data:image/svg+xml,PHN2ZyB4bWxucz0iaHR0cDovL3d3dy53My5vcmcvMjAwMC9zdmciIHdpZHRoPSIxOTIwIiBoZWlnaHQ9IjEwNTciIHN0eWxlPSJjdXJzb3I6IG1vdmU7IiB2aWV3Qm94PSIwIDAgMTkyMCAxMDU3Ij48ZyB0cmFuc2Zvcm09InRyYW5zbGF0ZSgyNzkuOTM1Mjg4OTYxMTkwNiwzNS42NjE4MDc5NDQxOTg0Nykgc2NhbGUoMC43OTM3MDA2Mzc5MTI2NzI5KSI+PHBhdGggY2xhc3M9ImxpbmsiIG1hcmtlci1lbmQ9IiIgZD0iTTcxNi42NjY2NjY2NjY2NjY2LDE0OC41LCA4ODEuNjY2NjY2NjY2NjY2NiwzODIuNSIgc3R5bGU9InN0cm9rZS13aWR0aDogMC4zMTsgc3Ryb2tlLW9wYWNpdHk6IDE7IHN0cm9rZTogcmdiKDgwLCA4MCwgODApOyBvcGFjaXR5OiAxOyIvPjxwYXRoIGNsYXNzPSJsaW5rIiBtYXJrZXItZW5kPSIiIGQ9Ik03MTYuNjY2NjY2NjY2NjY2NiwxNDguNSwgODgxLjY2NjY2NjY2NjY2NjYsNDIxLjUiIHN0eWxlPSJzdHJva2Utd2lkdGg6IDAuMzE7IHN0cm9rZS1vcGFjaXR5OiAxOyBzdHJva2U6IHJnYig4MCwgODAsIDgwKTsgb3BhY2l0eTogMTsiLz48cGF0aCBjbGFzcz0ibGluayIgbWFya2VyLWVuZD0iIiBkPSJNNzE2LjY2NjY2NjY2NjY2NjYsMTQ4LjUsIDg4MS42NjY2NjY2NjY2NjY2LDQ2MC41IiBzdHlsZT0ic3Ryb2tlLXdpZHRoOiAwLjMxOyBzdHJva2Utb3BhY2l0eTogMTsgc3Ryb2tlOiByZ2IoODAsIDgwLCA4MCk7IG9wYWNpdHk6IDE7Ii8+PHBhdGggY2xhc3M9ImxpbmsiIG1hcmtlci1lbmQ9IiIgZD0iTTcxNi42NjY2NjY2NjY2NjY2LDE0OC41LCA4ODEuNjY2NjY2NjY2NjY2Niw0OTkuNSIgc3R5bGU9InN0cm9rZS13aWR0aDogMC4zMTsgc3Ryb2tlLW9wYWNpdHk6IDE7IHN0cm9rZTogcmdiKDgwLCA4MCwgODApOyBvcGFjaXR5OiAxOyIvPjxwYXRoIGNsYXNzPSJsaW5rIiBtYXJrZXItZW5kPSIiIGQ9Ik03MTYuNjY2NjY2NjY2NjY2NiwxNDguNSwgODgxLjY2NjY2NjY2NjY2NjYsNTM4LjUiIHN0eWxlPSJzdHJva2Utd2lkdGg6IDAuMzE7IHN0cm9rZS1vcGFjaXR5OiAxOyBzdHJva2U6IHJnYig4MCwgODAsIDgwKTsgb3BhY2l0eTogMTsiLz48cGF0aCBjbGFzcz0ibGluayIgbWFya2VyLWVuZD0iIiBkPSJNNzE2LjY2NjY2NjY2NjY2NjYsMTQ4LjUsIDg4MS42NjY2NjY2NjY2NjY2LDU3Ny41IiBzdHlsZT0ic3Ryb2tlLXdpZHRoOiAwLjMxOyBzdHJva2Utb3BhY2l0eTogMTsgc3Ryb2tlOiByZ2IoODAsIDgwLCA4MCk7IG9wYWNpdHk6IDE7Ii8+PHBhdGggY2xhc3M9ImxpbmsiIG1hcmtlci1lbmQ9IiIgZD0iTTcxNi42NjY2NjY2NjY2NjY2LDE0OC41LCA4ODEuNjY2NjY2NjY2NjY2Niw2MTYuNSIgc3R5bGU9InN0cm9rZS13aWR0aDogMC4zMTsgc3Ryb2tlLW9wYWNpdHk6IDE7IHN0cm9rZTogcmdiKDgwLCA4MCwgODApOyBvcGFjaXR5OiAxOyIvPjxwYXRoIGNsYXNzPSJsaW5rIiBtYXJrZXItZW5kPSIiIGQ9Ik03MTYuNjY2NjY2NjY2NjY2NiwxNDguNSwgODgxLjY2NjY2NjY2NjY2NjYsNjU1LjUiIHN0eWxlPSJzdHJva2Utd2lkdGg6IDAuMzE7IHN0cm9rZS1vcGFjaXR5OiAxOyBzdHJva2U6IHJnYig4MCwgODAsIDgwKTsgb3BhY2l0eTogMTsiLz48cGF0aCBjbGFzcz0ibGluayIgbWFya2VyLWVuZD0iIiBkPSJNNzE2LjY2NjY2NjY2NjY2NjYsMTQ4LjUsIDg4MS42NjY2NjY2NjY2NjY2LDY5NC41IiBzdHlsZT0ic3Ryb2tlLXdpZHRoOiAwLjMxOyBzdHJva2Utb3BhY2l0eTogMTsgc3Ryb2tlOiByZ2IoODAsIDgwLCA4MCk7IG9wYWNpdHk6IDE7Ii8+PHBhdGggY2xhc3M9ImxpbmsiIG1hcmtlci1lbmQ9IiIgZD0iTTcxNi42NjY2NjY2NjY2NjY2LDE4Ny41LCA4ODEuNjY2NjY2NjY2NjY2NiwzODIuNSIgc3R5bGU9InN0cm9rZS13aWR0aDogMC4zMTsgc3Ryb2tlLW9wYWNpdHk6IDE7IHN0cm9rZTogcmdiKDgwLCA4MCwgODApOyBvcGFjaXR5OiAxOyIvPjxwYXRoIGNsYXNzPSJsaW5rIiBtYXJrZXItZW5kPSIiIGQ9Ik03MTYuNjY2NjY2NjY2NjY2NiwxODcuNSwgODgxLjY2NjY2NjY2NjY2NjYsNDIxLjUiIHN0eWxlPSJzdHJva2Utd2lkdGg6IDAuMzE7IHN0cm9rZS1vcGFjaXR5OiAxOyBzdHJva2U6IHJnYig4MCwgODAsIDgwKTsgb3BhY2l0eTogMTsiLz48cGF0aCBjbGFzcz0ibGluayIgbWFya2VyLWVuZD0iIiBkPSJNNzE2LjY2NjY2NjY2NjY2NjYsMTg3LjUsIDg4MS42NjY2NjY2NjY2NjY2LDQ2MC41IiBzdHlsZT0ic3Ryb2tlLXdpZHRoOiAwLjMxOyBzdHJva2Utb3BhY2l0eTogMTsgc3Ryb2tlOiByZ2IoODAsIDgwLCA4MCk7IG9wYWNpdHk6IDE7Ii8+PHBhdGggY2xhc3M9ImxpbmsiIG1hcmtlci1lbmQ9IiIgZD0iTTcxNi42NjY2NjY2NjY2NjY2LDE4Ny41LCA4ODEuNjY2NjY2NjY2NjY2Niw0OTkuNSIgc3R5bGU9InN0cm9rZS13aWR0aDogMC4zMTsgc3Ryb2tlLW9wYWNpdHk6IDE7IHN0cm9rZTogcmdiKDgwLCA4MCwgODApOyBvcGFjaXR5OiAxOyIvPjxwYXRoIGNsYXNzPSJsaW5rIiBtYXJrZXItZW5kPSIiIGQ9Ik03MTYuNjY2NjY2NjY2NjY2NiwxODcuNSwgODgxLjY2NjY2NjY2NjY2NjYsNTM4LjUiIHN0eWxlPSJzdHJva2Utd2lkdGg6IDAuMzE7IHN0cm9rZS1vcGFjaXR5OiAxOyBzdHJva2U6IHJnYig4MCwgODAsIDgwKTsgb3BhY2l0eTogMTsiLz48cGF0aCBjbGFzcz0ibGluayIgbWFya2VyLWVuZD0iIiBkPSJNNzE2LjY2NjY2NjY2NjY2NjYsMTg3LjUsIDg4MS42NjY2NjY2NjY2NjY2LDU3Ny41IiBzdHlsZT0ic3Ryb2tlLXdpZHRoOiAwLjMxOyBzdHJva2Utb3BhY2l0eTogMTsgc3Ryb2tlOiByZ2IoODAsIDgwLCA4MCk7IG9wYWNpdHk6IDE7Ii8+PHBhdGggY2xhc3M9ImxpbmsiIG1hcmtlci1lbmQ9IiIgZD0iTTcxNi42NjY2NjY2NjY2NjY2LDE4Ny41LCA4ODEuNjY2NjY2NjY2NjY2Niw2MTYuNSIgc3R5bGU9InN0cm9rZS13aWR0aDogMC4zMTsgc3Ryb2tlLW9wYWNpdHk6IDE7IHN0cm9rZTogcmdiKDgwLCA4MCwgODApOyBvcGFjaXR5OiAxOyIvPjxwYXRoIGNsYXNzPSJsaW5rIiBtYXJrZXItZW5kPSIiIGQ9Ik03MTYuNjY2NjY2NjY2NjY2NiwxODcuNSwgODgxLjY2NjY2NjY2NjY2NjYsNjU1LjUiIHN0eWxlPSJzdHJva2Utd2lkdGg6IDAuMzE7IHN0cm9rZS1vcGFjaXR5OiAxOyBzdHJva2U6IHJnYig4MCwgODAsIDgwKTsgb3BhY2l0eTogMTsiLz48cGF0aCBjbGFzcz0ibGluayIgbWFya2VyLWVuZD0iIiBkPSJNNzE2LjY2NjY2NjY2NjY2NjYsMTg3LjUsIDg4MS42NjY2NjY2NjY2NjY2LDY5NC41IiBzdHlsZT0ic3Ryb2tlLXdpZHRoOiAwLjMxOyBzdHJva2Utb3BhY2l0eTogMTsgc3Ryb2tlOiByZ2IoODAsIDgwLCA4MCk7IG9wYWNpdHk6IDE7Ii8+PHBhdGggY2xhc3M9ImxpbmsiIG1hcmtlci1lbmQ9IiIgZD0iTTcxNi42NjY2NjY2NjY2NjY2LDIyNi41LCA4ODEuNjY2NjY2NjY2NjY2NiwzODIuNSIgc3R5bGU9InN0cm9rZS13aWR0aDogMC4zMTsgc3Ryb2tlLW9wYWNpdHk6IDE7IHN0cm9rZTogcmdiKDgwLCA4MCwgODApOyBvcGFjaXR5OiAxOyIvPjxwYXRoIGNsYXNzPSJsaW5rIiBtYXJrZXItZW5kPSIiIGQ9Ik03MTYuNjY2NjY2NjY2NjY2NiwyMjYuNSwgODgxLjY2NjY2NjY2NjY2NjYsNDIxLjUiIHN0eWxlPSJzdHJva2Utd2lkdGg6IDAuMzE7IHN0cm9rZS1vcGFjaXR5OiAxOyBzdHJva2U6IHJnYig4MCwgODAsIDgwKTsgb3BhY2l0eTogMTsiLz48cGF0aCBjbGFzcz0ibGluayIgbWFya2VyLWVuZD0iIiBkPSJNNzE2LjY2NjY2NjY2NjY2NjYsMjI2LjUsIDg4MS42NjY2NjY2NjY2NjY2LDQ2MC41IiBzdHlsZT0ic3Ryb2tlLXdpZHRoOiAwLjMxOyBzdHJva2Utb3BhY2l0eTogMTsgc3Ryb2tlOiByZ2IoODAsIDgwLCA4MCk7IG9wYWNpdHk6IDE7Ii8+PHBhdGggY2xhc3M9ImxpbmsiIG1hcmtlci1lbmQ9IiIgZD0iTTcxNi42NjY2NjY2NjY2NjY2LDIyNi41LCA4ODEuNjY2NjY2NjY2NjY2Niw0OTkuNSIgc3R5bGU9InN0cm9rZS13aWR0aDogMC4zMTsgc3Ryb2tlLW9wYWNpdHk6IDE7IHN0cm9rZTogcmdiKDgwLCA4MCwgODApOyBvcGFjaXR5OiAxOyIvPjxwYXRoIGNsYXNzPSJsaW5rIiBtYXJrZXItZW5kPSIiIGQ9Ik03MTYuNjY2NjY2NjY2NjY2NiwyMjYuNSwgODgxLjY2NjY2NjY2NjY2NjYsNTM4LjUiIHN0eWxlPSJzdHJva2Utd2lkdGg6IDAuMzE7IHN0cm9rZS1vcGFjaXR5OiAxOyBzdHJva2U6IHJnYig4MCwgODAsIDgwKTsgb3BhY2l0eTogMTsiLz48cGF0aCBjbGFzcz0ibGluayIgbWFya2VyLWVuZD0iIiBkPSJNNzE2LjY2NjY2NjY2NjY2NjYsMjI2LjUsIDg4MS42NjY2NjY2NjY2NjY2LDU3Ny41IiBzdHlsZT0ic3Ryb2tlLXdpZHRoOiAwLjMxOyBzdHJva2Utb3BhY2l0eTogMTsgc3Ryb2tlOiByZ2IoODAsIDgwLCA4MCk7IG9wYWNpdHk6IDE7Ii8+PHBhdGggY2xhc3M9ImxpbmsiIG1hcmtlci1lbmQ9IiIgZD0iTTcxNi42NjY2NjY2NjY2NjY2LDIyNi41LCA4ODEuNjY2NjY2NjY2NjY2Niw2MTYuNSIgc3R5bGU9InN0cm9rZS13aWR0aDogMC4zMTsgc3Ryb2tlLW9wYWNpdHk6IDE7IHN0cm9rZTogcmdiKDgwLCA4MCwgODApOyBvcGFjaXR5OiAxOyIvPjxwYXRoIGNsYXNzPSJsaW5rIiBtYXJrZXItZW5kPSIiIGQ9Ik03MTYuNjY2NjY2NjY2NjY2NiwyMjYuNSwgODgxLjY2NjY2NjY2NjY2NjYsNjU1LjUiIHN0eWxlPSJzdHJva2Utd2lkdGg6IDAuMzE7IHN0cm9rZS1vcGFjaXR5OiAxOyBzdHJva2U6IHJnYig4MCwgODAsIDgwKTsgb3BhY2l0eTogMTsiLz48cGF0aCBjbGFzcz0ibGluayIgbWFya2VyLWVuZD0iIiBkPSJNNzE2LjY2NjY2NjY2NjY2NjYsMjI2LjUsIDg4MS42NjY2NjY2NjY2NjY2LDY5NC41IiBzdHlsZT0ic3Ryb2tlLXdpZHRoOiAwLjMxOyBzdHJva2Utb3BhY2l0eTogMTsgc3Ryb2tlOiByZ2IoODAsIDgwLCA4MCk7IG9wYWNpdHk6IDE7Ii8+PHBhdGggY2xhc3M9ImxpbmsiIG1hcmtlci1lbmQ9IiIgZD0iTTcxNi42NjY2NjY2NjY2NjY2LDI2NS41LCA4ODEuNjY2NjY2NjY2NjY2NiwzODIuNSIgc3R5bGU9InN0cm9rZS13aWR0aDogMC4zMTsgc3Ryb2tlLW9wYWNpdHk6IDE7IHN0cm9rZTogcmdiKDgwLCA4MCwgODApOyBvcGFjaXR5OiAxOyIvPjxwYXRoIGNsYXNzPSJsaW5rIiBtYXJrZXItZW5kPSIiIGQ9Ik03MTYuNjY2NjY2NjY2NjY2NiwyNjUuNSwgODgxLjY2NjY2NjY2NjY2NjYsNDIxLjUiIHN0eWxlPSJzdHJva2Utd2lkdGg6IDAuMzE7IHN0cm9rZS1vcGFjaXR5OiAxOyBzdHJva2U6IHJnYig4MCwgODAsIDgwKTsgb3BhY2l0eTogMTsiLz48cGF0aCBjbGFzcz0ibGluayIgbWFya2VyLWVuZD0iIiBkPSJNNzE2LjY2NjY2NjY2NjY2NjYsMjY1LjUsIDg4MS42NjY2NjY2NjY2NjY2LDQ2MC41IiBzdHlsZT0ic3Ryb2tlLXdpZHRoOiAwLjMxOyBzdHJva2Utb3BhY2l0eTogMTsgc3Ryb2tlOiByZ2IoODAsIDgwLCA4MCk7IG9wYWNpdHk6IDE7Ii8+PHBhdGggY2xhc3M9ImxpbmsiIG1hcmtlci1lbmQ9IiIgZD0iTTcxNi42NjY2NjY2NjY2NjY2LDI2NS41LCA4ODEuNjY2NjY2NjY2NjY2Niw0OTkuNSIgc3R5bGU9InN0cm9rZS13aWR0aDogMC4zMTsgc3Ryb2tlLW9wYWNpdHk6IDE7IHN0cm9rZTogcmdiKDgwLCA4MCwgODApOyBvcGFjaXR5OiAxOyIvPjxwYXRoIGNsYXNzPSJsaW5rIiBtYXJrZXItZW5kPSIiIGQ9Ik03MTYuNjY2NjY2NjY2NjY2NiwyNjUuNSwgODgxLjY2NjY2NjY2NjY2NjYsNTM4LjUiIHN0eWxlPSJzdHJva2Utd2lkdGg6IDAuMzE7IHN0cm9rZS1vcGFjaXR5OiAxOyBzdHJva2U6IHJnYig4MCwgODAsIDgwKTsgb3BhY2l0eTogMTsiLz48cGF0aCBjbGFzcz0ibGluayIgbWFya2VyLWVuZD0iIiBkPSJNNzE2LjY2NjY2NjY2NjY2NjYsMjY1LjUsIDg4MS42NjY2NjY2NjY2NjY2LDU3Ny41IiBzdHlsZT0ic3Ryb2tlLXdpZHRoOiAwLjMxOyBzdHJva2Utb3BhY2l0eTogMTsgc3Ryb2tlOiByZ2IoODAsIDgwLCA4MCk7IG9wYWNpdHk6IDE7Ii8+PHBhdGggY2xhc3M9ImxpbmsiIG1hcmtlci1lbmQ9IiIgZD0iTTcxNi42NjY2NjY2NjY2NjY2LDI2NS41LCA4ODEuNjY2NjY2NjY2NjY2Niw2MTYuNSIgc3R5bGU9InN0cm9rZS13aWR0aDogMC4zMTsgc3Ryb2tlLW9wYWNpdHk6IDE7IHN0cm9rZTogcmdiKDgwLCA4MCwgODApOyBvcGFjaXR5OiAxOyIvPjxwYXRoIGNsYXNzPSJsaW5rIiBtYXJrZXItZW5kPSIiIGQ9Ik03MTYuNjY2NjY2NjY2NjY2NiwyNjUuNSwgODgxLjY2NjY2NjY2NjY2NjYsNjU1LjUiIHN0eWxlPSJzdHJva2Utd2lkdGg6IDAuMzE7IHN0cm9rZS1vcGFjaXR5OiAxOyBzdHJva2U6IHJnYig4MCwgODAsIDgwKTsgb3BhY2l0eTogMTsiLz48cGF0aCBjbGFzcz0ibGluayIgbWFya2VyLWVuZD0iIiBkPSJNNzE2LjY2NjY2NjY2NjY2NjYsMjY1LjUsIDg4MS42NjY2NjY2NjY2NjY2LDY5NC41IiBzdHlsZT0ic3Ryb2tlLXdpZHRoOiAwLjMxOyBzdHJva2Utb3BhY2l0eTogMTsgc3Ryb2tlOiByZ2IoODAsIDgwLCA4MCk7IG9wYWNpdHk6IDE7Ii8+PHBhdGggY2xhc3M9ImxpbmsiIG1hcmtlci1lbmQ9IiIgZD0iTTcxNi42NjY2NjY2NjY2NjY2LDMwNC41LCA4ODEuNjY2NjY2NjY2NjY2NiwzODIuNSIgc3R5bGU9InN0cm9rZS13aWR0aDogMC4zMTsgc3Ryb2tlLW9wYWNpdHk6IDE7IHN0cm9rZTogcmdiKDgwLCA4MCwgODApOyBvcGFjaXR5OiAxOyIvPjxwYXRoIGNsYXNzPSJsaW5rIiBtYXJrZXItZW5kPSIiIGQ9Ik03MTYuNjY2NjY2NjY2NjY2NiwzMDQuNSwgODgxLjY2NjY2NjY2NjY2NjYsNDIxLjUiIHN0eWxlPSJzdHJva2Utd2lkdGg6IDAuMzE7IHN0cm9rZS1vcGFjaXR5OiAxOyBzdHJva2U6IHJnYig4MCwgODAsIDgwKTsgb3BhY2l0eTogMTsiLz48cGF0aCBjbGFzcz0ibGluayIgbWFya2VyLWVuZD0iIiBkPSJNNzE2LjY2NjY2NjY2NjY2NjYsMzA0LjUsIDg4MS42NjY2NjY2NjY2NjY2LDQ2MC41IiBzdHlsZT0ic3Ryb2tlLXdpZHRoOiAwLjMxOyBzdHJva2Utb3BhY2l0eTogMTsgc3Ryb2tlOiByZ2IoODAsIDgwLCA4MCk7IG9wYWNpdHk6IDE7Ii8+PHBhdGggY2xhc3M9ImxpbmsiIG1hcmtlci1lbmQ9IiIgZD0iTTcxNi42NjY2NjY2NjY2NjY2LDMwNC41LCA4ODEuNjY2NjY2NjY2NjY2Niw0OTkuNSIgc3R5bGU9InN0cm9rZS13aWR0aDogMC4zMTsgc3Ryb2tlLW9wYWNpdHk6IDE7IHN0cm9rZTogcmdiKDgwLCA4MCwgODApOyBvcGFjaXR5OiAxOyIvPjxwYXRoIGNsYXNzPSJsaW5rIiBtYXJrZXItZW5kPSIiIGQ9Ik03MTYuNjY2NjY2NjY2NjY2NiwzMDQuNSwgODgxLjY2NjY2NjY2NjY2NjYsNTM4LjUiIHN0eWxlPSJzdHJva2Utd2lkdGg6IDAuMzE7IHN0cm9rZS1vcGFjaXR5OiAxOyBzdHJva2U6IHJnYig4MCwgODAsIDgwKTsgb3BhY2l0eTogMTsiLz48cGF0aCBjbGFzcz0ibGluayIgbWFya2VyLWVuZD0iIiBkPSJNNzE2LjY2NjY2NjY2NjY2NjYsMzA0LjUsIDg4MS42NjY2NjY2NjY2NjY2LDU3Ny41IiBzdHlsZT0ic3Ryb2tlLXdpZHRoOiAwLjMxOyBzdHJva2Utb3BhY2l0eTogMTsgc3Ryb2tlOiByZ2IoODAsIDgwLCA4MCk7IG9wYWNpdHk6IDE7Ii8+PHBhdGggY2xhc3M9ImxpbmsiIG1hcmtlci1lbmQ9IiIgZD0iTTcxNi42NjY2NjY2NjY2NjY2LDMwNC41LCA4ODEuNjY2NjY2NjY2NjY2Niw2MTYuNSIgc3R5bGU9InN0cm9rZS13aWR0aDogMC4zMTsgc3Ryb2tlLW9wYWNpdHk6IDE7IHN0cm9rZTogcmdiKDgwLCA4MCwgODApOyBvcGFjaXR5OiAxOyIvPjxwYXRoIGNsYXNzPSJsaW5rIiBtYXJrZXItZW5kPSIiIGQ9Ik03MTYuNjY2NjY2NjY2NjY2NiwzMDQuNSwgODgxLjY2NjY2NjY2NjY2NjYsNjU1LjUiIHN0eWxlPSJzdHJva2Utd2lkdGg6IDAuMzE7IHN0cm9rZS1vcGFjaXR5OiAxOyBzdHJva2U6IHJnYig4MCwgODAsIDgwKTsgb3BhY2l0eTogMTsiLz48cGF0aCBjbGFzcz0ibGluayIgbWFya2VyLWVuZD0iIiBkPSJNNzE2LjY2NjY2NjY2NjY2NjYsMzA0LjUsIDg4MS42NjY2NjY2NjY2NjY2LDY5NC41IiBzdHlsZT0ic3Ryb2tlLXdpZHRoOiAwLjMxOyBzdHJva2Utb3BhY2l0eTogMTsgc3Ryb2tlOiByZ2IoODAsIDgwLCA4MCk7IG9wYWNpdHk6IDE7Ii8+PHBhdGggY2xhc3M9ImxpbmsiIG1hcmtlci1lbmQ9IiIgZD0iTTcxNi42NjY2NjY2NjY2NjY2LDM0My41LCA4ODEuNjY2NjY2NjY2NjY2NiwzODIuNSIgc3R5bGU9InN0cm9rZS13aWR0aDogMC4zMTsgc3Ryb2tlLW9wYWNpdHk6IDE7IHN0cm9rZTogcmdiKDgwLCA4MCwgODApOyBvcGFjaXR5OiAxOyIvPjxwYXRoIGNsYXNzPSJsaW5rIiBtYXJrZXItZW5kPSIiIGQ9Ik03MTYuNjY2NjY2NjY2NjY2NiwzNDMuNSwgODgxLjY2NjY2NjY2NjY2NjYsNDIxLjUiIHN0eWxlPSJzdHJva2Utd2lkdGg6IDAuMzE7IHN0cm9rZS1vcGFjaXR5OiAxOyBzdHJva2U6IHJnYig4MCwgODAsIDgwKTsgb3BhY2l0eTogMTsiLz48cGF0aCBjbGFzcz0ibGluayIgbWFya2VyLWVuZD0iIiBkPSJNNzE2LjY2NjY2NjY2NjY2NjYsMzQzLjUsIDg4MS42NjY2NjY2NjY2NjY2LDQ2MC41IiBzdHlsZT0ic3Ryb2tlLXdpZHRoOiAwLjMxOyBzdHJva2Utb3BhY2l0eTogMTsgc3Ryb2tlOiByZ2IoODAsIDgwLCA4MCk7IG9wYWNpdHk6IDE7Ii8+PHBhdGggY2xhc3M9ImxpbmsiIG1hcmtlci1lbmQ9IiIgZD0iTTcxNi42NjY2NjY2NjY2NjY2LDM0My41LCA4ODEuNjY2NjY2NjY2NjY2Niw0OTkuNSIgc3R5bGU9InN0cm9rZS13aWR0aDogMC4zMTsgc3Ryb2tlLW9wYWNpdHk6IDE7IHN0cm9rZTogcmdiKDgwLCA4MCwgODApOyBvcGFjaXR5OiAxOyIvPjxwYXRoIGNsYXNzPSJsaW5rIiBtYXJrZXItZW5kPSIiIGQ9Ik03MTYuNjY2NjY2NjY2NjY2NiwzNDMuNSwgODgxLjY2NjY2NjY2NjY2NjYsNTM4LjUiIHN0eWxlPSJzdHJva2Utd2lkdGg6IDAuMzE7IHN0cm9rZS1vcGFjaXR5OiAxOyBzdHJva2U6IHJnYig4MCwgODAsIDgwKTsgb3BhY2l0eTogMTsiLz48cGF0aCBjbGFzcz0ibGluayIgbWFya2VyLWVuZD0iIiBkPSJNNzE2LjY2NjY2NjY2NjY2NjYsMzQzLjUsIDg4MS42NjY2NjY2NjY2NjY2LDU3Ny41IiBzdHlsZT0ic3Ryb2tlLXdpZHRoOiAwLjMxOyBzdHJva2Utb3BhY2l0eTogMTsgc3Ryb2tlOiByZ2IoODAsIDgwLCA4MCk7IG9wYWNpdHk6IDE7Ii8+PHBhdGggY2xhc3M9ImxpbmsiIG1hcmtlci1lbmQ9IiIgZD0iTTcxNi42NjY2NjY2NjY2NjY2LDM0My41LCA4ODEuNjY2NjY2NjY2NjY2Niw2MTYuNSIgc3R5bGU9InN0cm9rZS13aWR0aDogMC4zMTsgc3Ryb2tlLW9wYWNpdHk6IDE7IHN0cm9rZTogcmdiKDgwLCA4MCwgODApOyBvcGFjaXR5OiAxOyIvPjxwYXRoIGNsYXNzPSJsaW5rIiBtYXJrZXItZW5kPSIiIGQ9Ik03MTYuNjY2NjY2NjY2NjY2NiwzNDMuNSwgODgxLjY2NjY2NjY2NjY2NjYsNjU1LjUiIHN0eWxlPSJzdHJva2Utd2lkdGg6IDAuMzE7IHN0cm9rZS1vcGFjaXR5OiAxOyBzdHJva2U6IHJnYig4MCwgODAsIDgwKTsgb3BhY2l0eTogMTsiLz48cGF0aCBjbGFzcz0ibGluayIgbWFya2VyLWVuZD0iIiBkPSJNNzE2LjY2NjY2NjY2NjY2NjYsMzQzLjUsIDg4MS42NjY2NjY2NjY2NjY2LDY5NC41IiBzdHlsZT0ic3Ryb2tlLXdpZHRoOiAwLjMxOyBzdHJva2Utb3BhY2l0eTogMTsgc3Ryb2tlOiByZ2IoODAsIDgwLCA4MCk7IG9wYWNpdHk6IDE7Ii8+PHBhdGggY2xhc3M9ImxpbmsiIG1hcmtlci1lbmQ9IiIgZD0iTTcxNi42NjY2NjY2NjY2NjY2LDM4Mi41LCA4ODEuNjY2NjY2NjY2NjY2NiwzODIuNSIgc3R5bGU9InN0cm9rZS13aWR0aDogMC4zMTsgc3Ryb2tlLW9wYWNpdHk6IDE7IHN0cm9rZTogcmdiKDgwLCA4MCwgODApOyBvcGFjaXR5OiAxOyIvPjxwYXRoIGNsYXNzPSJsaW5rIiBtYXJrZXItZW5kPSIiIGQ9Ik03MTYuNjY2NjY2NjY2NjY2NiwzODIuNSwgODgxLjY2NjY2NjY2NjY2NjYsNDIxLjUiIHN0eWxlPSJzdHJva2Utd2lkdGg6IDAuMzE7IHN0cm9rZS1vcGFjaXR5OiAxOyBzdHJva2U6IHJnYig4MCwgODAsIDgwKTsgb3BhY2l0eTogMTsiLz48cGF0aCBjbGFzcz0ibGluayIgbWFya2VyLWVuZD0iIiBkPSJNNzE2LjY2NjY2NjY2NjY2NjYsMzgyLjUsIDg4MS42NjY2NjY2NjY2NjY2LDQ2MC41IiBzdHlsZT0ic3Ryb2tlLXdpZHRoOiAwLjMxOyBzdHJva2Utb3BhY2l0eTogMTsgc3Ryb2tlOiByZ2IoODAsIDgwLCA4MCk7IG9wYWNpdHk6IDE7Ii8+PHBhdGggY2xhc3M9ImxpbmsiIG1hcmtlci1lbmQ9IiIgZD0iTTcxNi42NjY2NjY2NjY2NjY2LDM4Mi41LCA4ODEuNjY2NjY2NjY2NjY2Niw0OTkuNSIgc3R5bGU9InN0cm9rZS13aWR0aDogMC4zMTsgc3Ryb2tlLW9wYWNpdHk6IDE7IHN0cm9rZTogcmdiKDgwLCA4MCwgODApOyBvcGFjaXR5OiAxOyIvPjxwYXRoIGNsYXNzPSJsaW5rIiBtYXJrZXItZW5kPSIiIGQ9Ik03MTYuNjY2NjY2NjY2NjY2NiwzODIuNSwgODgxLjY2NjY2NjY2NjY2NjYsNTM4LjUiIHN0eWxlPSJzdHJva2Utd2lkdGg6IDAuMzE7IHN0cm9rZS1vcGFjaXR5OiAxOyBzdHJva2U6IHJnYig4MCwgODAsIDgwKTsgb3BhY2l0eTogMTsiLz48cGF0aCBjbGFzcz0ibGluayIgbWFya2VyLWVuZD0iIiBkPSJNNzE2LjY2NjY2NjY2NjY2NjYsMzgyLjUsIDg4MS42NjY2NjY2NjY2NjY2LDU3Ny41IiBzdHlsZT0ic3Ryb2tlLXdpZHRoOiAwLjMxOyBzdHJva2Utb3BhY2l0eTogMTsgc3Ryb2tlOiByZ2IoODAsIDgwLCA4MCk7IG9wYWNpdHk6IDE7Ii8+PHBhdGggY2xhc3M9ImxpbmsiIG1hcmtlci1lbmQ9IiIgZD0iTTcxNi42NjY2NjY2NjY2NjY2LDM4Mi41LCA4ODEuNjY2NjY2NjY2NjY2Niw2MTYuNSIgc3R5bGU9InN0cm9rZS13aWR0aDogMC4zMTsgc3Ryb2tlLW9wYWNpdHk6IDE7IHN0cm9rZTogcmdiKDgwLCA4MCwgODApOyBvcGFjaXR5OiAxOyIvPjxwYXRoIGNsYXNzPSJsaW5rIiBtYXJrZXItZW5kPSIiIGQ9Ik03MTYuNjY2NjY2NjY2NjY2NiwzODIuNSwgODgxLjY2NjY2NjY2NjY2NjYsNjU1LjUiIHN0eWxlPSJzdHJva2Utd2lkdGg6IDAuMzE7IHN0cm9rZS1vcGFjaXR5OiAxOyBzdHJva2U6IHJnYig4MCwgODAsIDgwKTsgb3BhY2l0eTogMTsiLz48cGF0aCBjbGFzcz0ibGluayIgbWFya2VyLWVuZD0iIiBkPSJNNzE2LjY2NjY2NjY2NjY2NjYsMzgyLjUsIDg4MS42NjY2NjY2NjY2NjY2LDY5NC41IiBzdHlsZT0ic3Ryb2tlLXdpZHRoOiAwLjMxOyBzdHJva2Utb3BhY2l0eTogMTsgc3Ryb2tlOiByZ2IoODAsIDgwLCA4MCk7IG9wYWNpdHk6IDE7Ii8+PHBhdGggY2xhc3M9ImxpbmsiIG1hcmtlci1lbmQ9IiIgZD0iTTcxNi42NjY2NjY2NjY2NjY2LDQyMS41LCA4ODEuNjY2NjY2NjY2NjY2NiwzODIuNSIgc3R5bGU9InN0cm9rZS13aWR0aDogMC4zMTsgc3Ryb2tlLW9wYWNpdHk6IDE7IHN0cm9rZTogcmdiKDgwLCA4MCwgODApOyBvcGFjaXR5OiAxOyIvPjxwYXRoIGNsYXNzPSJsaW5rIiBtYXJrZXItZW5kPSIiIGQ9Ik03MTYuNjY2NjY2NjY2NjY2Niw0MjEuNSwgODgxLjY2NjY2NjY2NjY2NjYsNDIxLjUiIHN0eWxlPSJzdHJva2Utd2lkdGg6IDAuMzE7IHN0cm9rZS1vcGFjaXR5OiAxOyBzdHJva2U6IHJnYig4MCwgODAsIDgwKTsgb3BhY2l0eTogMTsiLz48cGF0aCBjbGFzcz0ibGluayIgbWFya2VyLWVuZD0iIiBkPSJNNzE2LjY2NjY2NjY2NjY2NjYsNDIxLjUsIDg4MS42NjY2NjY2NjY2NjY2LDQ2MC41IiBzdHlsZT0ic3Ryb2tlLXdpZHRoOiAwLjMxOyBzdHJva2Utb3BhY2l0eTogMTsgc3Ryb2tlOiByZ2IoODAsIDgwLCA4MCk7IG9wYWNpdHk6IDE7Ii8+PHBhdGggY2xhc3M9ImxpbmsiIG1hcmtlci1lbmQ9IiIgZD0iTTcxNi42NjY2NjY2NjY2NjY2LDQyMS41LCA4ODEuNjY2NjY2NjY2NjY2Niw0OTkuNSIgc3R5bGU9InN0cm9rZS13aWR0aDogMC4zMTsgc3Ryb2tlLW9wYWNpdHk6IDE7IHN0cm9rZTogcmdiKDgwLCA4MCwgODApOyBvcGFjaXR5OiAxOyIvPjxwYXRoIGNsYXNzPSJsaW5rIiBtYXJrZXItZW5kPSIiIGQ9Ik03MTYuNjY2NjY2NjY2NjY2Niw0MjEuNSwgODgxLjY2NjY2NjY2NjY2NjYsNTM4LjUiIHN0eWxlPSJzdHJva2Utd2lkdGg6IDAuMzE7IHN0cm9rZS1vcGFjaXR5OiAxOyBzdHJva2U6IHJnYig4MCwgODAsIDgwKTsgb3BhY2l0eTogMTsiLz48cGF0aCBjbGFzcz0ibGluayIgbWFya2VyLWVuZD0iIiBkPSJNNzE2LjY2NjY2NjY2NjY2NjYsNDIxLjUsIDg4MS42NjY2NjY2NjY2NjY2LDU3Ny41IiBzdHlsZT0ic3Ryb2tlLXdpZHRoOiAwLjMxOyBzdHJva2Utb3BhY2l0eTogMTsgc3Ryb2tlOiByZ2IoODAsIDgwLCA4MCk7IG9wYWNpdHk6IDE7Ii8+PHBhdGggY2xhc3M9ImxpbmsiIG1hcmtlci1lbmQ9IiIgZD0iTTcxNi42NjY2NjY2NjY2NjY2LDQyMS41LCA4ODEuNjY2NjY2NjY2NjY2Niw2MTYuNSIgc3R5bGU9InN0cm9rZS13aWR0aDogMC4zMTsgc3Ryb2tlLW9wYWNpdHk6IDE7IHN0cm9rZTogcmdiKDgwLCA4MCwgODApOyBvcGFjaXR5OiAxOyIvPjxwYXRoIGNsYXNzPSJsaW5rIiBtYXJrZXItZW5kPSIiIGQ9Ik03MTYuNjY2NjY2NjY2NjY2Niw0MjEuNSwgODgxLjY2NjY2NjY2NjY2NjYsNjU1LjUiIHN0eWxlPSJzdHJva2Utd2lkdGg6IDAuMzE7IHN0cm9rZS1vcGFjaXR5OiAxOyBzdHJva2U6IHJnYig4MCwgODAsIDgwKTsgb3BhY2l0eTogMTsiLz48cGF0aCBjbGFzcz0ibGluayIgbWFya2VyLWVuZD0iIiBkPSJNNzE2LjY2NjY2NjY2NjY2NjYsNDIxLjUsIDg4MS42NjY2NjY2NjY2NjY2LDY5NC41IiBzdHlsZT0ic3Ryb2tlLXdpZHRoOiAwLjMxOyBzdHJva2Utb3BhY2l0eTogMTsgc3Ryb2tlOiByZ2IoODAsIDgwLCA4MCk7IG9wYWNpdHk6IDE7Ii8+PHBhdGggY2xhc3M9ImxpbmsiIG1hcmtlci1lbmQ9IiIgZD0iTTcxNi42NjY2NjY2NjY2NjY2LDQ2MC41LCA4ODEuNjY2NjY2NjY2NjY2NiwzODIuNSIgc3R5bGU9InN0cm9rZS13aWR0aDogMC4zMTsgc3Ryb2tlLW9wYWNpdHk6IDE7IHN0cm9rZTogcmdiKDgwLCA4MCwgODApOyBvcGFjaXR5OiAxOyIvPjxwYXRoIGNsYXNzPSJsaW5rIiBtYXJrZXItZW5kPSIiIGQ9Ik03MTYuNjY2NjY2NjY2NjY2Niw0NjAuNSwgODgxLjY2NjY2NjY2NjY2NjYsNDIxLjUiIHN0eWxlPSJzdHJva2Utd2lkdGg6IDAuMzE7IHN0cm9rZS1vcGFjaXR5OiAxOyBzdHJva2U6IHJnYig4MCwgODAsIDgwKTsgb3BhY2l0eTogMTsiLz48cGF0aCBjbGFzcz0ibGluayIgbWFya2VyLWVuZD0iIiBkPSJNNzE2LjY2NjY2NjY2NjY2NjYsNDYwLjUsIDg4MS42NjY2NjY2NjY2NjY2LDQ2MC41IiBzdHlsZT0ic3Ryb2tlLXdpZHRoOiAwLjMxOyBzdHJva2Utb3BhY2l0eTogMTsgc3Ryb2tlOiByZ2IoODAsIDgwLCA4MCk7IG9wYWNpdHk6IDE7Ii8+PHBhdGggY2xhc3M9ImxpbmsiIG1hcmtlci1lbmQ9IiIgZD0iTTcxNi42NjY2NjY2NjY2NjY2LDQ2MC41LCA4ODEuNjY2NjY2NjY2NjY2Niw0OTkuNSIgc3R5bGU9InN0cm9rZS13aWR0aDogMC4zMTsgc3Ryb2tlLW9wYWNpdHk6IDE7IHN0cm9rZTogcmdiKDgwLCA4MCwgODApOyBvcGFjaXR5OiAxOyIvPjxwYXRoIGNsYXNzPSJsaW5rIiBtYXJrZXItZW5kPSIiIGQ9Ik03MTYuNjY2NjY2NjY2NjY2Niw0NjAuNSwgODgxLjY2NjY2NjY2NjY2NjYsNTM4LjUiIHN0eWxlPSJzdHJva2Utd2lkdGg6IDAuMzE7IHN0cm9rZS1vcGFjaXR5OiAxOyBzdHJva2U6IHJnYig4MCwgODAsIDgwKTsgb3BhY2l0eTogMTsiLz48cGF0aCBjbGFzcz0ibGluayIgbWFya2VyLWVuZD0iIiBkPSJNNzE2LjY2NjY2NjY2NjY2NjYsNDYwLjUsIDg4MS42NjY2NjY2NjY2NjY2LDU3Ny41IiBzdHlsZT0ic3Ryb2tlLXdpZHRoOiAwLjMxOyBzdHJva2Utb3BhY2l0eTogMTsgc3Ryb2tlOiByZ2IoODAsIDgwLCA4MCk7IG9wYWNpdHk6IDE7Ii8+PHBhdGggY2xhc3M9ImxpbmsiIG1hcmtlci1lbmQ9IiIgZD0iTTcxNi42NjY2NjY2NjY2NjY2LDQ2MC41LCA4ODEuNjY2NjY2NjY2NjY2Niw2MTYuNSIgc3R5bGU9InN0cm9rZS13aWR0aDogMC4zMTsgc3Ryb2tlLW9wYWNpdHk6IDE7IHN0cm9rZTogcmdiKDgwLCA4MCwgODApOyBvcGFjaXR5OiAxOyIvPjxwYXRoIGNsYXNzPSJsaW5rIiBtYXJrZXItZW5kPSIiIGQ9Ik03MTYuNjY2NjY2NjY2NjY2Niw0NjAuNSwgODgxLjY2NjY2NjY2NjY2NjYsNjU1LjUiIHN0eWxlPSJzdHJva2Utd2lkdGg6IDAuMzE7IHN0cm9rZS1vcGFjaXR5OiAxOyBzdHJva2U6IHJnYig4MCwgODAsIDgwKTsgb3BhY2l0eTogMTsiLz48cGF0aCBjbGFzcz0ibGluayIgbWFya2VyLWVuZD0iIiBkPSJNNzE2LjY2NjY2NjY2NjY2NjYsNDYwLjUsIDg4MS42NjY2NjY2NjY2NjY2LDY5NC41IiBzdHlsZT0ic3Ryb2tlLXdpZHRoOiAwLjMxOyBzdHJva2Utb3BhY2l0eTogMTsgc3Ryb2tlOiByZ2IoODAsIDgwLCA4MCk7IG9wYWNpdHk6IDE7Ii8+PHBhdGggY2xhc3M9ImxpbmsiIG1hcmtlci1lbmQ9IiIgZD0iTTcxNi42NjY2NjY2NjY2NjY2LDQ5OS41LCA4ODEuNjY2NjY2NjY2NjY2NiwzODIuNSIgc3R5bGU9InN0cm9rZS13aWR0aDogMC4zMTsgc3Ryb2tlLW9wYWNpdHk6IDE7IHN0cm9rZTogcmdiKDgwLCA4MCwgODApOyBvcGFjaXR5OiAxOyIvPjxwYXRoIGNsYXNzPSJsaW5rIiBtYXJrZXItZW5kPSIiIGQ9Ik03MTYuNjY2NjY2NjY2NjY2Niw0OTkuNSwgODgxLjY2NjY2NjY2NjY2NjYsNDIxLjUiIHN0eWxlPSJzdHJva2Utd2lkdGg6IDAuMzE7IHN0cm9rZS1vcGFjaXR5OiAxOyBzdHJva2U6IHJnYig4MCwgODAsIDgwKTsgb3BhY2l0eTogMTsiLz48cGF0aCBjbGFzcz0ibGluayIgbWFya2VyLWVuZD0iIiBkPSJNNzE2LjY2NjY2NjY2NjY2NjYsNDk5LjUsIDg4MS42NjY2NjY2NjY2NjY2LDQ2MC41IiBzdHlsZT0ic3Ryb2tlLXdpZHRoOiAwLjMxOyBzdHJva2Utb3BhY2l0eTogMTsgc3Ryb2tlOiByZ2IoODAsIDgwLCA4MCk7IG9wYWNpdHk6IDE7Ii8+PHBhdGggY2xhc3M9ImxpbmsiIG1hcmtlci1lbmQ9IiIgZD0iTTcxNi42NjY2NjY2NjY2NjY2LDQ5OS41LCA4ODEuNjY2NjY2NjY2NjY2Niw0OTkuNSIgc3R5bGU9InN0cm9rZS13aWR0aDogMC4zMTsgc3Ryb2tlLW9wYWNpdHk6IDE7IHN0cm9rZTogcmdiKDgwLCA4MCwgODApOyBvcGFjaXR5OiAxOyIvPjxwYXRoIGNsYXNzPSJsaW5rIiBtYXJrZXItZW5kPSIiIGQ9Ik03MTYuNjY2NjY2NjY2NjY2Niw0OTkuNSwgODgxLjY2NjY2NjY2NjY2NjYsNTM4LjUiIHN0eWxlPSJzdHJva2Utd2lkdGg6IDAuMzE7IHN0cm9rZS1vcGFjaXR5OiAxOyBzdHJva2U6IHJnYig4MCwgODAsIDgwKTsgb3BhY2l0eTogMTsiLz48cGF0aCBjbGFzcz0ibGluayIgbWFya2VyLWVuZD0iIiBkPSJNNzE2LjY2NjY2NjY2NjY2NjYsNDk5LjUsIDg4MS42NjY2NjY2NjY2NjY2LDU3Ny41IiBzdHlsZT0ic3Ryb2tlLXdpZHRoOiAwLjMxOyBzdHJva2Utb3BhY2l0eTogMTsgc3Ryb2tlOiByZ2IoODAsIDgwLCA4MCk7IG9wYWNpdHk6IDE7Ii8+PHBhdGggY2xhc3M9ImxpbmsiIG1hcmtlci1lbmQ9IiIgZD0iTTcxNi42NjY2NjY2NjY2NjY2LDQ5OS41LCA4ODEuNjY2NjY2NjY2NjY2Niw2MTYuNSIgc3R5bGU9InN0cm9rZS13aWR0aDogMC4zMTsgc3Ryb2tlLW9wYWNpdHk6IDE7IHN0cm9rZTogcmdiKDgwLCA4MCwgODApOyBvcGFjaXR5OiAxOyIvPjxwYXRoIGNsYXNzPSJsaW5rIiBtYXJrZXItZW5kPSIiIGQ9Ik03MTYuNjY2NjY2NjY2NjY2Niw0OTkuNSwgODgxLjY2NjY2NjY2NjY2NjYsNjU1LjUiIHN0eWxlPSJzdHJva2Utd2lkdGg6IDAuMzE7IHN0cm9rZS1vcGFjaXR5OiAxOyBzdHJva2U6IHJnYig4MCwgODAsIDgwKTsgb3BhY2l0eTogMTsiLz48cGF0aCBjbGFzcz0ibGluayIgbWFya2VyLWVuZD0iIiBkPSJNNzE2LjY2NjY2NjY2NjY2NjYsNDk5LjUsIDg4MS42NjY2NjY2NjY2NjY2LDY5NC41IiBzdHlsZT0ic3Ryb2tlLXdpZHRoOiAwLjMxOyBzdHJva2Utb3BhY2l0eTogMTsgc3Ryb2tlOiByZ2IoODAsIDgwLCA4MCk7IG9wYWNpdHk6IDE7Ii8+PHBhdGggY2xhc3M9ImxpbmsiIG1hcmtlci1lbmQ9IiIgZD0iTTcxNi42NjY2NjY2NjY2NjY2LDUzOC41LCA4ODEuNjY2NjY2NjY2NjY2NiwzODIuNSIgc3R5bGU9InN0cm9rZS13aWR0aDogMC4zMTsgc3Ryb2tlLW9wYWNpdHk6IDE7IHN0cm9rZTogcmdiKDgwLCA4MCwgODApOyBvcGFjaXR5OiAxOyIvPjxwYXRoIGNsYXNzPSJsaW5rIiBtYXJrZXItZW5kPSIiIGQ9Ik03MTYuNjY2NjY2NjY2NjY2Niw1MzguNSwgODgxLjY2NjY2NjY2NjY2NjYsNDIxLjUiIHN0eWxlPSJzdHJva2Utd2lkdGg6IDAuMzE7IHN0cm9rZS1vcGFjaXR5OiAxOyBzdHJva2U6IHJnYig4MCwgODAsIDgwKTsgb3BhY2l0eTogMTsiLz48cGF0aCBjbGFzcz0ibGluayIgbWFya2VyLWVuZD0iIiBkPSJNNzE2LjY2NjY2NjY2NjY2NjYsNTM4LjUsIDg4MS42NjY2NjY2NjY2NjY2LDQ2MC41IiBzdHlsZT0ic3Ryb2tlLXdpZHRoOiAwLjMxOyBzdHJva2Utb3BhY2l0eTogMTsgc3Ryb2tlOiByZ2IoODAsIDgwLCA4MCk7IG9wYWNpdHk6IDE7Ii8+PHBhdGggY2xhc3M9ImxpbmsiIG1hcmtlci1lbmQ9IiIgZD0iTTcxNi42NjY2NjY2NjY2NjY2LDUzOC41LCA4ODEuNjY2NjY2NjY2NjY2Niw0OTkuNSIgc3R5bGU9InN0cm9rZS13aWR0aDogMC4zMTsgc3Ryb2tlLW9wYWNpdHk6IDE7IHN0cm9rZTogcmdiKDgwLCA4MCwgODApOyBvcGFjaXR5OiAxOyIvPjxwYXRoIGNsYXNzPSJsaW5rIiBtYXJrZXItZW5kPSIiIGQ9Ik03MTYuNjY2NjY2NjY2NjY2Niw1MzguNSwgODgxLjY2NjY2NjY2NjY2NjYsNTM4LjUiIHN0eWxlPSJzdHJva2Utd2lkdGg6IDAuMzE7IHN0cm9rZS1vcGFjaXR5OiAxOyBzdHJva2U6IHJnYig4MCwgODAsIDgwKTsgb3BhY2l0eTogMTsiLz48cGF0aCBjbGFzcz0ibGluayIgbWFya2VyLWVuZD0iIiBkPSJNNzE2LjY2NjY2NjY2NjY2NjYsNTM4LjUsIDg4MS42NjY2NjY2NjY2NjY2LDU3Ny41IiBzdHlsZT0ic3Ryb2tlLXdpZHRoOiAwLjMxOyBzdHJva2Utb3BhY2l0eTogMTsgc3Ryb2tlOiByZ2IoODAsIDgwLCA4MCk7IG9wYWNpdHk6IDE7Ii8+PHBhdGggY2xhc3M9ImxpbmsiIG1hcmtlci1lbmQ9IiIgZD0iTTcxNi42NjY2NjY2NjY2NjY2LDUzOC41LCA4ODEuNjY2NjY2NjY2NjY2Niw2MTYuNSIgc3R5bGU9InN0cm9rZS13aWR0aDogMC4zMTsgc3Ryb2tlLW9wYWNpdHk6IDE7IHN0cm9rZTogcmdiKDgwLCA4MCwgODApOyBvcGFjaXR5OiAxOyIvPjxwYXRoIGNsYXNzPSJsaW5rIiBtYXJrZXItZW5kPSIiIGQ9Ik03MTYuNjY2NjY2NjY2NjY2Niw1MzguNSwgODgxLjY2NjY2NjY2NjY2NjYsNjU1LjUiIHN0eWxlPSJzdHJva2Utd2lkdGg6IDAuMzE7IHN0cm9rZS1vcGFjaXR5OiAxOyBzdHJva2U6IHJnYig4MCwgODAsIDgwKTsgb3BhY2l0eTogMTsiLz48cGF0aCBjbGFzcz0ibGluayIgbWFya2VyLWVuZD0iIiBkPSJNNzE2LjY2NjY2NjY2NjY2NjYsNTM4LjUsIDg4MS42NjY2NjY2NjY2NjY2LDY5NC41IiBzdHlsZT0ic3Ryb2tlLXdpZHRoOiAwLjMxOyBzdHJva2Utb3BhY2l0eTogMTsgc3Ryb2tlOiByZ2IoODAsIDgwLCA4MCk7IG9wYWNpdHk6IDE7Ii8+PHBhdGggY2xhc3M9ImxpbmsiIG1hcmtlci1lbmQ9IiIgZD0iTTcxNi42NjY2NjY2NjY2NjY2LDU3Ny41LCA4ODEuNjY2NjY2NjY2NjY2NiwzODIuNSIgc3R5bGU9InN0cm9rZS13aWR0aDogMC4zMTsgc3Ryb2tlLW9wYWNpdHk6IDE7IHN0cm9rZTogcmdiKDgwLCA4MCwgODApOyBvcGFjaXR5OiAxOyIvPjxwYXRoIGNsYXNzPSJsaW5rIiBtYXJrZXItZW5kPSIiIGQ9Ik03MTYuNjY2NjY2NjY2NjY2Niw1NzcuNSwgODgxLjY2NjY2NjY2NjY2NjYsNDIxLjUiIHN0eWxlPSJzdHJva2Utd2lkdGg6IDAuMzE7IHN0cm9rZS1vcGFjaXR5OiAxOyBzdHJva2U6IHJnYig4MCwgODAsIDgwKTsgb3BhY2l0eTogMTsiLz48cGF0aCBjbGFzcz0ibGluayIgbWFya2VyLWVuZD0iIiBkPSJNNzE2LjY2NjY2NjY2NjY2NjYsNTc3LjUsIDg4MS42NjY2NjY2NjY2NjY2LDQ2MC41IiBzdHlsZT0ic3Ryb2tlLXdpZHRoOiAwLjMxOyBzdHJva2Utb3BhY2l0eTogMTsgc3Ryb2tlOiByZ2IoODAsIDgwLCA4MCk7IG9wYWNpdHk6IDE7Ii8+PHBhdGggY2xhc3M9ImxpbmsiIG1hcmtlci1lbmQ9IiIgZD0iTTcxNi42NjY2NjY2NjY2NjY2LDU3Ny41LCA4ODEuNjY2NjY2NjY2NjY2Niw0OTkuNSIgc3R5bGU9InN0cm9rZS13aWR0aDogMC4zMTsgc3Ryb2tlLW9wYWNpdHk6IDE7IHN0cm9rZTogcmdiKDgwLCA4MCwgODApOyBvcGFjaXR5OiAxOyIvPjxwYXRoIGNsYXNzPSJsaW5rIiBtYXJrZXItZW5kPSIiIGQ9Ik03MTYuNjY2NjY2NjY2NjY2Niw1NzcuNSwgODgxLjY2NjY2NjY2NjY2NjYsNTM4LjUiIHN0eWxlPSJzdHJva2Utd2lkdGg6IDAuMzE7IHN0cm9rZS1vcGFjaXR5OiAxOyBzdHJva2U6IHJnYig4MCwgODAsIDgwKTsgb3BhY2l0eTogMTsiLz48cGF0aCBjbGFzcz0ibGluayIgbWFya2VyLWVuZD0iIiBkPSJNNzE2LjY2NjY2NjY2NjY2NjYsNTc3LjUsIDg4MS42NjY2NjY2NjY2NjY2LDU3Ny41IiBzdHlsZT0ic3Ryb2tlLXdpZHRoOiAwLjMxOyBzdHJva2Utb3BhY2l0eTogMTsgc3Ryb2tlOiByZ2IoODAsIDgwLCA4MCk7IG9wYWNpdHk6IDE7Ii8+PHBhdGggY2xhc3M9ImxpbmsiIG1hcmtlci1lbmQ9IiIgZD0iTTcxNi42NjY2NjY2NjY2NjY2LDU3Ny41LCA4ODEuNjY2NjY2NjY2NjY2Niw2MTYuNSIgc3R5bGU9InN0cm9rZS13aWR0aDogMC4zMTsgc3Ryb2tlLW9wYWNpdHk6IDE7IHN0cm9rZTogcmdiKDgwLCA4MCwgODApOyBvcGFjaXR5OiAxOyIvPjxwYXRoIGNsYXNzPSJsaW5rIiBtYXJrZXItZW5kPSIiIGQ9Ik03MTYuNjY2NjY2NjY2NjY2Niw1NzcuNSwgODgxLjY2NjY2NjY2NjY2NjYsNjU1LjUiIHN0eWxlPSJzdHJva2Utd2lkdGg6IDAuMzE7IHN0cm9rZS1vcGFjaXR5OiAxOyBzdHJva2U6IHJnYig4MCwgODAsIDgwKTsgb3BhY2l0eTogMTsiLz48cGF0aCBjbGFzcz0ibGluayIgbWFya2VyLWVuZD0iIiBkPSJNNzE2LjY2NjY2NjY2NjY2NjYsNTc3LjUsIDg4MS42NjY2NjY2NjY2NjY2LDY5NC41IiBzdHlsZT0ic3Ryb2tlLXdpZHRoOiAwLjMxOyBzdHJva2Utb3BhY2l0eTogMTsgc3Ryb2tlOiByZ2IoODAsIDgwLCA4MCk7IG9wYWNpdHk6IDE7Ii8+PHBhdGggY2xhc3M9ImxpbmsiIG1hcmtlci1lbmQ9IiIgZD0iTTcxNi42NjY2NjY2NjY2NjY2LDYxNi41LCA4ODEuNjY2NjY2NjY2NjY2NiwzODIuNSIgc3R5bGU9InN0cm9rZS13aWR0aDogMC4zMTsgc3Ryb2tlLW9wYWNpdHk6IDE7IHN0cm9rZTogcmdiKDgwLCA4MCwgODApOyBvcGFjaXR5OiAxOyIvPjxwYXRoIGNsYXNzPSJsaW5rIiBtYXJrZXItZW5kPSIiIGQ9Ik03MTYuNjY2NjY2NjY2NjY2Niw2MTYuNSwgODgxLjY2NjY2NjY2NjY2NjYsNDIxLjUiIHN0eWxlPSJzdHJva2Utd2lkdGg6IDAuMzE7IHN0cm9rZS1vcGFjaXR5OiAxOyBzdHJva2U6IHJnYig4MCwgODAsIDgwKTsgb3BhY2l0eTogMTsiLz48cGF0aCBjbGFzcz0ibGluayIgbWFya2VyLWVuZD0iIiBkPSJNNzE2LjY2NjY2NjY2NjY2NjYsNjE2LjUsIDg4MS42NjY2NjY2NjY2NjY2LDQ2MC41IiBzdHlsZT0ic3Ryb2tlLXdpZHRoOiAwLjMxOyBzdHJva2Utb3BhY2l0eTogMTsgc3Ryb2tlOiByZ2IoODAsIDgwLCA4MCk7IG9wYWNpdHk6IDE7Ii8+PHBhdGggY2xhc3M9ImxpbmsiIG1hcmtlci1lbmQ9IiIgZD0iTTcxNi42NjY2NjY2NjY2NjY2LDYxNi41LCA4ODEuNjY2NjY2NjY2NjY2Niw0OTkuNSIgc3R5bGU9InN0cm9rZS13aWR0aDogMC4zMTsgc3Ryb2tlLW9wYWNpdHk6IDE7IHN0cm9rZTogcmdiKDgwLCA4MCwgODApOyBvcGFjaXR5OiAxOyIvPjxwYXRoIGNsYXNzPSJsaW5rIiBtYXJrZXItZW5kPSIiIGQ9Ik03MTYuNjY2NjY2NjY2NjY2Niw2MTYuNSwgODgxLjY2NjY2NjY2NjY2NjYsNTM4LjUiIHN0eWxlPSJzdHJva2Utd2lkdGg6IDAuMzE7IHN0cm9rZS1vcGFjaXR5OiAxOyBzdHJva2U6IHJnYig4MCwgODAsIDgwKTsgb3BhY2l0eTogMTsiLz48cGF0aCBjbGFzcz0ibGluayIgbWFya2VyLWVuZD0iIiBkPSJNNzE2LjY2NjY2NjY2NjY2NjYsNjE2LjUsIDg4MS42NjY2NjY2NjY2NjY2LDU3Ny41IiBzdHlsZT0ic3Ryb2tlLXdpZHRoOiAwLjMxOyBzdHJva2Utb3BhY2l0eTogMTsgc3Ryb2tlOiByZ2IoODAsIDgwLCA4MCk7IG9wYWNpdHk6IDE7Ii8+PHBhdGggY2xhc3M9ImxpbmsiIG1hcmtlci1lbmQ9IiIgZD0iTTcxNi42NjY2NjY2NjY2NjY2LDYxNi41LCA4ODEuNjY2NjY2NjY2NjY2Niw2MTYuNSIgc3R5bGU9InN0cm9rZS13aWR0aDogMC4zMTsgc3Ryb2tlLW9wYWNpdHk6IDE7IHN0cm9rZTogcmdiKDgwLCA4MCwgODApOyBvcGFjaXR5OiAxOyIvPjxwYXRoIGNsYXNzPSJsaW5rIiBtYXJrZXItZW5kPSIiIGQ9Ik03MTYuNjY2NjY2NjY2NjY2Niw2MTYuNSwgODgxLjY2NjY2NjY2NjY2NjYsNjU1LjUiIHN0eWxlPSJzdHJva2Utd2lkdGg6IDAuMzE7IHN0cm9rZS1vcGFjaXR5OiAxOyBzdHJva2U6IHJnYig4MCwgODAsIDgwKTsgb3BhY2l0eTogMTsiLz48cGF0aCBjbGFzcz0ibGluayIgbWFya2VyLWVuZD0iIiBkPSJNNzE2LjY2NjY2NjY2NjY2NjYsNjE2LjUsIDg4MS42NjY2NjY2NjY2NjY2LDY5NC41IiBzdHlsZT0ic3Ryb2tlLXdpZHRoOiAwLjMxOyBzdHJva2Utb3BhY2l0eTogMTsgc3Ryb2tlOiByZ2IoODAsIDgwLCA4MCk7IG9wYWNpdHk6IDE7Ii8+PHBhdGggY2xhc3M9ImxpbmsiIG1hcmtlci1lbmQ9IiIgZD0iTTcxNi42NjY2NjY2NjY2NjY2LDY1NS41LCA4ODEuNjY2NjY2NjY2NjY2NiwzODIuNSIgc3R5bGU9InN0cm9rZS13aWR0aDogMC4zMTsgc3Ryb2tlLW9wYWNpdHk6IDE7IHN0cm9rZTogcmdiKDgwLCA4MCwgODApOyBvcGFjaXR5OiAxOyIvPjxwYXRoIGNsYXNzPSJsaW5rIiBtYXJrZXItZW5kPSIiIGQ9Ik03MTYuNjY2NjY2NjY2NjY2Niw2NTUuNSwgODgxLjY2NjY2NjY2NjY2NjYsNDIxLjUiIHN0eWxlPSJzdHJva2Utd2lkdGg6IDAuMzE7IHN0cm9rZS1vcGFjaXR5OiAxOyBzdHJva2U6IHJnYig4MCwgODAsIDgwKTsgb3BhY2l0eTogMTsiLz48cGF0aCBjbGFzcz0ibGluayIgbWFya2VyLWVuZD0iIiBkPSJNNzE2LjY2NjY2NjY2NjY2NjYsNjU1LjUsIDg4MS42NjY2NjY2NjY2NjY2LDQ2MC41IiBzdHlsZT0ic3Ryb2tlLXdpZHRoOiAwLjMxOyBzdHJva2Utb3BhY2l0eTogMTsgc3Ryb2tlOiByZ2IoODAsIDgwLCA4MCk7IG9wYWNpdHk6IDE7Ii8+PHBhdGggY2xhc3M9ImxpbmsiIG1hcmtlci1lbmQ9IiIgZD0iTTcxNi42NjY2NjY2NjY2NjY2LDY1NS41LCA4ODEuNjY2NjY2NjY2NjY2Niw0OTkuNSIgc3R5bGU9InN0cm9rZS13aWR0aDogMC4zMTsgc3Ryb2tlLW9wYWNpdHk6IDE7IHN0cm9rZTogcmdiKDgwLCA4MCwgODApOyBvcGFjaXR5OiAxOyIvPjxwYXRoIGNsYXNzPSJsaW5rIiBtYXJrZXItZW5kPSIiIGQ9Ik03MTYuNjY2NjY2NjY2NjY2Niw2NTUuNSwgODgxLjY2NjY2NjY2NjY2NjYsNTM4LjUiIHN0eWxlPSJzdHJva2Utd2lkdGg6IDAuMzE7IHN0cm9rZS1vcGFjaXR5OiAxOyBzdHJva2U6IHJnYig4MCwgODAsIDgwKTsgb3BhY2l0eTogMTsiLz48cGF0aCBjbGFzcz0ibGluayIgbWFya2VyLWVuZD0iIiBkPSJNNzE2LjY2NjY2NjY2NjY2NjYsNjU1LjUsIDg4MS42NjY2NjY2NjY2NjY2LDU3Ny41IiBzdHlsZT0ic3Ryb2tlLXdpZHRoOiAwLjMxOyBzdHJva2Utb3BhY2l0eTogMTsgc3Ryb2tlOiByZ2IoODAsIDgwLCA4MCk7IG9wYWNpdHk6IDE7Ii8+PHBhdGggY2xhc3M9ImxpbmsiIG1hcmtlci1lbmQ9IiIgZD0iTTcxNi42NjY2NjY2NjY2NjY2LDY1NS41LCA4ODEuNjY2NjY2NjY2NjY2Niw2MTYuNSIgc3R5bGU9InN0cm9rZS13aWR0aDogMC4zMTsgc3Ryb2tlLW9wYWNpdHk6IDE7IHN0cm9rZTogcmdiKDgwLCA4MCwgODApOyBvcGFjaXR5OiAxOyIvPjxwYXRoIGNsYXNzPSJsaW5rIiBtYXJrZXItZW5kPSIiIGQ9Ik03MTYuNjY2NjY2NjY2NjY2Niw2NTUuNSwgODgxLjY2NjY2NjY2NjY2NjYsNjU1LjUiIHN0eWxlPSJzdHJva2Utd2lkdGg6IDAuMzE7IHN0cm9rZS1vcGFjaXR5OiAxOyBzdHJva2U6IHJnYig4MCwgODAsIDgwKTsgb3BhY2l0eTogMTsiLz48cGF0aCBjbGFzcz0ibGluayIgbWFya2VyLWVuZD0iIiBkPSJNNzE2LjY2NjY2NjY2NjY2NjYsNjU1LjUsIDg4MS42NjY2NjY2NjY2NjY2LDY5NC41IiBzdHlsZT0ic3Ryb2tlLXdpZHRoOiAwLjMxOyBzdHJva2Utb3BhY2l0eTogMTsgc3Ryb2tlOiByZ2IoODAsIDgwLCA4MCk7IG9wYWNpdHk6IDE7Ii8+PHBhdGggY2xhc3M9ImxpbmsiIG1hcmtlci1lbmQ9IiIgZD0iTTcxNi42NjY2NjY2NjY2NjY2LDY5NC41LCA4ODEuNjY2NjY2NjY2NjY2NiwzODIuNSIgc3R5bGU9InN0cm9rZS13aWR0aDogMC4zMTsgc3Ryb2tlLW9wYWNpdHk6IDE7IHN0cm9rZTogcmdiKDgwLCA4MCwgODApOyBvcGFjaXR5OiAxOyIvPjxwYXRoIGNsYXNzPSJsaW5rIiBtYXJrZXItZW5kPSIiIGQ9Ik03MTYuNjY2NjY2NjY2NjY2Niw2OTQuNSwgODgxLjY2NjY2NjY2NjY2NjYsNDIxLjUiIHN0eWxlPSJzdHJva2Utd2lkdGg6IDAuMzE7IHN0cm9rZS1vcGFjaXR5OiAxOyBzdHJva2U6IHJnYig4MCwgODAsIDgwKTsgb3BhY2l0eTogMTsiLz48cGF0aCBjbGFzcz0ibGluayIgbWFya2VyLWVuZD0iIiBkPSJNNzE2LjY2NjY2NjY2NjY2NjYsNjk0LjUsIDg4MS42NjY2NjY2NjY2NjY2LDQ2MC41IiBzdHlsZT0ic3Ryb2tlLXdpZHRoOiAwLjMxOyBzdHJva2Utb3BhY2l0eTogMTsgc3Ryb2tlOiByZ2IoODAsIDgwLCA4MCk7IG9wYWNpdHk6IDE7Ii8+PHBhdGggY2xhc3M9ImxpbmsiIG1hcmtlci1lbmQ9IiIgZD0iTTcxNi42NjY2NjY2NjY2NjY2LDY5NC41LCA4ODEuNjY2NjY2NjY2NjY2Niw0OTkuNSIgc3R5bGU9InN0cm9rZS13aWR0aDogMC4zMTsgc3Ryb2tlLW9wYWNpdHk6IDE7IHN0cm9rZTogcmdiKDgwLCA4MCwgODApOyBvcGFjaXR5OiAxOyIvPjxwYXRoIGNsYXNzPSJsaW5rIiBtYXJrZXItZW5kPSIiIGQ9Ik03MTYuNjY2NjY2NjY2NjY2Niw2OTQuNSwgODgxLjY2NjY2NjY2NjY2NjYsNTM4LjUiIHN0eWxlPSJzdHJva2Utd2lkdGg6IDAuMzE7IHN0cm9rZS1vcGFjaXR5OiAxOyBzdHJva2U6IHJnYig4MCwgODAsIDgwKTsgb3BhY2l0eTogMTsiLz48cGF0aCBjbGFzcz0ibGluayIgbWFya2VyLWVuZD0iIiBkPSJNNzE2LjY2NjY2NjY2NjY2NjYsNjk0LjUsIDg4MS42NjY2NjY2NjY2NjY2LDU3Ny41IiBzdHlsZT0ic3Ryb2tlLXdpZHRoOiAwLjMxOyBzdHJva2Utb3BhY2l0eTogMTsgc3Ryb2tlOiByZ2IoODAsIDgwLCA4MCk7IG9wYWNpdHk6IDE7Ii8+PHBhdGggY2xhc3M9ImxpbmsiIG1hcmtlci1lbmQ9IiIgZD0iTTcxNi42NjY2NjY2NjY2NjY2LDY5NC41LCA4ODEuNjY2NjY2NjY2NjY2Niw2MTYuNSIgc3R5bGU9InN0cm9rZS13aWR0aDogMC4zMTsgc3Ryb2tlLW9wYWNpdHk6IDE7IHN0cm9rZTogcmdiKDgwLCA4MCwgODApOyBvcGFjaXR5OiAxOyIvPjxwYXRoIGNsYXNzPSJsaW5rIiBtYXJrZXItZW5kPSIiIGQ9Ik03MTYuNjY2NjY2NjY2NjY2Niw2OTQuNSwgODgxLjY2NjY2NjY2NjY2NjYsNjU1LjUiIHN0eWxlPSJzdHJva2Utd2lkdGg6IDAuMzE7IHN0cm9rZS1vcGFjaXR5OiAxOyBzdHJva2U6IHJnYig4MCwgODAsIDgwKTsgb3BhY2l0eTogMTsiLz48cGF0aCBjbGFzcz0ibGluayIgbWFya2VyLWVuZD0iIiBkPSJNNzE2LjY2NjY2NjY2NjY2NjYsNjk0LjUsIDg4MS42NjY2NjY2NjY2NjY2LDY5NC41IiBzdHlsZT0ic3Ryb2tlLXdpZHRoOiAwLjMxOyBzdHJva2Utb3BhY2l0eTogMTsgc3Ryb2tlOiByZ2IoODAsIDgwLCA4MCk7IG9wYWNpdHk6IDE7Ii8+PHBhdGggY2xhc3M9ImxpbmsiIG1hcmtlci1lbmQ9IiIgZD0iTTg4MS42NjY2NjY2NjY2NjY2LDM0My41LCAxMDQ2LjY2NjY2NjY2NjY2NjcsNTM4LjUiIHN0eWxlPSJzdHJva2Utd2lkdGg6IDAuMzE7IHN0cm9rZS1vcGFjaXR5OiAxOyBzdHJva2U6IHJnYig4MCwgODAsIDgwKTsgb3BhY2l0eTogMTsiLz48cGF0aCBjbGFzcz0ibGluayIgbWFya2VyLWVuZD0iIiBkPSJNODgxLjY2NjY2NjY2NjY2NjYsMzgyLjUsIDEwNDYuNjY2NjY2NjY2NjY2Nyw1MzguNSIgc3R5bGU9InN0cm9rZS13aWR0aDogMC4zMTsgc3Ryb2tlLW9wYWNpdHk6IDE7IHN0cm9rZTogcmdiKDgwLCA4MCwgODApOyBvcGFjaXR5OiAxOyIvPjxwYXRoIGNsYXNzPSJsaW5rIiBtYXJrZXItZW5kPSIiIGQ9Ik04ODEuNjY2NjY2NjY2NjY2Niw0MjEuNSwgMTA0Ni42NjY2NjY2NjY2NjY3LDUzOC41IiBzdHlsZT0ic3Ryb2tlLXdpZHRoOiAwLjMxOyBzdHJva2Utb3BhY2l0eTogMTsgc3Ryb2tlOiByZ2IoODAsIDgwLCA4MCk7IG9wYWNpdHk6IDE7Ii8+PHBhdGggY2xhc3M9ImxpbmsiIG1hcmtlci1lbmQ9IiIgZD0iTTg4MS42NjY2NjY2NjY2NjY2LDQ2MC41LCAxMDQ2LjY2NjY2NjY2NjY2NjcsNTM4LjUiIHN0eWxlPSJzdHJva2Utd2lkdGg6IDAuMzE7IHN0cm9rZS1vcGFjaXR5OiAxOyBzdHJva2U6IHJnYig4MCwgODAsIDgwKTsgb3BhY2l0eTogMTsiLz48cGF0aCBjbGFzcz0ibGluayIgbWFya2VyLWVuZD0iIiBkPSJNODgxLjY2NjY2NjY2NjY2NjYsNDk5LjUsIDEwNDYuNjY2NjY2NjY2NjY2Nyw1MzguNSIgc3R5bGU9InN0cm9rZS13aWR0aDogMC4zMTsgc3Ryb2tlLW9wYWNpdHk6IDE7IHN0cm9rZTogcmdiKDgwLCA4MCwgODApOyBvcGFjaXR5OiAxOyIvPjxwYXRoIGNsYXNzPSJsaW5rIiBtYXJrZXItZW5kPSIiIGQ9Ik04ODEuNjY2NjY2NjY2NjY2Niw1MzguNSwgMTA0Ni42NjY2NjY2NjY2NjY3LDUzOC41IiBzdHlsZT0ic3Ryb2tlLXdpZHRoOiAwLjMxOyBzdHJva2Utb3BhY2l0eTogMTsgc3Ryb2tlOiByZ2IoODAsIDgwLCA4MCk7IG9wYWNpdHk6IDE7Ii8+PHBhdGggY2xhc3M9ImxpbmsiIG1hcmtlci1lbmQ9IiIgZD0iTTg4MS42NjY2NjY2NjY2NjY2LDU3Ny41LCAxMDQ2LjY2NjY2NjY2NjY2NjcsNTM4LjUiIHN0eWxlPSJzdHJva2Utd2lkdGg6IDAuMzE7IHN0cm9rZS1vcGFjaXR5OiAxOyBzdHJva2U6IHJnYig4MCwgODAsIDgwKTsgb3BhY2l0eTogMTsiLz48cGF0aCBjbGFzcz0ibGluayIgbWFya2VyLWVuZD0iIiBkPSJNODgxLjY2NjY2NjY2NjY2NjYsNjE2LjUsIDEwNDYuNjY2NjY2NjY2NjY2Nyw1MzguNSIgc3R5bGU9InN0cm9rZS13aWR0aDogMC4zMTsgc3Ryb2tlLW9wYWNpdHk6IDE7IHN0cm9rZTogcmdiKDgwLCA4MCwgODApOyBvcGFjaXR5OiAxOyIvPjxwYXRoIGNsYXNzPSJsaW5rIiBtYXJrZXItZW5kPSIiIGQ9Ik04ODEuNjY2NjY2NjY2NjY2Niw2NTUuNSwgMTA0Ni42NjY2NjY2NjY2NjY3LDUzOC41IiBzdHlsZT0ic3Ryb2tlLXdpZHRoOiAwLjMxOyBzdHJva2Utb3BhY2l0eTogMTsgc3Ryb2tlOiByZ2IoODAsIDgwLCA4MCk7IG9wYWNpdHk6IDE7Ii8+PHBhdGggY2xhc3M9ImxpbmsiIG1hcmtlci1lbmQ9IiIgZD0iTTg4MS42NjY2NjY2NjY2NjY2LDY5NC41LCAxMDQ2LjY2NjY2NjY2NjY2NjcsNTM4LjUiIHN0eWxlPSJzdHJva2Utd2lkdGg6IDAuMzE7IHN0cm9rZS1vcGFjaXR5OiAxOyBzdHJva2U6IHJnYig4MCwgODAsIDgwKTsgb3BhY2l0eTogMTsiLz48cGF0aCBjbGFzcz0ibGluayIgbWFya2VyLWVuZD0iIiBkPSJNNzE2LjY2NjY2NjY2NjY2NjYsNzMzLjUsIDg4MS42NjY2NjY2NjY2NjY2LDM4Mi41IiBzdHlsZT0ic3Ryb2tlLXdpZHRoOiAwLjMxOyBzdHJva2Utb3BhY2l0eTogMTsgc3Ryb2tlOiByZ2IoODAsIDgwLCA4MCk7IG9wYWNpdHk6IDE7Ii8+PHBhdGggY2xhc3M9ImxpbmsiIG1hcmtlci1lbmQ9IiIgZD0iTTcxNi42NjY2NjY2NjY2NjY2LDczMy41LCA4ODEuNjY2NjY2NjY2NjY2Niw0MjEuNSIgc3R5bGU9InN0cm9rZS13aWR0aDogMC4zMTsgc3Ryb2tlLW9wYWNpdHk6IDE7IHN0cm9rZTogcmdiKDgwLCA4MCwgODApOyBvcGFjaXR5OiAxOyIvPjxwYXRoIGNsYXNzPSJsaW5rIiBtYXJrZXItZW5kPSIiIGQ9Ik03MTYuNjY2NjY2NjY2NjY2Niw3MzMuNSwgODgxLjY2NjY2NjY2NjY2NjYsNDYwLjUiIHN0eWxlPSJzdHJva2Utd2lkdGg6IDAuMzE7IHN0cm9rZS1vcGFjaXR5OiAxOyBzdHJva2U6IHJnYig4MCwgODAsIDgwKTsgb3BhY2l0eTogMTsiLz48cGF0aCBjbGFzcz0ibGluayIgbWFya2VyLWVuZD0iIiBkPSJNNzE2LjY2NjY2NjY2NjY2NjYsNzMzLjUsIDg4MS42NjY2NjY2NjY2NjY2LDQ5OS41IiBzdHlsZT0ic3Ryb2tlLXdpZHRoOiAwLjMxOyBzdHJva2Utb3BhY2l0eTogMTsgc3Ryb2tlOiByZ2IoODAsIDgwLCA4MCk7IG9wYWNpdHk6IDE7Ii8+PHBhdGggY2xhc3M9ImxpbmsiIG1hcmtlci1lbmQ9IiIgZD0iTTcxNi42NjY2NjY2NjY2NjY2LDczMy41LCA4ODEuNjY2NjY2NjY2NjY2Niw1MzguNSIgc3R5bGU9InN0cm9rZS13aWR0aDogMC4zMTsgc3Ryb2tlLW9wYWNpdHk6IDE7IHN0cm9rZTogcmdiKDgwLCA4MCwgODApOyBvcGFjaXR5OiAxOyIvPjxwYXRoIGNsYXNzPSJsaW5rIiBtYXJrZXItZW5kPSIiIGQ9Ik03MTYuNjY2NjY2NjY2NjY2Niw3MzMuNSwgODgxLjY2NjY2NjY2NjY2NjYsNTc3LjUiIHN0eWxlPSJzdHJva2Utd2lkdGg6IDAuMzE7IHN0cm9rZS1vcGFjaXR5OiAxOyBzdHJva2U6IHJnYig4MCwgODAsIDgwKTsgb3BhY2l0eTogMTsiLz48cGF0aCBjbGFzcz0ibGluayIgbWFya2VyLWVuZD0iIiBkPSJNNzE2LjY2NjY2NjY2NjY2NjYsNzMzLjUsIDg4MS42NjY2NjY2NjY2NjY2LDYxNi41IiBzdHlsZT0ic3Ryb2tlLXdpZHRoOiAwLjMxOyBzdHJva2Utb3BhY2l0eTogMTsgc3Ryb2tlOiByZ2IoODAsIDgwLCA4MCk7IG9wYWNpdHk6IDE7Ii8+PHBhdGggY2xhc3M9ImxpbmsiIG1hcmtlci1lbmQ9IiIgZD0iTTcxNi42NjY2NjY2NjY2NjY2LDczMy41LCA4ODEuNjY2NjY2NjY2NjY2Niw2NTUuNSIgc3R5bGU9InN0cm9rZS13aWR0aDogMC4zMTsgc3Ryb2tlLW9wYWNpdHk6IDE7IHN0cm9rZTogcmdiKDgwLCA4MCwgODApOyBvcGFjaXR5OiAxOyIvPjxwYXRoIGNsYXNzPSJsaW5rIiBtYXJrZXItZW5kPSIiIGQ9Ik03MTYuNjY2NjY2NjY2NjY2Niw3MzMuNSwgODgxLjY2NjY2NjY2NjY2NjYsNjk0LjUiIHN0eWxlPSJzdHJva2Utd2lkdGg6IDAuMzE7IHN0cm9rZS1vcGFjaXR5OiAxOyBzdHJva2U6IHJnYig4MCwgODAsIDgwKTsgb3BhY2l0eTogMTsiLz48cGF0aCBjbGFzcz0ibGluayIgbWFya2VyLWVuZD0iIiBkPSJNNzE2LjY2NjY2NjY2NjY2NjYsNzcyLjUsIDg4MS42NjY2NjY2NjY2NjY2LDM4Mi41IiBzdHlsZT0ic3Ryb2tlLXdpZHRoOiAwLjMxOyBzdHJva2Utb3BhY2l0eTogMTsgc3Ryb2tlOiByZ2IoODAsIDgwLCA4MCk7IG9wYWNpdHk6IDE7Ii8+PHBhdGggY2xhc3M9ImxpbmsiIG1hcmtlci1lbmQ9IiIgZD0iTTcxNi42NjY2NjY2NjY2NjY2LDc3Mi41LCA4ODEuNjY2NjY2NjY2NjY2Niw0MjEuNSIgc3R5bGU9InN0cm9rZS13aWR0aDogMC4zMTsgc3Ryb2tlLW9wYWNpdHk6IDE7IHN0cm9rZTogcmdiKDgwLCA4MCwgODApOyBvcGFjaXR5OiAxOyIvPjxwYXRoIGNsYXNzPSJsaW5rIiBtYXJrZXItZW5kPSIiIGQ9Ik03MTYuNjY2NjY2NjY2NjY2Niw3NzIuNSwgODgxLjY2NjY2NjY2NjY2NjYsNDYwLjUiIHN0eWxlPSJzdHJva2Utd2lkdGg6IDAuMzE7IHN0cm9rZS1vcGFjaXR5OiAxOyBzdHJva2U6IHJnYig4MCwgODAsIDgwKTsgb3BhY2l0eTogMTsiLz48cGF0aCBjbGFzcz0ibGluayIgbWFya2VyLWVuZD0iIiBkPSJNNzE2LjY2NjY2NjY2NjY2NjYsNzcyLjUsIDg4MS42NjY2NjY2NjY2NjY2LDQ5OS41IiBzdHlsZT0ic3Ryb2tlLXdpZHRoOiAwLjMxOyBzdHJva2Utb3BhY2l0eTogMTsgc3Ryb2tlOiByZ2IoODAsIDgwLCA4MCk7IG9wYWNpdHk6IDE7Ii8+PHBhdGggY2xhc3M9ImxpbmsiIG1hcmtlci1lbmQ9IiIgZD0iTTcxNi42NjY2NjY2NjY2NjY2LDc3Mi41LCA4ODEuNjY2NjY2NjY2NjY2Niw1MzguNSIgc3R5bGU9InN0cm9rZS13aWR0aDogMC4zMTsgc3Ryb2tlLW9wYWNpdHk6IDE7IHN0cm9rZTogcmdiKDgwLCA4MCwgODApOyBvcGFjaXR5OiAxOyIvPjxwYXRoIGNsYXNzPSJsaW5rIiBtYXJrZXItZW5kPSIiIGQ9Ik03MTYuNjY2NjY2NjY2NjY2Niw3NzIuNSwgODgxLjY2NjY2NjY2NjY2NjYsNTc3LjUiIHN0eWxlPSJzdHJva2Utd2lkdGg6IDAuMzE7IHN0cm9rZS1vcGFjaXR5OiAxOyBzdHJva2U6IHJnYig4MCwgODAsIDgwKTsgb3BhY2l0eTogMTsiLz48cGF0aCBjbGFzcz0ibGluayIgbWFya2VyLWVuZD0iIiBkPSJNNzE2LjY2NjY2NjY2NjY2NjYsNzcyLjUsIDg4MS42NjY2NjY2NjY2NjY2LDYxNi41IiBzdHlsZT0ic3Ryb2tlLXdpZHRoOiAwLjMxOyBzdHJva2Utb3BhY2l0eTogMTsgc3Ryb2tlOiByZ2IoODAsIDgwLCA4MCk7IG9wYWNpdHk6IDE7Ii8+PHBhdGggY2xhc3M9ImxpbmsiIG1hcmtlci1lbmQ9IiIgZD0iTTcxNi42NjY2NjY2NjY2NjY2LDc3Mi41LCA4ODEuNjY2NjY2NjY2NjY2Niw2NTUuNSIgc3R5bGU9InN0cm9rZS13aWR0aDogMC4zMTsgc3Ryb2tlLW9wYWNpdHk6IDE7IHN0cm9rZTogcmdiKDgwLCA4MCwgODApOyBvcGFjaXR5OiAxOyIvPjxwYXRoIGNsYXNzPSJsaW5rIiBtYXJrZXItZW5kPSIiIGQ9Ik03MTYuNjY2NjY2NjY2NjY2Niw3NzIuNSwgODgxLjY2NjY2NjY2NjY2NjYsNjk0LjUiIHN0eWxlPSJzdHJva2Utd2lkdGg6IDAuMzE7IHN0cm9rZS1vcGFjaXR5OiAxOyBzdHJva2U6IHJnYig4MCwgODAsIDgwKTsgb3BhY2l0eTogMTsiLz48cGF0aCBjbGFzcz0ibGluayIgbWFya2VyLWVuZD0iIiBkPSJNNzE2LjY2NjY2NjY2NjY2NjYsODExLjUsIDg4MS42NjY2NjY2NjY2NjY2LDM4Mi41IiBzdHlsZT0ic3Ryb2tlLXdpZHRoOiAwLjMxOyBzdHJva2Utb3BhY2l0eTogMTsgc3Ryb2tlOiByZ2IoODAsIDgwLCA4MCk7IG9wYWNpdHk6IDE7Ii8+PHBhdGggY2xhc3M9ImxpbmsiIG1hcmtlci1lbmQ9IiIgZD0iTTcxNi42NjY2NjY2NjY2NjY2LDgxMS41LCA4ODEuNjY2NjY2NjY2NjY2Niw0MjEuNSIgc3R5bGU9InN0cm9rZS13aWR0aDogMC4zMTsgc3Ryb2tlLW9wYWNpdHk6IDE7IHN0cm9rZTogcmdiKDgwLCA4MCwgODApOyBvcGFjaXR5OiAxOyIvPjxwYXRoIGNsYXNzPSJsaW5rIiBtYXJrZXItZW5kPSIiIGQ9Ik03MTYuNjY2NjY2NjY2NjY2Niw4MTEuNSwgODgxLjY2NjY2NjY2NjY2NjYsNDYwLjUiIHN0eWxlPSJzdHJva2Utd2lkdGg6IDAuMzE7IHN0cm9rZS1vcGFjaXR5OiAxOyBzdHJva2U6IHJnYig4MCwgODAsIDgwKTsgb3BhY2l0eTogMTsiLz48cGF0aCBjbGFzcz0ibGluayIgbWFya2VyLWVuZD0iIiBkPSJNNzE2LjY2NjY2NjY2NjY2NjYsODExLjUsIDg4MS42NjY2NjY2NjY2NjY2LDQ5OS41IiBzdHlsZT0ic3Ryb2tlLXdpZHRoOiAwLjMxOyBzdHJva2Utb3BhY2l0eTogMTsgc3Ryb2tlOiByZ2IoODAsIDgwLCA4MCk7IG9wYWNpdHk6IDE7Ii8+PHBhdGggY2xhc3M9ImxpbmsiIG1hcmtlci1lbmQ9IiIgZD0iTTcxNi42NjY2NjY2NjY2NjY2LDgxMS41LCA4ODEuNjY2NjY2NjY2NjY2Niw1MzguNSIgc3R5bGU9InN0cm9rZS13aWR0aDogMC4zMTsgc3Ryb2tlLW9wYWNpdHk6IDE7IHN0cm9rZTogcmdiKDgwLCA4MCwgODApOyBvcGFjaXR5OiAxOyIvPjxwYXRoIGNsYXNzPSJsaW5rIiBtYXJrZXItZW5kPSIiIGQ9Ik03MTYuNjY2NjY2NjY2NjY2Niw4MTEuNSwgODgxLjY2NjY2NjY2NjY2NjYsNTc3LjUiIHN0eWxlPSJzdHJva2Utd2lkdGg6IDAuMzE7IHN0cm9rZS1vcGFjaXR5OiAxOyBzdHJva2U6IHJnYig4MCwgODAsIDgwKTsgb3BhY2l0eTogMTsiLz48cGF0aCBjbGFzcz0ibGluayIgbWFya2VyLWVuZD0iIiBkPSJNNzE2LjY2NjY2NjY2NjY2NjYsODExLjUsIDg4MS42NjY2NjY2NjY2NjY2LDYxNi41IiBzdHlsZT0ic3Ryb2tlLXdpZHRoOiAwLjMxOyBzdHJva2Utb3BhY2l0eTogMTsgc3Ryb2tlOiByZ2IoODAsIDgwLCA4MCk7IG9wYWNpdHk6IDE7Ii8+PHBhdGggY2xhc3M9ImxpbmsiIG1hcmtlci1lbmQ9IiIgZD0iTTcxNi42NjY2NjY2NjY2NjY2LDgxMS41LCA4ODEuNjY2NjY2NjY2NjY2Niw2NTUuNSIgc3R5bGU9InN0cm9rZS13aWR0aDogMC4zMTsgc3Ryb2tlLW9wYWNpdHk6IDE7IHN0cm9rZTogcmdiKDgwLCA4MCwgODApOyBvcGFjaXR5OiAxOyIvPjxwYXRoIGNsYXNzPSJsaW5rIiBtYXJrZXItZW5kPSIiIGQ9Ik03MTYuNjY2NjY2NjY2NjY2Niw4MTEuNSwgODgxLjY2NjY2NjY2NjY2NjYsNjk0LjUiIHN0eWxlPSJzdHJva2Utd2lkdGg6IDAuMzE7IHN0cm9rZS1vcGFjaXR5OiAxOyBzdHJva2U6IHJnYig4MCwgODAsIDgwKTsgb3BhY2l0eTogMTsiLz48cGF0aCBjbGFzcz0ibGluayIgbWFya2VyLWVuZD0iIiBkPSJNNzE2LjY2NjY2NjY2NjY2NjYsODUwLjUsIDg4MS42NjY2NjY2NjY2NjY2LDM4Mi41IiBzdHlsZT0ic3Ryb2tlLXdpZHRoOiAwLjMxOyBzdHJva2Utb3BhY2l0eTogMTsgc3Ryb2tlOiByZ2IoODAsIDgwLCA4MCk7IG9wYWNpdHk6IDE7Ii8+PHBhdGggY2xhc3M9ImxpbmsiIG1hcmtlci1lbmQ9IiIgZD0iTTcxNi42NjY2NjY2NjY2NjY2LDg1MC41LCA4ODEuNjY2NjY2NjY2NjY2Niw0MjEuNSIgc3R5bGU9InN0cm9rZS13aWR0aDogMC4zMTsgc3Ryb2tlLW9wYWNpdHk6IDE7IHN0cm9rZTogcmdiKDgwLCA4MCwgODApOyBvcGFjaXR5OiAxOyIvPjxwYXRoIGNsYXNzPSJsaW5rIiBtYXJrZXItZW5kPSIiIGQ9Ik03MTYuNjY2NjY2NjY2NjY2Niw4NTAuNSwgODgxLjY2NjY2NjY2NjY2NjYsNDYwLjUiIHN0eWxlPSJzdHJva2Utd2lkdGg6IDAuMzE7IHN0cm9rZS1vcGFjaXR5OiAxOyBzdHJva2U6IHJnYig4MCwgODAsIDgwKTsgb3BhY2l0eTogMTsiLz48cGF0aCBjbGFzcz0ibGluayIgbWFya2VyLWVuZD0iIiBkPSJNNzE2LjY2NjY2NjY2NjY2NjYsODUwLjUsIDg4MS42NjY2NjY2NjY2NjY2LDQ5OS41IiBzdHlsZT0ic3Ryb2tlLXdpZHRoOiAwLjMxOyBzdHJva2Utb3BhY2l0eTogMTsgc3Ryb2tlOiByZ2IoODAsIDgwLCA4MCk7IG9wYWNpdHk6IDE7Ii8+PHBhdGggY2xhc3M9ImxpbmsiIG1hcmtlci1lbmQ9IiIgZD0iTTcxNi42NjY2NjY2NjY2NjY2LDg1MC41LCA4ODEuNjY2NjY2NjY2NjY2Niw1MzguNSIgc3R5bGU9InN0cm9rZS13aWR0aDogMC4zMTsgc3Ryb2tlLW9wYWNpdHk6IDE7IHN0cm9rZTogcmdiKDgwLCA4MCwgODApOyBvcGFjaXR5OiAxOyIvPjxwYXRoIGNsYXNzPSJsaW5rIiBtYXJrZXItZW5kPSIiIGQ9Ik03MTYuNjY2NjY2NjY2NjY2Niw4NTAuNSwgODgxLjY2NjY2NjY2NjY2NjYsNTc3LjUiIHN0eWxlPSJzdHJva2Utd2lkdGg6IDAuMzE7IHN0cm9rZS1vcGFjaXR5OiAxOyBzdHJva2U6IHJnYig4MCwgODAsIDgwKTsgb3BhY2l0eTogMTsiLz48cGF0aCBjbGFzcz0ibGluayIgbWFya2VyLWVuZD0iIiBkPSJNNzE2LjY2NjY2NjY2NjY2NjYsODUwLjUsIDg4MS42NjY2NjY2NjY2NjY2LDYxNi41IiBzdHlsZT0ic3Ryb2tlLXdpZHRoOiAwLjMxOyBzdHJva2Utb3BhY2l0eTogMTsgc3Ryb2tlOiByZ2IoODAsIDgwLCA4MCk7IG9wYWNpdHk6IDE7Ii8+PHBhdGggY2xhc3M9ImxpbmsiIG1hcmtlci1lbmQ9IiIgZD0iTTcxNi42NjY2NjY2NjY2NjY2LDg1MC41LCA4ODEuNjY2NjY2NjY2NjY2Niw2NTUuNSIgc3R5bGU9InN0cm9rZS13aWR0aDogMC4zMTsgc3Ryb2tlLW9wYWNpdHk6IDE7IHN0cm9rZTogcmdiKDgwLCA4MCwgODApOyBvcGFjaXR5OiAxOyIvPjxwYXRoIGNsYXNzPSJsaW5rIiBtYXJrZXItZW5kPSIiIGQ9Ik03MTYuNjY2NjY2NjY2NjY2Niw4NTAuNSwgODgxLjY2NjY2NjY2NjY2NjYsNjk0LjUiIHN0eWxlPSJzdHJva2Utd2lkdGg6IDAuMzE7IHN0cm9rZS1vcGFjaXR5OiAxOyBzdHJva2U6IHJnYig4MCwgODAsIDgwKTsgb3BhY2l0eTogMTsiLz48cGF0aCBjbGFzcz0ibGluayIgbWFya2VyLWVuZD0iIiBkPSJNNzE2LjY2NjY2NjY2NjY2NjYsODg5LjUsIDg4MS42NjY2NjY2NjY2NjY2LDM4Mi41IiBzdHlsZT0ic3Ryb2tlLXdpZHRoOiAwLjMxOyBzdHJva2Utb3BhY2l0eTogMTsgc3Ryb2tlOiByZ2IoODAsIDgwLCA4MCk7IG9wYWNpdHk6IDE7Ii8+PHBhdGggY2xhc3M9ImxpbmsiIG1hcmtlci1lbmQ9IiIgZD0iTTcxNi42NjY2NjY2NjY2NjY2LDg4OS41LCA4ODEuNjY2NjY2NjY2NjY2Niw0MjEuNSIgc3R5bGU9InN0cm9rZS13aWR0aDogMC4zMTsgc3Ryb2tlLW9wYWNpdHk6IDE7IHN0cm9rZTogcmdiKDgwLCA4MCwgODApOyBvcGFjaXR5OiAxOyIvPjxwYXRoIGNsYXNzPSJsaW5rIiBtYXJrZXItZW5kPSIiIGQ9Ik03MTYuNjY2NjY2NjY2NjY2Niw4ODkuNSwgODgxLjY2NjY2NjY2NjY2NjYsNDYwLjUiIHN0eWxlPSJzdHJva2Utd2lkdGg6IDAuMzE7IHN0cm9rZS1vcGFjaXR5OiAxOyBzdHJva2U6IHJnYig4MCwgODAsIDgwKTsgb3BhY2l0eTogMTsiLz48cGF0aCBjbGFzcz0ibGluayIgbWFya2VyLWVuZD0iIiBkPSJNNzE2LjY2NjY2NjY2NjY2NjYsODg5LjUsIDg4MS42NjY2NjY2NjY2NjY2LDQ5OS41IiBzdHlsZT0ic3Ryb2tlLXdpZHRoOiAwLjMxOyBzdHJva2Utb3BhY2l0eTogMTsgc3Ryb2tlOiByZ2IoODAsIDgwLCA4MCk7IG9wYWNpdHk6IDE7Ii8+PHBhdGggY2xhc3M9ImxpbmsiIG1hcmtlci1lbmQ9IiIgZD0iTTcxNi42NjY2NjY2NjY2NjY2LDg4OS41LCA4ODEuNjY2NjY2NjY2NjY2Niw1MzguNSIgc3R5bGU9InN0cm9rZS13aWR0aDogMC4zMTsgc3Ryb2tlLW9wYWNpdHk6IDE7IHN0cm9rZTogcmdiKDgwLCA4MCwgODApOyBvcGFjaXR5OiAxOyIvPjxwYXRoIGNsYXNzPSJsaW5rIiBtYXJrZXItZW5kPSIiIGQ9Ik03MTYuNjY2NjY2NjY2NjY2Niw4ODkuNSwgODgxLjY2NjY2NjY2NjY2NjYsNTc3LjUiIHN0eWxlPSJzdHJva2Utd2lkdGg6IDAuMzE7IHN0cm9rZS1vcGFjaXR5OiAxOyBzdHJva2U6IHJnYig4MCwgODAsIDgwKTsgb3BhY2l0eTogMTsiLz48cGF0aCBjbGFzcz0ibGluayIgbWFya2VyLWVuZD0iIiBkPSJNNzE2LjY2NjY2NjY2NjY2NjYsODg5LjUsIDg4MS42NjY2NjY2NjY2NjY2LDYxNi41IiBzdHlsZT0ic3Ryb2tlLXdpZHRoOiAwLjMxOyBzdHJva2Utb3BhY2l0eTogMTsgc3Ryb2tlOiByZ2IoODAsIDgwLCA4MCk7IG9wYWNpdHk6IDE7Ii8+PHBhdGggY2xhc3M9ImxpbmsiIG1hcmtlci1lbmQ9IiIgZD0iTTcxNi42NjY2NjY2NjY2NjY2LDg4OS41LCA4ODEuNjY2NjY2NjY2NjY2Niw2NTUuNSIgc3R5bGU9InN0cm9rZS13aWR0aDogMC4zMTsgc3Ryb2tlLW9wYWNpdHk6IDE7IHN0cm9rZTogcmdiKDgwLCA4MCwgODApOyBvcGFjaXR5OiAxOyIvPjxwYXRoIGNsYXNzPSJsaW5rIiBtYXJrZXItZW5kPSIiIGQ9Ik03MTYuNjY2NjY2NjY2NjY2Niw4ODkuNSwgODgxLjY2NjY2NjY2NjY2NjYsNjk0LjUiIHN0eWxlPSJzdHJva2Utd2lkdGg6IDAuMzE7IHN0cm9rZS1vcGFjaXR5OiAxOyBzdHJva2U6IHJnYig4MCwgODAsIDgwKTsgb3BhY2l0eTogMTsiLz48cGF0aCBjbGFzcz0ibGluayIgbWFya2VyLWVuZD0iIiBkPSJNMTA0Ni42NjY2NjY2NjY2NjY3LDQ5OS41LCAxMjExLjY2NjY2NjY2NjY2NjcsMzgyLjUiIHN0eWxlPSJzdHJva2Utd2lkdGg6IDAuMzE7IHN0cm9rZS1vcGFjaXR5OiAxOyBzdHJva2U6IHJnYig4MCwgODAsIDgwKTsgb3BhY2l0eTogMTsiLz48cGF0aCBjbGFzcz0ibGluayIgbWFya2VyLWVuZD0iIiBkPSJNMTA0Ni42NjY2NjY2NjY2NjY3LDQ5OS41LCAxMjExLjY2NjY2NjY2NjY2NjcsNDIxLjUiIHN0eWxlPSJzdHJva2Utd2lkdGg6IDAuMzE7IHN0cm9rZS1vcGFjaXR5OiAxOyBzdHJva2U6IHJnYig4MCwgODAsIDgwKTsgb3BhY2l0eTogMTsiLz48cGF0aCBjbGFzcz0ibGluayIgbWFya2VyLWVuZD0iIiBkPSJNMTA0Ni42NjY2NjY2NjY2NjY3LDQ5OS41LCAxMjExLjY2NjY2NjY2NjY2NjcsNDYwLjUiIHN0eWxlPSJzdHJva2Utd2lkdGg6IDAuMzE7IHN0cm9rZS1vcGFjaXR5OiAxOyBzdHJva2U6IHJnYig4MCwgODAsIDgwKTsgb3BhY2l0eTogMTsiLz48cGF0aCBjbGFzcz0ibGluayIgbWFya2VyLWVuZD0iIiBkPSJNMTA0Ni42NjY2NjY2NjY2NjY3LDQ5OS41LCAxMjExLjY2NjY2NjY2NjY2NjcsNDk5LjUiIHN0eWxlPSJzdHJva2Utd2lkdGg6IDAuMzE7IHN0cm9rZS1vcGFjaXR5OiAxOyBzdHJva2U6IHJnYig4MCwgODAsIDgwKTsgb3BhY2l0eTogMTsiLz48cGF0aCBjbGFzcz0ibGluayIgbWFya2VyLWVuZD0iIiBkPSJNMTA0Ni42NjY2NjY2NjY2NjY3LDQ5OS41LCAxMjExLjY2NjY2NjY2NjY2NjcsNTM4LjUiIHN0eWxlPSJzdHJva2Utd2lkdGg6IDAuMzE7IHN0cm9rZS1vcGFjaXR5OiAxOyBzdHJva2U6IHJnYig4MCwgODAsIDgwKTsgb3BhY2l0eTogMTsiLz48cGF0aCBjbGFzcz0ibGluayIgbWFya2VyLWVuZD0iIiBkPSJNMTA0Ni42NjY2NjY2NjY2NjY3LDQ5OS41LCAxMjExLjY2NjY2NjY2NjY2NjcsNTc3LjUiIHN0eWxlPSJzdHJva2Utd2lkdGg6IDAuMzE7IHN0cm9rZS1vcGFjaXR5OiAxOyBzdHJva2U6IHJnYig4MCwgODAsIDgwKTsgb3BhY2l0eTogMTsiLz48cGF0aCBjbGFzcz0ibGluayIgbWFya2VyLWVuZD0iIiBkPSJNMTA0Ni42NjY2NjY2NjY2NjY3LDQ5OS41LCAxMjExLjY2NjY2NjY2NjY2NjcsNjE2LjUiIHN0eWxlPSJzdHJva2Utd2lkdGg6IDAuMzE7IHN0cm9rZS1vcGFjaXR5OiAxOyBzdHJva2U6IHJnYig4MCwgODAsIDgwKTsgb3BhY2l0eTogMTsiLz48cGF0aCBjbGFzcz0ibGluayIgbWFya2VyLWVuZD0iIiBkPSJNMTA0Ni42NjY2NjY2NjY2NjY3LDQ5OS41LCAxMjExLjY2NjY2NjY2NjY2NjcsNjU1LjUiIHN0eWxlPSJzdHJva2Utd2lkdGg6IDAuMzE7IHN0cm9rZS1vcGFjaXR5OiAxOyBzdHJva2U6IHJnYig4MCwgODAsIDgwKTsgb3BhY2l0eTogMTsiLz48cGF0aCBjbGFzcz0ibGluayIgbWFya2VyLWVuZD0iIiBkPSJNMTA0Ni42NjY2NjY2NjY2NjY3LDQ5OS41LCAxMjExLjY2NjY2NjY2NjY2NjcsNjk0LjUiIHN0eWxlPSJzdHJva2Utd2lkdGg6IDAuMzE7IHN0cm9rZS1vcGFjaXR5OiAxOyBzdHJva2U6IHJnYig4MCwgODAsIDgwKTsgb3BhY2l0eTogMTsiLz48cGF0aCBjbGFzcz0ibGluayIgbWFya2VyLWVuZD0iIiBkPSJNMTA0Ni42NjY2NjY2NjY2NjY3LDUzOC41LCAxMjExLjY2NjY2NjY2NjY2NjcsMzgyLjUiIHN0eWxlPSJzdHJva2Utd2lkdGg6IDAuMzE7IHN0cm9rZS1vcGFjaXR5OiAxOyBzdHJva2U6IHJnYig4MCwgODAsIDgwKTsgb3BhY2l0eTogMTsiLz48cGF0aCBjbGFzcz0ibGluayIgbWFya2VyLWVuZD0iIiBkPSJNMTA0Ni42NjY2NjY2NjY2NjY3LDUzOC41LCAxMjExLjY2NjY2NjY2NjY2NjcsNDIxLjUiIHN0eWxlPSJzdHJva2Utd2lkdGg6IDAuMzE7IHN0cm9rZS1vcGFjaXR5OiAxOyBzdHJva2U6IHJnYig4MCwgODAsIDgwKTsgb3BhY2l0eTogMTsiLz48cGF0aCBjbGFzcz0ibGluayIgbWFya2VyLWVuZD0iIiBkPSJNMTA0Ni42NjY2NjY2NjY2NjY3LDUzOC41LCAxMjExLjY2NjY2NjY2NjY2NjcsNDYwLjUiIHN0eWxlPSJzdHJva2Utd2lkdGg6IDAuMzE7IHN0cm9rZS1vcGFjaXR5OiAxOyBzdHJva2U6IHJnYig4MCwgODAsIDgwKTsgb3BhY2l0eTogMTsiLz48cGF0aCBjbGFzcz0ibGluayIgbWFya2VyLWVuZD0iIiBkPSJNMTA0Ni42NjY2NjY2NjY2NjY3LDUzOC41LCAxMjExLjY2NjY2NjY2NjY2NjcsNDk5LjUiIHN0eWxlPSJzdHJva2Utd2lkdGg6IDAuMzE7IHN0cm9rZS1vcGFjaXR5OiAxOyBzdHJva2U6IHJnYig4MCwgODAsIDgwKTsgb3BhY2l0eTogMTsiLz48cGF0aCBjbGFzcz0ibGluayIgbWFya2VyLWVuZD0iIiBkPSJNMTA0Ni42NjY2NjY2NjY2NjY3LDUzOC41LCAxMjExLjY2NjY2NjY2NjY2NjcsNTM4LjUiIHN0eWxlPSJzdHJva2Utd2lkdGg6IDAuMzE7IHN0cm9rZS1vcGFjaXR5OiAxOyBzdHJva2U6IHJnYig4MCwgODAsIDgwKTsgb3BhY2l0eTogMTsiLz48cGF0aCBjbGFzcz0ibGluayIgbWFya2VyLWVuZD0iIiBkPSJNMTA0Ni42NjY2NjY2NjY2NjY3LDUzOC41LCAxMjExLjY2NjY2NjY2NjY2NjcsNTc3LjUiIHN0eWxlPSJzdHJva2Utd2lkdGg6IDAuMzE7IHN0cm9rZS1vcGFjaXR5OiAxOyBzdHJva2U6IHJnYig4MCwgODAsIDgwKTsgb3BhY2l0eTogMTsiLz48cGF0aCBjbGFzcz0ibGluayIgbWFya2VyLWVuZD0iIiBkPSJNMTA0Ni42NjY2NjY2NjY2NjY3LDUzOC41LCAxMjExLjY2NjY2NjY2NjY2NjcsNjE2LjUiIHN0eWxlPSJzdHJva2Utd2lkdGg6IDAuMzE7IHN0cm9rZS1vcGFjaXR5OiAxOyBzdHJva2U6IHJnYig4MCwgODAsIDgwKTsgb3BhY2l0eTogMTsiLz48cGF0aCBjbGFzcz0ibGluayIgbWFya2VyLWVuZD0iIiBkPSJNMTA0Ni42NjY2NjY2NjY2NjY3LDUzOC41LCAxMjExLjY2NjY2NjY2NjY2NjcsNjU1LjUiIHN0eWxlPSJzdHJva2Utd2lkdGg6IDAuMzE7IHN0cm9rZS1vcGFjaXR5OiAxOyBzdHJva2U6IHJnYig4MCwgODAsIDgwKTsgb3BhY2l0eTogMTsiLz48cGF0aCBjbGFzcz0ibGluayIgbWFya2VyLWVuZD0iIiBkPSJNMTA0Ni42NjY2NjY2NjY2NjY3LDUzOC41LCAxMjExLjY2NjY2NjY2NjY2NjcsNjk0LjUiIHN0eWxlPSJzdHJva2Utd2lkdGg6IDAuMzE7IHN0cm9rZS1vcGFjaXR5OiAxOyBzdHJva2U6IHJnYig4MCwgODAsIDgwKTsgb3BhY2l0eTogMTsiLz48cGF0aCBjbGFzcz0ibGluayIgbWFya2VyLWVuZD0iIiBkPSJNMTIxMS42NjY2NjY2NjY2NjY3LDM0My41LCAxMzc2LjY2NjY2NjY2NjY2NjcsMTQ4LjUiIHN0eWxlPSJzdHJva2Utd2lkdGg6IDAuMzE7IHN0cm9rZS1vcGFjaXR5OiAxOyBzdHJva2U6IHJnYig4MCwgODAsIDgwKTsgb3BhY2l0eTogMTsiLz48cGF0aCBjbGFzcz0ibGluayIgbWFya2VyLWVuZD0iIiBkPSJNMTIxMS42NjY2NjY2NjY2NjY3LDM4Mi41LCAxMzc2LjY2NjY2NjY2NjY2NjcsMTQ4LjUiIHN0eWxlPSJzdHJva2Utd2lkdGg6IDAuMzE7IHN0cm9rZS1vcGFjaXR5OiAxOyBzdHJva2U6IHJnYig4MCwgODAsIDgwKTsgb3BhY2l0eTogMTsiLz48cGF0aCBjbGFzcz0ibGluayIgbWFya2VyLWVuZD0iIiBkPSJNMTIxMS42NjY2NjY2NjY2NjY3LDQyMS41LCAxMzc2LjY2NjY2NjY2NjY2NjcsMTQ4LjUiIHN0eWxlPSJzdHJva2Utd2lkdGg6IDAuMzE7IHN0cm9rZS1vcGFjaXR5OiAxOyBzdHJva2U6IHJnYig4MCwgODAsIDgwKTsgb3BhY2l0eTogMTsiLz48cGF0aCBjbGFzcz0ibGluayIgbWFya2VyLWVuZD0iIiBkPSJNMTIxMS42NjY2NjY2NjY2NjY3LDQ2MC41LCAxMzc2LjY2NjY2NjY2NjY2NjcsMTQ4LjUiIHN0eWxlPSJzdHJva2Utd2lkdGg6IDAuMzE7IHN0cm9rZS1vcGFjaXR5OiAxOyBzdHJva2U6IHJnYig4MCwgODAsIDgwKTsgb3BhY2l0eTogMTsiLz48cGF0aCBjbGFzcz0ibGluayIgbWFya2VyLWVuZD0iIiBkPSJNMTIxMS42NjY2NjY2NjY2NjY3LDQ5OS41LCAxMzc2LjY2NjY2NjY2NjY2NjcsMTQ4LjUiIHN0eWxlPSJzdHJva2Utd2lkdGg6IDAuMzE7IHN0cm9rZS1vcGFjaXR5OiAxOyBzdHJva2U6IHJnYig4MCwgODAsIDgwKTsgb3BhY2l0eTogMTsiLz48cGF0aCBjbGFzcz0ibGluayIgbWFya2VyLWVuZD0iIiBkPSJNMTIxMS42NjY2NjY2NjY2NjY3LDUzOC41LCAxMzc2LjY2NjY2NjY2NjY2NjcsMTQ4LjUiIHN0eWxlPSJzdHJva2Utd2lkdGg6IDAuMzE7IHN0cm9rZS1vcGFjaXR5OiAxOyBzdHJva2U6IHJnYig4MCwgODAsIDgwKTsgb3BhY2l0eTogMTsiLz48cGF0aCBjbGFzcz0ibGluayIgbWFya2VyLWVuZD0iIiBkPSJNMTIxMS42NjY2NjY2NjY2NjY3LDU3Ny41LCAxMzc2LjY2NjY2NjY2NjY2NjcsMTQ4LjUiIHN0eWxlPSJzdHJva2Utd2lkdGg6IDAuMzE7IHN0cm9rZS1vcGFjaXR5OiAxOyBzdHJva2U6IHJnYig4MCwgODAsIDgwKTsgb3BhY2l0eTogMTsiLz48cGF0aCBjbGFzcz0ibGluayIgbWFya2VyLWVuZD0iIiBkPSJNMTIxMS42NjY2NjY2NjY2NjY3LDYxNi41LCAxMzc2LjY2NjY2NjY2NjY2NjcsMTQ4LjUiIHN0eWxlPSJzdHJva2Utd2lkdGg6IDAuMzE7IHN0cm9rZS1vcGFjaXR5OiAxOyBzdHJva2U6IHJnYig4MCwgODAsIDgwKTsgb3BhY2l0eTogMTsiLz48cGF0aCBjbGFzcz0ibGluayIgbWFya2VyLWVuZD0iIiBkPSJNMTIxMS42NjY2NjY2NjY2NjY3LDY1NS41LCAxMzc2LjY2NjY2NjY2NjY2NjcsMTQ4LjUiIHN0eWxlPSJzdHJva2Utd2lkdGg6IDAuMzE7IHN0cm9rZS1vcGFjaXR5OiAxOyBzdHJva2U6IHJnYig4MCwgODAsIDgwKTsgb3BhY2l0eTogMTsiLz48cGF0aCBjbGFzcz0ibGluayIgbWFya2VyLWVuZD0iIiBkPSJNMTIxMS42NjY2NjY2NjY2NjY3LDY5NC41LCAxMzc2LjY2NjY2NjY2NjY2NjcsMTQ4LjUiIHN0eWxlPSJzdHJva2Utd2lkdGg6IDAuMzE7IHN0cm9rZS1vcGFjaXR5OiAxOyBzdHJva2U6IHJnYig4MCwgODAsIDgwKTsgb3BhY2l0eTogMTsiLz48cGF0aCBjbGFzcz0ibGluayIgbWFya2VyLWVuZD0iIiBkPSJNMTIxMS42NjY2NjY2NjY2NjY3LDM0My41LCAxMzc2LjY2NjY2NjY2NjY2NjcsMTg3LjUiIHN0eWxlPSJzdHJva2Utd2lkdGg6IDAuMzE7IHN0cm9rZS1vcGFjaXR5OiAxOyBzdHJva2U6IHJnYig4MCwgODAsIDgwKTsgb3BhY2l0eTogMTsiLz48cGF0aCBjbGFzcz0ibGluayIgbWFya2VyLWVuZD0iIiBkPSJNMTIxMS42NjY2NjY2NjY2NjY3LDM0My41LCAxMzc2LjY2NjY2NjY2NjY2NjcsMjI2LjUiIHN0eWxlPSJzdHJva2Utd2lkdGg6IDAuMzE7IHN0cm9rZS1vcGFjaXR5OiAxOyBzdHJva2U6IHJnYig4MCwgODAsIDgwKTsgb3BhY2l0eTogMTsiLz48cGF0aCBjbGFzcz0ibGluayIgbWFya2VyLWVuZD0iIiBkPSJNMTIxMS42NjY2NjY2NjY2NjY3LDM0My41LCAxMzc2LjY2NjY2NjY2NjY2NjcsMjY1LjUiIHN0eWxlPSJzdHJva2Utd2lkdGg6IDAuMzE7IHN0cm9rZS1vcGFjaXR5OiAxOyBzdHJva2U6IHJnYig4MCwgODAsIDgwKTsgb3BhY2l0eTogMTsiLz48cGF0aCBjbGFzcz0ibGluayIgbWFya2VyLWVuZD0iIiBkPSJNMTIxMS42NjY2NjY2NjY2NjY3LDM0My41LCAxMzc2LjY2NjY2NjY2NjY2NjcsMzA0LjUiIHN0eWxlPSJzdHJva2Utd2lkdGg6IDAuMzE7IHN0cm9rZS1vcGFjaXR5OiAxOyBzdHJva2U6IHJnYig4MCwgODAsIDgwKTsgb3BhY2l0eTogMTsiLz48cGF0aCBjbGFzcz0ibGluayIgbWFya2VyLWVuZD0iIiBkPSJNMTIxMS42NjY2NjY2NjY2NjY3LDM0My41LCAxMzc2LjY2NjY2NjY2NjY2NjcsMzQzLjUiIHN0eWxlPSJzdHJva2Utd2lkdGg6IDAuMzE7IHN0cm9rZS1vcGFjaXR5OiAxOyBzdHJva2U6IHJnYig4MCwgODAsIDgwKTsgb3BhY2l0eTogMTsiLz48cGF0aCBjbGFzcz0ibGluayIgbWFya2VyLWVuZD0iIiBkPSJNMTIxMS42NjY2NjY2NjY2NjY3LDM0My41LCAxMzc2LjY2NjY2NjY2NjY2NjcsMzgyLjUiIHN0eWxlPSJzdHJva2Utd2lkdGg6IDAuMzE7IHN0cm9rZS1vcGFjaXR5OiAxOyBzdHJva2U6IHJnYig4MCwgODAsIDgwKTsgb3BhY2l0eTogMTsiLz48cGF0aCBjbGFzcz0ibGluayIgbWFya2VyLWVuZD0iIiBkPSJNMTIxMS42NjY2NjY2NjY2NjY3LDM0My41LCAxMzc2LjY2NjY2NjY2NjY2NjcsNDIxLjUiIHN0eWxlPSJzdHJva2Utd2lkdGg6IDAuMzE7IHN0cm9rZS1vcGFjaXR5OiAxOyBzdHJva2U6IHJnYig4MCwgODAsIDgwKTsgb3BhY2l0eTogMTsiLz48cGF0aCBjbGFzcz0ibGluayIgbWFya2VyLWVuZD0iIiBkPSJNMTIxMS42NjY2NjY2NjY2NjY3LDM0My41LCAxMzc2LjY2NjY2NjY2NjY2NjcsNDYwLjUiIHN0eWxlPSJzdHJva2Utd2lkdGg6IDAuMzE7IHN0cm9rZS1vcGFjaXR5OiAxOyBzdHJva2U6IHJnYig4MCwgODAsIDgwKTsgb3BhY2l0eTogMTsiLz48cGF0aCBjbGFzcz0ibGluayIgbWFya2VyLWVuZD0iIiBkPSJNMTIxMS42NjY2NjY2NjY2NjY3LDM0My41LCAxMzc2LjY2NjY2NjY2NjY2NjcsNDk5LjUiIHN0eWxlPSJzdHJva2Utd2lkdGg6IDAuMzE7IHN0cm9rZS1vcGFjaXR5OiAxOyBzdHJva2U6IHJnYig4MCwgODAsIDgwKTsgb3BhY2l0eTogMTsiLz48cGF0aCBjbGFzcz0ibGluayIgbWFya2VyLWVuZD0iIiBkPSJNMTIxMS42NjY2NjY2NjY2NjY3LDM0My41LCAxMzc2LjY2NjY2NjY2NjY2NjcsNTM4LjUiIHN0eWxlPSJzdHJva2Utd2lkdGg6IDAuMzE7IHN0cm9rZS1vcGFjaXR5OiAxOyBzdHJva2U6IHJnYig4MCwgODAsIDgwKTsgb3BhY2l0eTogMTsiLz48cGF0aCBjbGFzcz0ibGluayIgbWFya2VyLWVuZD0iIiBkPSJNMTIxMS42NjY2NjY2NjY2NjY3LDM0My41LCAxMzc2LjY2NjY2NjY2NjY2NjcsNTc3LjUiIHN0eWxlPSJzdHJva2Utd2lkdGg6IDAuMzE7IHN0cm9rZS1vcGFjaXR5OiAxOyBzdHJva2U6IHJnYig4MCwgODAsIDgwKTsgb3BhY2l0eTogMTsiLz48cGF0aCBjbGFzcz0ibGluayIgbWFya2VyLWVuZD0iIiBkPSJNMTIxMS42NjY2NjY2NjY2NjY3LDM0My41LCAxMzc2LjY2NjY2NjY2NjY2NjcsNjE2LjUiIHN0eWxlPSJzdHJva2Utd2lkdGg6IDAuMzE7IHN0cm9rZS1vcGFjaXR5OiAxOyBzdHJva2U6IHJnYig4MCwgODAsIDgwKTsgb3BhY2l0eTogMTsiLz48cGF0aCBjbGFzcz0ibGluayIgbWFya2VyLWVuZD0iIiBkPSJNMTIxMS42NjY2NjY2NjY2NjY3LDM0My41LCAxMzc2LjY2NjY2NjY2NjY2NjcsNjU1LjUiIHN0eWxlPSJzdHJva2Utd2lkdGg6IDAuMzE7IHN0cm9rZS1vcGFjaXR5OiAxOyBzdHJva2U6IHJnYig4MCwgODAsIDgwKTsgb3BhY2l0eTogMTsiLz48cGF0aCBjbGFzcz0ibGluayIgbWFya2VyLWVuZD0iIiBkPSJNMTIxMS42NjY2NjY2NjY2NjY3LDM0My41LCAxMzc2LjY2NjY2NjY2NjY2NjcsNjk0LjUiIHN0eWxlPSJzdHJva2Utd2lkdGg6IDAuMzE7IHN0cm9rZS1vcGFjaXR5OiAxOyBzdHJva2U6IHJnYig4MCwgODAsIDgwKTsgb3BhY2l0eTogMTsiLz48cGF0aCBjbGFzcz0ibGluayIgbWFya2VyLWVuZD0iIiBkPSJNMTIxMS42NjY2NjY2NjY2NjY3LDM0My41LCAxMzc2LjY2NjY2NjY2NjY2NjcsNzMzLjUiIHN0eWxlPSJzdHJva2Utd2lkdGg6IDAuMzE7IHN0cm9rZS1vcGFjaXR5OiAxOyBzdHJva2U6IHJnYig4MCwgODAsIDgwKTsgb3BhY2l0eTogMTsiLz48cGF0aCBjbGFzcz0ibGluayIgbWFya2VyLWVuZD0iIiBkPSJNMTIxMS42NjY2NjY2NjY2NjY3LDM0My41LCAxMzc2LjY2NjY2NjY2NjY2NjcsNzcyLjUiIHN0eWxlPSJzdHJva2Utd2lkdGg6IDAuMzE7IHN0cm9rZS1vcGFjaXR5OiAxOyBzdHJva2U6IHJnYig4MCwgODAsIDgwKTsgb3BhY2l0eTogMTsiLz48cGF0aCBjbGFzcz0ibGluayIgbWFya2VyLWVuZD0iIiBkPSJNMTIxMS42NjY2NjY2NjY2NjY3LDM0My41LCAxMzc2LjY2NjY2NjY2NjY2NjcsODExLjUiIHN0eWxlPSJzdHJva2Utd2lkdGg6IDAuMzE7IHN0cm9rZS1vcGFjaXR5OiAxOyBzdHJva2U6IHJnYig4MCwgODAsIDgwKTsgb3BhY2l0eTogMTsiLz48cGF0aCBjbGFzcz0ibGluayIgbWFya2VyLWVuZD0iIiBkPSJNMTIxMS42NjY2NjY2NjY2NjY3LDM0My41LCAxMzc2LjY2NjY2NjY2NjY2NjcsODUwLjUiIHN0eWxlPSJzdHJva2Utd2lkdGg6IDAuMzE7IHN0cm9rZS1vcGFjaXR5OiAxOyBzdHJva2U6IHJnYig4MCwgODAsIDgwKTsgb3BhY2l0eTogMTsiLz48cGF0aCBjbGFzcz0ibGluayIgbWFya2VyLWVuZD0iIiBkPSJNMTIxMS42NjY2NjY2NjY2NjY3LDM0My41LCAxMzc2LjY2NjY2NjY2NjY2NjcsODg5LjUiIHN0eWxlPSJzdHJva2Utd2lkdGg6IDAuMzE7IHN0cm9rZS1vcGFjaXR5OiAxOyBzdHJva2U6IHJnYig4MCwgODAsIDgwKTsgb3BhY2l0eTogMTsiLz48cGF0aCBjbGFzcz0ibGluayIgbWFya2VyLWVuZD0iIiBkPSJNMTIxMS42NjY2NjY2NjY2NjY3LDM4Mi41LCAxMzc2LjY2NjY2NjY2NjY2NjcsMTg3LjUiIHN0eWxlPSJzdHJva2Utd2lkdGg6IDAuMzE7IHN0cm9rZS1vcGFjaXR5OiAxOyBzdHJva2U6IHJnYig4MCwgODAsIDgwKTsgb3BhY2l0eTogMTsiLz48cGF0aCBjbGFzcz0ibGluayIgbWFya2VyLWVuZD0iIiBkPSJNMTIxMS42NjY2NjY2NjY2NjY3LDM4Mi41LCAxMzc2LjY2NjY2NjY2NjY2NjcsMjI2LjUiIHN0eWxlPSJzdHJva2Utd2lkdGg6IDAuMzE7IHN0cm9rZS1vcGFjaXR5OiAxOyBzdHJva2U6IHJnYig4MCwgODAsIDgwKTsgb3BhY2l0eTogMTsiLz48cGF0aCBjbGFzcz0ibGluayIgbWFya2VyLWVuZD0iIiBkPSJNMTIxMS42NjY2NjY2NjY2NjY3LDM4Mi41LCAxMzc2LjY2NjY2NjY2NjY2NjcsMjY1LjUiIHN0eWxlPSJzdHJva2Utd2lkdGg6IDAuMzE7IHN0cm9rZS1vcGFjaXR5OiAxOyBzdHJva2U6IHJnYig4MCwgODAsIDgwKTsgb3BhY2l0eTogMTsiLz48cGF0aCBjbGFzcz0ibGluayIgbWFya2VyLWVuZD0iIiBkPSJNMTIxMS42NjY2NjY2NjY2NjY3LDM4Mi41LCAxMzc2LjY2NjY2NjY2NjY2NjcsMzA0LjUiIHN0eWxlPSJzdHJva2Utd2lkdGg6IDAuMzE7IHN0cm9rZS1vcGFjaXR5OiAxOyBzdHJva2U6IHJnYig4MCwgODAsIDgwKTsgb3BhY2l0eTogMTsiLz48cGF0aCBjbGFzcz0ibGluayIgbWFya2VyLWVuZD0iIiBkPSJNMTIxMS42NjY2NjY2NjY2NjY3LDM4Mi41LCAxMzc2LjY2NjY2NjY2NjY2NjcsMzQzLjUiIHN0eWxlPSJzdHJva2Utd2lkdGg6IDAuMzE7IHN0cm9rZS1vcGFjaXR5OiAxOyBzdHJva2U6IHJnYig4MCwgODAsIDgwKTsgb3BhY2l0eTogMTsiLz48cGF0aCBjbGFzcz0ibGluayIgbWFya2VyLWVuZD0iIiBkPSJNMTIxMS42NjY2NjY2NjY2NjY3LDM4Mi41LCAxMzc2LjY2NjY2NjY2NjY2NjcsMzgyLjUiIHN0eWxlPSJzdHJva2Utd2lkdGg6IDAuMzE7IHN0cm9rZS1vcGFjaXR5OiAxOyBzdHJva2U6IHJnYig4MCwgODAsIDgwKTsgb3BhY2l0eTogMTsiLz48cGF0aCBjbGFzcz0ibGluayIgbWFya2VyLWVuZD0iIiBkPSJNMTIxMS42NjY2NjY2NjY2NjY3LDM4Mi41LCAxMzc2LjY2NjY2NjY2NjY2NjcsNDIxLjUiIHN0eWxlPSJzdHJva2Utd2lkdGg6IDAuMzE7IHN0cm9rZS1vcGFjaXR5OiAxOyBzdHJva2U6IHJnYig4MCwgODAsIDgwKTsgb3BhY2l0eTogMTsiLz48cGF0aCBjbGFzcz0ibGluayIgbWFya2VyLWVuZD0iIiBkPSJNMTIxMS42NjY2NjY2NjY2NjY3LDM4Mi41LCAxMzc2LjY2NjY2NjY2NjY2NjcsNDYwLjUiIHN0eWxlPSJzdHJva2Utd2lkdGg6IDAuMzE7IHN0cm9rZS1vcGFjaXR5OiAxOyBzdHJva2U6IHJnYig4MCwgODAsIDgwKTsgb3BhY2l0eTogMTsiLz48cGF0aCBjbGFzcz0ibGluayIgbWFya2VyLWVuZD0iIiBkPSJNMTIxMS42NjY2NjY2NjY2NjY3LDM4Mi41LCAxMzc2LjY2NjY2NjY2NjY2NjcsNDk5LjUiIHN0eWxlPSJzdHJva2Utd2lkdGg6IDAuMzE7IHN0cm9rZS1vcGFjaXR5OiAxOyBzdHJva2U6IHJnYig4MCwgODAsIDgwKTsgb3BhY2l0eTogMTsiLz48cGF0aCBjbGFzcz0ibGluayIgbWFya2VyLWVuZD0iIiBkPSJNMTIxMS42NjY2NjY2NjY2NjY3LDM4Mi41LCAxMzc2LjY2NjY2NjY2NjY2NjcsNTM4LjUiIHN0eWxlPSJzdHJva2Utd2lkdGg6IDAuMzE7IHN0cm9rZS1vcGFjaXR5OiAxOyBzdHJva2U6IHJnYig4MCwgODAsIDgwKTsgb3BhY2l0eTogMTsiLz48cGF0aCBjbGFzcz0ibGluayIgbWFya2VyLWVuZD0iIiBkPSJNMTIxMS42NjY2NjY2NjY2NjY3LDM4Mi41LCAxMzc2LjY2NjY2NjY2NjY2NjcsNTc3LjUiIHN0eWxlPSJzdHJva2Utd2lkdGg6IDAuMzE7IHN0cm9rZS1vcGFjaXR5OiAxOyBzdHJva2U6IHJnYig4MCwgODAsIDgwKTsgb3BhY2l0eTogMTsiLz48cGF0aCBjbGFzcz0ibGluayIgbWFya2VyLWVuZD0iIiBkPSJNMTIxMS42NjY2NjY2NjY2NjY3LDM4Mi41LCAxMzc2LjY2NjY2NjY2NjY2NjcsNjE2LjUiIHN0eWxlPSJzdHJva2Utd2lkdGg6IDAuMzE7IHN0cm9rZS1vcGFjaXR5OiAxOyBzdHJva2U6IHJnYig4MCwgODAsIDgwKTsgb3BhY2l0eTogMTsiLz48cGF0aCBjbGFzcz0ibGluayIgbWFya2VyLWVuZD0iIiBkPSJNMTIxMS42NjY2NjY2NjY2NjY3LDM4Mi41LCAxMzc2LjY2NjY2NjY2NjY2NjcsNjU1LjUiIHN0eWxlPSJzdHJva2Utd2lkdGg6IDAuMzE7IHN0cm9rZS1vcGFjaXR5OiAxOyBzdHJva2U6IHJnYig4MCwgODAsIDgwKTsgb3BhY2l0eTogMTsiLz48cGF0aCBjbGFzcz0ibGluayIgbWFya2VyLWVuZD0iIiBkPSJNMTIxMS42NjY2NjY2NjY2NjY3LDM4Mi41LCAxMzc2LjY2NjY2NjY2NjY2NjcsNjk0LjUiIHN0eWxlPSJzdHJva2Utd2lkdGg6IDAuMzE7IHN0cm9rZS1vcGFjaXR5OiAxOyBzdHJva2U6IHJnYig4MCwgODAsIDgwKTsgb3BhY2l0eTogMTsiLz48cGF0aCBjbGFzcz0ibGluayIgbWFya2VyLWVuZD0iIiBkPSJNMTIxMS42NjY2NjY2NjY2NjY3LDM4Mi41LCAxMzc2LjY2NjY2NjY2NjY2NjcsNzMzLjUiIHN0eWxlPSJzdHJva2Utd2lkdGg6IDAuMzE7IHN0cm9rZS1vcGFjaXR5OiAxOyBzdHJva2U6IHJnYig4MCwgODAsIDgwKTsgb3BhY2l0eTogMTsiLz48cGF0aCBjbGFzcz0ibGluayIgbWFya2VyLWVuZD0iIiBkPSJNMTIxMS42NjY2NjY2NjY2NjY3LDM4Mi41LCAxMzc2LjY2NjY2NjY2NjY2NjcsNzcyLjUiIHN0eWxlPSJzdHJva2Utd2lkdGg6IDAuMzE7IHN0cm9rZS1vcGFjaXR5OiAxOyBzdHJva2U6IHJnYig4MCwgODAsIDgwKTsgb3BhY2l0eTogMTsiLz48cGF0aCBjbGFzcz0ibGluayIgbWFya2VyLWVuZD0iIiBkPSJNMTIxMS42NjY2NjY2NjY2NjY3LDM4Mi41LCAxMzc2LjY2NjY2NjY2NjY2NjcsODExLjUiIHN0eWxlPSJzdHJva2Utd2lkdGg6IDAuMzE7IHN0cm9rZS1vcGFjaXR5OiAxOyBzdHJva2U6IHJnYig4MCwgODAsIDgwKTsgb3BhY2l0eTogMTsiLz48cGF0aCBjbGFzcz0ibGluayIgbWFya2VyLWVuZD0iIiBkPSJNMTIxMS42NjY2NjY2NjY2NjY3LDM4Mi41LCAxMzc2LjY2NjY2NjY2NjY2NjcsODUwLjUiIHN0eWxlPSJzdHJva2Utd2lkdGg6IDAuMzE7IHN0cm9rZS1vcGFjaXR5OiAxOyBzdHJva2U6IHJnYig4MCwgODAsIDgwKTsgb3BhY2l0eTogMTsiLz48cGF0aCBjbGFzcz0ibGluayIgbWFya2VyLWVuZD0iIiBkPSJNMTIxMS42NjY2NjY2NjY2NjY3LDM4Mi41LCAxMzc2LjY2NjY2NjY2NjY2NjcsODg5LjUiIHN0eWxlPSJzdHJva2Utd2lkdGg6IDAuMzE7IHN0cm9rZS1vcGFjaXR5OiAxOyBzdHJva2U6IHJnYig4MCwgODAsIDgwKTsgb3BhY2l0eTogMTsiLz48cGF0aCBjbGFzcz0ibGluayIgbWFya2VyLWVuZD0iIiBkPSJNMTIxMS42NjY2NjY2NjY2NjY3LDQyMS41LCAxMzc2LjY2NjY2NjY2NjY2NjcsMTg3LjUiIHN0eWxlPSJzdHJva2Utd2lkdGg6IDAuMzE7IHN0cm9rZS1vcGFjaXR5OiAxOyBzdHJva2U6IHJnYig4MCwgODAsIDgwKTsgb3BhY2l0eTogMTsiLz48cGF0aCBjbGFzcz0ibGluayIgbWFya2VyLWVuZD0iIiBkPSJNMTIxMS42NjY2NjY2NjY2NjY3LDQyMS41LCAxMzc2LjY2NjY2NjY2NjY2NjcsMjI2LjUiIHN0eWxlPSJzdHJva2Utd2lkdGg6IDAuMzE7IHN0cm9rZS1vcGFjaXR5OiAxOyBzdHJva2U6IHJnYig4MCwgODAsIDgwKTsgb3BhY2l0eTogMTsiLz48cGF0aCBjbGFzcz0ibGluayIgbWFya2VyLWVuZD0iIiBkPSJNMTIxMS42NjY2NjY2NjY2NjY3LDQyMS41LCAxMzc2LjY2NjY2NjY2NjY2NjcsMjY1LjUiIHN0eWxlPSJzdHJva2Utd2lkdGg6IDAuMzE7IHN0cm9rZS1vcGFjaXR5OiAxOyBzdHJva2U6IHJnYig4MCwgODAsIDgwKTsgb3BhY2l0eTogMTsiLz48cGF0aCBjbGFzcz0ibGluayIgbWFya2VyLWVuZD0iIiBkPSJNMTIxMS42NjY2NjY2NjY2NjY3LDQyMS41LCAxMzc2LjY2NjY2NjY2NjY2NjcsMzA0LjUiIHN0eWxlPSJzdHJva2Utd2lkdGg6IDAuMzE7IHN0cm9rZS1vcGFjaXR5OiAxOyBzdHJva2U6IHJnYig4MCwgODAsIDgwKTsgb3BhY2l0eTogMTsiLz48cGF0aCBjbGFzcz0ibGluayIgbWFya2VyLWVuZD0iIiBkPSJNMTIxMS42NjY2NjY2NjY2NjY3LDQyMS41LCAxMzc2LjY2NjY2NjY2NjY2NjcsMzQzLjUiIHN0eWxlPSJzdHJva2Utd2lkdGg6IDAuMzE7IHN0cm9rZS1vcGFjaXR5OiAxOyBzdHJva2U6IHJnYig4MCwgODAsIDgwKTsgb3BhY2l0eTogMTsiLz48cGF0aCBjbGFzcz0ibGluayIgbWFya2VyLWVuZD0iIiBkPSJNMTIxMS42NjY2NjY2NjY2NjY3LDQyMS41LCAxMzc2LjY2NjY2NjY2NjY2NjcsMzgyLjUiIHN0eWxlPSJzdHJva2Utd2lkdGg6IDAuMzE7IHN0cm9rZS1vcGFjaXR5OiAxOyBzdHJva2U6IHJnYig4MCwgODAsIDgwKTsgb3BhY2l0eTogMTsiLz48cGF0aCBjbGFzcz0ibGluayIgbWFya2VyLWVuZD0iIiBkPSJNMTIxMS42NjY2NjY2NjY2NjY3LDQyMS41LCAxMzc2LjY2NjY2NjY2NjY2NjcsNDIxLjUiIHN0eWxlPSJzdHJva2Utd2lkdGg6IDAuMzE7IHN0cm9rZS1vcGFjaXR5OiAxOyBzdHJva2U6IHJnYig4MCwgODAsIDgwKTsgb3BhY2l0eTogMTsiLz48cGF0aCBjbGFzcz0ibGluayIgbWFya2VyLWVuZD0iIiBkPSJNMTIxMS42NjY2NjY2NjY2NjY3LDQyMS41LCAxMzc2LjY2NjY2NjY2NjY2NjcsNDYwLjUiIHN0eWxlPSJzdHJva2Utd2lkdGg6IDAuMzE7IHN0cm9rZS1vcGFjaXR5OiAxOyBzdHJva2U6IHJnYig4MCwgODAsIDgwKTsgb3BhY2l0eTogMTsiLz48cGF0aCBjbGFzcz0ibGluayIgbWFya2VyLWVuZD0iIiBkPSJNMTIxMS42NjY2NjY2NjY2NjY3LDQyMS41LCAxMzc2LjY2NjY2NjY2NjY2NjcsNDk5LjUiIHN0eWxlPSJzdHJva2Utd2lkdGg6IDAuMzE7IHN0cm9rZS1vcGFjaXR5OiAxOyBzdHJva2U6IHJnYig4MCwgODAsIDgwKTsgb3BhY2l0eTogMTsiLz48cGF0aCBjbGFzcz0ibGluayIgbWFya2VyLWVuZD0iIiBkPSJNMTIxMS42NjY2NjY2NjY2NjY3LDQyMS41LCAxMzc2LjY2NjY2NjY2NjY2NjcsNTM4LjUiIHN0eWxlPSJzdHJva2Utd2lkdGg6IDAuMzE7IHN0cm9rZS1vcGFjaXR5OiAxOyBzdHJva2U6IHJnYig4MCwgODAsIDgwKTsgb3BhY2l0eTogMTsiLz48cGF0aCBjbGFzcz0ibGluayIgbWFya2VyLWVuZD0iIiBkPSJNMTIxMS42NjY2NjY2NjY2NjY3LDQyMS41LCAxMzc2LjY2NjY2NjY2NjY2NjcsNTc3LjUiIHN0eWxlPSJzdHJva2Utd2lkdGg6IDAuMzE7IHN0cm9rZS1vcGFjaXR5OiAxOyBzdHJva2U6IHJnYig4MCwgODAsIDgwKTsgb3BhY2l0eTogMTsiLz48cGF0aCBjbGFzcz0ibGluayIgbWFya2VyLWVuZD0iIiBkPSJNMTIxMS42NjY2NjY2NjY2NjY3LDQyMS41LCAxMzc2LjY2NjY2NjY2NjY2NjcsNjE2LjUiIHN0eWxlPSJzdHJva2Utd2lkdGg6IDAuMzE7IHN0cm9rZS1vcGFjaXR5OiAxOyBzdHJva2U6IHJnYig4MCwgODAsIDgwKTsgb3BhY2l0eTogMTsiLz48cGF0aCBjbGFzcz0ibGluayIgbWFya2VyLWVuZD0iIiBkPSJNMTIxMS42NjY2NjY2NjY2NjY3LDQyMS41LCAxMzc2LjY2NjY2NjY2NjY2NjcsNjU1LjUiIHN0eWxlPSJzdHJva2Utd2lkdGg6IDAuMzE7IHN0cm9rZS1vcGFjaXR5OiAxOyBzdHJva2U6IHJnYig4MCwgODAsIDgwKTsgb3BhY2l0eTogMTsiLz48cGF0aCBjbGFzcz0ibGluayIgbWFya2VyLWVuZD0iIiBkPSJNMTIxMS42NjY2NjY2NjY2NjY3LDQyMS41LCAxMzc2LjY2NjY2NjY2NjY2NjcsNjk0LjUiIHN0eWxlPSJzdHJva2Utd2lkdGg6IDAuMzE7IHN0cm9rZS1vcGFjaXR5OiAxOyBzdHJva2U6IHJnYig4MCwgODAsIDgwKTsgb3BhY2l0eTogMTsiLz48cGF0aCBjbGFzcz0ibGluayIgbWFya2VyLWVuZD0iIiBkPSJNMTIxMS42NjY2NjY2NjY2NjY3LDQyMS41LCAxMzc2LjY2NjY2NjY2NjY2NjcsNzMzLjUiIHN0eWxlPSJzdHJva2Utd2lkdGg6IDAuMzE7IHN0cm9rZS1vcGFjaXR5OiAxOyBzdHJva2U6IHJnYig4MCwgODAsIDgwKTsgb3BhY2l0eTogMTsiLz48cGF0aCBjbGFzcz0ibGluayIgbWFya2VyLWVuZD0iIiBkPSJNMTIxMS42NjY2NjY2NjY2NjY3LDQyMS41LCAxMzc2LjY2NjY2NjY2NjY2NjcsNzcyLjUiIHN0eWxlPSJzdHJva2Utd2lkdGg6IDAuMzE7IHN0cm9rZS1vcGFjaXR5OiAxOyBzdHJva2U6IHJnYig4MCwgODAsIDgwKTsgb3BhY2l0eTogMTsiLz48cGF0aCBjbGFzcz0ibGluayIgbWFya2VyLWVuZD0iIiBkPSJNMTIxMS42NjY2NjY2NjY2NjY3LDQyMS41LCAxMzc2LjY2NjY2NjY2NjY2NjcsODExLjUiIHN0eWxlPSJzdHJva2Utd2lkdGg6IDAuMzE7IHN0cm9rZS1vcGFjaXR5OiAxOyBzdHJva2U6IHJnYig4MCwgODAsIDgwKTsgb3BhY2l0eTogMTsiLz48cGF0aCBjbGFzcz0ibGluayIgbWFya2VyLWVuZD0iIiBkPSJNMTIxMS42NjY2NjY2NjY2NjY3LDQyMS41LCAxMzc2LjY2NjY2NjY2NjY2NjcsODUwLjUiIHN0eWxlPSJzdHJva2Utd2lkdGg6IDAuMzE7IHN0cm9rZS1vcGFjaXR5OiAxOyBzdHJva2U6IHJnYig4MCwgODAsIDgwKTsgb3BhY2l0eTogMTsiLz48cGF0aCBjbGFzcz0ibGluayIgbWFya2VyLWVuZD0iIiBkPSJNMTIxMS42NjY2NjY2NjY2NjY3LDQyMS41LCAxMzc2LjY2NjY2NjY2NjY2NjcsODg5LjUiIHN0eWxlPSJzdHJva2Utd2lkdGg6IDAuMzE7IHN0cm9rZS1vcGFjaXR5OiAxOyBzdHJva2U6IHJnYig4MCwgODAsIDgwKTsgb3BhY2l0eTogMTsiLz48cGF0aCBjbGFzcz0ibGluayIgbWFya2VyLWVuZD0iIiBkPSJNMTIxMS42NjY2NjY2NjY2NjY3LDQ2MC41LCAxMzc2LjY2NjY2NjY2NjY2NjcsMTg3LjUiIHN0eWxlPSJzdHJva2Utd2lkdGg6IDAuMzE7IHN0cm9rZS1vcGFjaXR5OiAxOyBzdHJva2U6IHJnYig4MCwgODAsIDgwKTsgb3BhY2l0eTogMTsiLz48cGF0aCBjbGFzcz0ibGluayIgbWFya2VyLWVuZD0iIiBkPSJNMTIxMS42NjY2NjY2NjY2NjY3LDQ2MC41LCAxMzc2LjY2NjY2NjY2NjY2NjcsMjI2LjUiIHN0eWxlPSJzdHJva2Utd2lkdGg6IDAuMzE7IHN0cm9rZS1vcGFjaXR5OiAxOyBzdHJva2U6IHJnYig4MCwgODAsIDgwKTsgb3BhY2l0eTogMTsiLz48cGF0aCBjbGFzcz0ibGluayIgbWFya2VyLWVuZD0iIiBkPSJNMTIxMS42NjY2NjY2NjY2NjY3LDQ2MC41LCAxMzc2LjY2NjY2NjY2NjY2NjcsMjY1LjUiIHN0eWxlPSJzdHJva2Utd2lkdGg6IDAuMzE7IHN0cm9rZS1vcGFjaXR5OiAxOyBzdHJva2U6IHJnYig4MCwgODAsIDgwKTsgb3BhY2l0eTogMTsiLz48cGF0aCBjbGFzcz0ibGluayIgbWFya2VyLWVuZD0iIiBkPSJNMTIxMS42NjY2NjY2NjY2NjY3LDQ2MC41LCAxMzc2LjY2NjY2NjY2NjY2NjcsMzA0LjUiIHN0eWxlPSJzdHJva2Utd2lkdGg6IDAuMzE7IHN0cm9rZS1vcGFjaXR5OiAxOyBzdHJva2U6IHJnYig4MCwgODAsIDgwKTsgb3BhY2l0eTogMTsiLz48cGF0aCBjbGFzcz0ibGluayIgbWFya2VyLWVuZD0iIiBkPSJNMTIxMS42NjY2NjY2NjY2NjY3LDQ2MC41LCAxMzc2LjY2NjY2NjY2NjY2NjcsMzQzLjUiIHN0eWxlPSJzdHJva2Utd2lkdGg6IDAuMzE7IHN0cm9rZS1vcGFjaXR5OiAxOyBzdHJva2U6IHJnYig4MCwgODAsIDgwKTsgb3BhY2l0eTogMTsiLz48cGF0aCBjbGFzcz0ibGluayIgbWFya2VyLWVuZD0iIiBkPSJNMTIxMS42NjY2NjY2NjY2NjY3LDQ2MC41LCAxMzc2LjY2NjY2NjY2NjY2NjcsMzgyLjUiIHN0eWxlPSJzdHJva2Utd2lkdGg6IDAuMzE7IHN0cm9rZS1vcGFjaXR5OiAxOyBzdHJva2U6IHJnYig4MCwgODAsIDgwKTsgb3BhY2l0eTogMTsiLz48cGF0aCBjbGFzcz0ibGluayIgbWFya2VyLWVuZD0iIiBkPSJNMTIxMS42NjY2NjY2NjY2NjY3LDQ2MC41LCAxMzc2LjY2NjY2NjY2NjY2NjcsNDIxLjUiIHN0eWxlPSJzdHJva2Utd2lkdGg6IDAuMzE7IHN0cm9rZS1vcGFjaXR5OiAxOyBzdHJva2U6IHJnYig4MCwgODAsIDgwKTsgb3BhY2l0eTogMTsiLz48cGF0aCBjbGFzcz0ibGluayIgbWFya2VyLWVuZD0iIiBkPSJNMTIxMS42NjY2NjY2NjY2NjY3LDQ2MC41LCAxMzc2LjY2NjY2NjY2NjY2NjcsNDYwLjUiIHN0eWxlPSJzdHJva2Utd2lkdGg6IDAuMzE7IHN0cm9rZS1vcGFjaXR5OiAxOyBzdHJva2U6IHJnYig4MCwgODAsIDgwKTsgb3BhY2l0eTogMTsiLz48cGF0aCBjbGFzcz0ibGluayIgbWFya2VyLWVuZD0iIiBkPSJNMTIxMS42NjY2NjY2NjY2NjY3LDQ2MC41LCAxMzc2LjY2NjY2NjY2NjY2NjcsNDk5LjUiIHN0eWxlPSJzdHJva2Utd2lkdGg6IDAuMzE7IHN0cm9rZS1vcGFjaXR5OiAxOyBzdHJva2U6IHJnYig4MCwgODAsIDgwKTsgb3BhY2l0eTogMTsiLz48cGF0aCBjbGFzcz0ibGluayIgbWFya2VyLWVuZD0iIiBkPSJNMTIxMS42NjY2NjY2NjY2NjY3LDQ2MC41LCAxMzc2LjY2NjY2NjY2NjY2NjcsNTM4LjUiIHN0eWxlPSJzdHJva2Utd2lkdGg6IDAuMzE7IHN0cm9rZS1vcGFjaXR5OiAxOyBzdHJva2U6IHJnYig4MCwgODAsIDgwKTsgb3BhY2l0eTogMTsiLz48cGF0aCBjbGFzcz0ibGluayIgbWFya2VyLWVuZD0iIiBkPSJNMTIxMS42NjY2NjY2NjY2NjY3LDQ2MC41LCAxMzc2LjY2NjY2NjY2NjY2NjcsNTc3LjUiIHN0eWxlPSJzdHJva2Utd2lkdGg6IDAuMzE7IHN0cm9rZS1vcGFjaXR5OiAxOyBzdHJva2U6IHJnYig4MCwgODAsIDgwKTsgb3BhY2l0eTogMTsiLz48cGF0aCBjbGFzcz0ibGluayIgbWFya2VyLWVuZD0iIiBkPSJNMTIxMS42NjY2NjY2NjY2NjY3LDQ2MC41LCAxMzc2LjY2NjY2NjY2NjY2NjcsNjE2LjUiIHN0eWxlPSJzdHJva2Utd2lkdGg6IDAuMzE7IHN0cm9rZS1vcGFjaXR5OiAxOyBzdHJva2U6IHJnYig4MCwgODAsIDgwKTsgb3BhY2l0eTogMTsiLz48cGF0aCBjbGFzcz0ibGluayIgbWFya2VyLWVuZD0iIiBkPSJNMTIxMS42NjY2NjY2NjY2NjY3LDQ2MC41LCAxMzc2LjY2NjY2NjY2NjY2NjcsNjU1LjUiIHN0eWxlPSJzdHJva2Utd2lkdGg6IDAuMzE7IHN0cm9rZS1vcGFjaXR5OiAxOyBzdHJva2U6IHJnYig4MCwgODAsIDgwKTsgb3BhY2l0eTogMTsiLz48cGF0aCBjbGFzcz0ibGluayIgbWFya2VyLWVuZD0iIiBkPSJNMTIxMS42NjY2NjY2NjY2NjY3LDQ2MC41LCAxMzc2LjY2NjY2NjY2NjY2NjcsNjk0LjUiIHN0eWxlPSJzdHJva2Utd2lkdGg6IDAuMzE7IHN0cm9rZS1vcGFjaXR5OiAxOyBzdHJva2U6IHJnYig4MCwgODAsIDgwKTsgb3BhY2l0eTogMTsiLz48cGF0aCBjbGFzcz0ibGluayIgbWFya2VyLWVuZD0iIiBkPSJNMTIxMS42NjY2NjY2NjY2NjY3LDQ2MC41LCAxMzc2LjY2NjY2NjY2NjY2NjcsNzMzLjUiIHN0eWxlPSJzdHJva2Utd2lkdGg6IDAuMzE7IHN0cm9rZS1vcGFjaXR5OiAxOyBzdHJva2U6IHJnYig4MCwgODAsIDgwKTsgb3BhY2l0eTogMTsiLz48cGF0aCBjbGFzcz0ibGluayIgbWFya2VyLWVuZD0iIiBkPSJNMTIxMS42NjY2NjY2NjY2NjY3LDQ2MC41LCAxMzc2LjY2NjY2NjY2NjY2NjcsNzcyLjUiIHN0eWxlPSJzdHJva2Utd2lkdGg6IDAuMzE7IHN0cm9rZS1vcGFjaXR5OiAxOyBzdHJva2U6IHJnYig4MCwgODAsIDgwKTsgb3BhY2l0eTogMTsiLz48cGF0aCBjbGFzcz0ibGluayIgbWFya2VyLWVuZD0iIiBkPSJNMTIxMS42NjY2NjY2NjY2NjY3LDQ2MC41LCAxMzc2LjY2NjY2NjY2NjY2NjcsODExLjUiIHN0eWxlPSJzdHJva2Utd2lkdGg6IDAuMzE7IHN0cm9rZS1vcGFjaXR5OiAxOyBzdHJva2U6IHJnYig4MCwgODAsIDgwKTsgb3BhY2l0eTogMTsiLz48cGF0aCBjbGFzcz0ibGluayIgbWFya2VyLWVuZD0iIiBkPSJNMTIxMS42NjY2NjY2NjY2NjY3LDQ2MC41LCAxMzc2LjY2NjY2NjY2NjY2NjcsODUwLjUiIHN0eWxlPSJzdHJva2Utd2lkdGg6IDAuMzE7IHN0cm9rZS1vcGFjaXR5OiAxOyBzdHJva2U6IHJnYig4MCwgODAsIDgwKTsgb3BhY2l0eTogMTsiLz48cGF0aCBjbGFzcz0ibGluayIgbWFya2VyLWVuZD0iIiBkPSJNMTIxMS42NjY2NjY2NjY2NjY3LDQ2MC41LCAxMzc2LjY2NjY2NjY2NjY2NjcsODg5LjUiIHN0eWxlPSJzdHJva2Utd2lkdGg6IDAuMzE7IHN0cm9rZS1vcGFjaXR5OiAxOyBzdHJva2U6IHJnYig4MCwgODAsIDgwKTsgb3BhY2l0eTogMTsiLz48cGF0aCBjbGFzcz0ibGluayIgbWFya2VyLWVuZD0iIiBkPSJNMTIxMS42NjY2NjY2NjY2NjY3LDQ5OS41LCAxMzc2LjY2NjY2NjY2NjY2NjcsMTg3LjUiIHN0eWxlPSJzdHJva2Utd2lkdGg6IDAuMzE7IHN0cm9rZS1vcGFjaXR5OiAxOyBzdHJva2U6IHJnYig4MCwgODAsIDgwKTsgb3BhY2l0eTogMTsiLz48cGF0aCBjbGFzcz0ibGluayIgbWFya2VyLWVuZD0iIiBkPSJNMTIxMS42NjY2NjY2NjY2NjY3LDQ5OS41LCAxMzc2LjY2NjY2NjY2NjY2NjcsMjI2LjUiIHN0eWxlPSJzdHJva2Utd2lkdGg6IDAuMzE7IHN0cm9rZS1vcGFjaXR5OiAxOyBzdHJva2U6IHJnYig4MCwgODAsIDgwKTsgb3BhY2l0eTogMTsiLz48cGF0aCBjbGFzcz0ibGluayIgbWFya2VyLWVuZD0iIiBkPSJNMTIxMS42NjY2NjY2NjY2NjY3LDQ5OS41LCAxMzc2LjY2NjY2NjY2NjY2NjcsMjY1LjUiIHN0eWxlPSJzdHJva2Utd2lkdGg6IDAuMzE7IHN0cm9rZS1vcGFjaXR5OiAxOyBzdHJva2U6IHJnYig4MCwgODAsIDgwKTsgb3BhY2l0eTogMTsiLz48cGF0aCBjbGFzcz0ibGluayIgbWFya2VyLWVuZD0iIiBkPSJNMTIxMS42NjY2NjY2NjY2NjY3LDQ5OS41LCAxMzc2LjY2NjY2NjY2NjY2NjcsMzA0LjUiIHN0eWxlPSJzdHJva2Utd2lkdGg6IDAuMzE7IHN0cm9rZS1vcGFjaXR5OiAxOyBzdHJva2U6IHJnYig4MCwgODAsIDgwKTsgb3BhY2l0eTogMTsiLz48cGF0aCBjbGFzcz0ibGluayIgbWFya2VyLWVuZD0iIiBkPSJNMTIxMS42NjY2NjY2NjY2NjY3LDQ5OS41LCAxMzc2LjY2NjY2NjY2NjY2NjcsMzQzLjUiIHN0eWxlPSJzdHJva2Utd2lkdGg6IDAuMzE7IHN0cm9rZS1vcGFjaXR5OiAxOyBzdHJva2U6IHJnYig4MCwgODAsIDgwKTsgb3BhY2l0eTogMTsiLz48cGF0aCBjbGFzcz0ibGluayIgbWFya2VyLWVuZD0iIiBkPSJNMTIxMS42NjY2NjY2NjY2NjY3LDQ5OS41LCAxMzc2LjY2NjY2NjY2NjY2NjcsMzgyLjUiIHN0eWxlPSJzdHJva2Utd2lkdGg6IDAuMzE7IHN0cm9rZS1vcGFjaXR5OiAxOyBzdHJva2U6IHJnYig4MCwgODAsIDgwKTsgb3BhY2l0eTogMTsiLz48cGF0aCBjbGFzcz0ibGluayIgbWFya2VyLWVuZD0iIiBkPSJNMTIxMS42NjY2NjY2NjY2NjY3LDQ5OS41LCAxMzc2LjY2NjY2NjY2NjY2NjcsNDIxLjUiIHN0eWxlPSJzdHJva2Utd2lkdGg6IDAuMzE7IHN0cm9rZS1vcGFjaXR5OiAxOyBzdHJva2U6IHJnYig4MCwgODAsIDgwKTsgb3BhY2l0eTogMTsiLz48cGF0aCBjbGFzcz0ibGluayIgbWFya2VyLWVuZD0iIiBkPSJNMTIxMS42NjY2NjY2NjY2NjY3LDQ5OS41LCAxMzc2LjY2NjY2NjY2NjY2NjcsNDYwLjUiIHN0eWxlPSJzdHJva2Utd2lkdGg6IDAuMzE7IHN0cm9rZS1vcGFjaXR5OiAxOyBzdHJva2U6IHJnYig4MCwgODAsIDgwKTsgb3BhY2l0eTogMTsiLz48cGF0aCBjbGFzcz0ibGluayIgbWFya2VyLWVuZD0iIiBkPSJNMTIxMS42NjY2NjY2NjY2NjY3LDQ5OS41LCAxMzc2LjY2NjY2NjY2NjY2NjcsNDk5LjUiIHN0eWxlPSJzdHJva2Utd2lkdGg6IDAuMzE7IHN0cm9rZS1vcGFjaXR5OiAxOyBzdHJva2U6IHJnYig4MCwgODAsIDgwKTsgb3BhY2l0eTogMTsiLz48cGF0aCBjbGFzcz0ibGluayIgbWFya2VyLWVuZD0iIiBkPSJNMTIxMS42NjY2NjY2NjY2NjY3LDQ5OS41LCAxMzc2LjY2NjY2NjY2NjY2NjcsNTM4LjUiIHN0eWxlPSJzdHJva2Utd2lkdGg6IDAuMzE7IHN0cm9rZS1vcGFjaXR5OiAxOyBzdHJva2U6IHJnYig4MCwgODAsIDgwKTsgb3BhY2l0eTogMTsiLz48cGF0aCBjbGFzcz0ibGluayIgbWFya2VyLWVuZD0iIiBkPSJNMTIxMS42NjY2NjY2NjY2NjY3LDQ5OS41LCAxMzc2LjY2NjY2NjY2NjY2NjcsNTc3LjUiIHN0eWxlPSJzdHJva2Utd2lkdGg6IDAuMzE7IHN0cm9rZS1vcGFjaXR5OiAxOyBzdHJva2U6IHJnYig4MCwgODAsIDgwKTsgb3BhY2l0eTogMTsiLz48cGF0aCBjbGFzcz0ibGluayIgbWFya2VyLWVuZD0iIiBkPSJNMTIxMS42NjY2NjY2NjY2NjY3LDQ5OS41LCAxMzc2LjY2NjY2NjY2NjY2NjcsNjE2LjUiIHN0eWxlPSJzdHJva2Utd2lkdGg6IDAuMzE7IHN0cm9rZS1vcGFjaXR5OiAxOyBzdHJva2U6IHJnYig4MCwgODAsIDgwKTsgb3BhY2l0eTogMTsiLz48cGF0aCBjbGFzcz0ibGluayIgbWFya2VyLWVuZD0iIiBkPSJNMTIxMS42NjY2NjY2NjY2NjY3LDQ5OS41LCAxMzc2LjY2NjY2NjY2NjY2NjcsNjU1LjUiIHN0eWxlPSJzdHJva2Utd2lkdGg6IDAuMzE7IHN0cm9rZS1vcGFjaXR5OiAxOyBzdHJva2U6IHJnYig4MCwgODAsIDgwKTsgb3BhY2l0eTogMTsiLz48cGF0aCBjbGFzcz0ibGluayIgbWFya2VyLWVuZD0iIiBkPSJNMTIxMS42NjY2NjY2NjY2NjY3LDQ5OS41LCAxMzc2LjY2NjY2NjY2NjY2NjcsNjk0LjUiIHN0eWxlPSJzdHJva2Utd2lkdGg6IDAuMzE7IHN0cm9rZS1vcGFjaXR5OiAxOyBzdHJva2U6IHJnYig4MCwgODAsIDgwKTsgb3BhY2l0eTogMTsiLz48cGF0aCBjbGFzcz0ibGluayIgbWFya2VyLWVuZD0iIiBkPSJNMTIxMS42NjY2NjY2NjY2NjY3LDQ5OS41LCAxMzc2LjY2NjY2NjY2NjY2NjcsNzMzLjUiIHN0eWxlPSJzdHJva2Utd2lkdGg6IDAuMzE7IHN0cm9rZS1vcGFjaXR5OiAxOyBzdHJva2U6IHJnYig4MCwgODAsIDgwKTsgb3BhY2l0eTogMTsiLz48cGF0aCBjbGFzcz0ibGluayIgbWFya2VyLWVuZD0iIiBkPSJNMTIxMS42NjY2NjY2NjY2NjY3LDQ5OS41LCAxMzc2LjY2NjY2NjY2NjY2NjcsNzcyLjUiIHN0eWxlPSJzdHJva2Utd2lkdGg6IDAuMzE7IHN0cm9rZS1vcGFjaXR5OiAxOyBzdHJva2U6IHJnYig4MCwgODAsIDgwKTsgb3BhY2l0eTogMTsiLz48cGF0aCBjbGFzcz0ibGluayIgbWFya2VyLWVuZD0iIiBkPSJNMTIxMS42NjY2NjY2NjY2NjY3LDQ5OS41LCAxMzc2LjY2NjY2NjY2NjY2NjcsODExLjUiIHN0eWxlPSJzdHJva2Utd2lkdGg6IDAuMzE7IHN0cm9rZS1vcGFjaXR5OiAxOyBzdHJva2U6IHJnYig4MCwgODAsIDgwKTsgb3BhY2l0eTogMTsiLz48cGF0aCBjbGFzcz0ibGluayIgbWFya2VyLWVuZD0iIiBkPSJNMTIxMS42NjY2NjY2NjY2NjY3LDQ5OS41LCAxMzc2LjY2NjY2NjY2NjY2NjcsODUwLjUiIHN0eWxlPSJzdHJva2Utd2lkdGg6IDAuMzE7IHN0cm9rZS1vcGFjaXR5OiAxOyBzdHJva2U6IHJnYig4MCwgODAsIDgwKTsgb3BhY2l0eTogMTsiLz48cGF0aCBjbGFzcz0ibGluayIgbWFya2VyLWVuZD0iIiBkPSJNMTIxMS42NjY2NjY2NjY2NjY3LDQ5OS41LCAxMzc2LjY2NjY2NjY2NjY2NjcsODg5LjUiIHN0eWxlPSJzdHJva2Utd2lkdGg6IDAuMzE7IHN0cm9rZS1vcGFjaXR5OiAxOyBzdHJva2U6IHJnYig4MCwgODAsIDgwKTsgb3BhY2l0eTogMTsiLz48cGF0aCBjbGFzcz0ibGluayIgbWFya2VyLWVuZD0iIiBkPSJNMTIxMS42NjY2NjY2NjY2NjY3LDUzOC41LCAxMzc2LjY2NjY2NjY2NjY2NjcsMTg3LjUiIHN0eWxlPSJzdHJva2Utd2lkdGg6IDAuMzE7IHN0cm9rZS1vcGFjaXR5OiAxOyBzdHJva2U6IHJnYig4MCwgODAsIDgwKTsgb3BhY2l0eTogMTsiLz48cGF0aCBjbGFzcz0ibGluayIgbWFya2VyLWVuZD0iIiBkPSJNMTIxMS42NjY2NjY2NjY2NjY3LDUzOC41LCAxMzc2LjY2NjY2NjY2NjY2NjcsMjI2LjUiIHN0eWxlPSJzdHJva2Utd2lkdGg6IDAuMzE7IHN0cm9rZS1vcGFjaXR5OiAxOyBzdHJva2U6IHJnYig4MCwgODAsIDgwKTsgb3BhY2l0eTogMTsiLz48cGF0aCBjbGFzcz0ibGluayIgbWFya2VyLWVuZD0iIiBkPSJNMTIxMS42NjY2NjY2NjY2NjY3LDUzOC41LCAxMzc2LjY2NjY2NjY2NjY2NjcsMjY1LjUiIHN0eWxlPSJzdHJva2Utd2lkdGg6IDAuMzE7IHN0cm9rZS1vcGFjaXR5OiAxOyBzdHJva2U6IHJnYig4MCwgODAsIDgwKTsgb3BhY2l0eTogMTsiLz48cGF0aCBjbGFzcz0ibGluayIgbWFya2VyLWVuZD0iIiBkPSJNMTIxMS42NjY2NjY2NjY2NjY3LDUzOC41LCAxMzc2LjY2NjY2NjY2NjY2NjcsMzA0LjUiIHN0eWxlPSJzdHJva2Utd2lkdGg6IDAuMzE7IHN0cm9rZS1vcGFjaXR5OiAxOyBzdHJva2U6IHJnYig4MCwgODAsIDgwKTsgb3BhY2l0eTogMTsiLz48cGF0aCBjbGFzcz0ibGluayIgbWFya2VyLWVuZD0iIiBkPSJNMTIxMS42NjY2NjY2NjY2NjY3LDUzOC41LCAxMzc2LjY2NjY2NjY2NjY2NjcsMzQzLjUiIHN0eWxlPSJzdHJva2Utd2lkdGg6IDAuMzE7IHN0cm9rZS1vcGFjaXR5OiAxOyBzdHJva2U6IHJnYig4MCwgODAsIDgwKTsgb3BhY2l0eTogMTsiLz48cGF0aCBjbGFzcz0ibGluayIgbWFya2VyLWVuZD0iIiBkPSJNMTIxMS42NjY2NjY2NjY2NjY3LDUzOC41LCAxMzc2LjY2NjY2NjY2NjY2NjcsMzgyLjUiIHN0eWxlPSJzdHJva2Utd2lkdGg6IDAuMzE7IHN0cm9rZS1vcGFjaXR5OiAxOyBzdHJva2U6IHJnYig4MCwgODAsIDgwKTsgb3BhY2l0eTogMTsiLz48cGF0aCBjbGFzcz0ibGluayIgbWFya2VyLWVuZD0iIiBkPSJNMTIxMS42NjY2NjY2NjY2NjY3LDUzOC41LCAxMzc2LjY2NjY2NjY2NjY2NjcsNDIxLjUiIHN0eWxlPSJzdHJva2Utd2lkdGg6IDAuMzE7IHN0cm9rZS1vcGFjaXR5OiAxOyBzdHJva2U6IHJnYig4MCwgODAsIDgwKTsgb3BhY2l0eTogMTsiLz48cGF0aCBjbGFzcz0ibGluayIgbWFya2VyLWVuZD0iIiBkPSJNMTIxMS42NjY2NjY2NjY2NjY3LDUzOC41LCAxMzc2LjY2NjY2NjY2NjY2NjcsNDYwLjUiIHN0eWxlPSJzdHJva2Utd2lkdGg6IDAuMzE7IHN0cm9rZS1vcGFjaXR5OiAxOyBzdHJva2U6IHJnYig4MCwgODAsIDgwKTsgb3BhY2l0eTogMTsiLz48cGF0aCBjbGFzcz0ibGluayIgbWFya2VyLWVuZD0iIiBkPSJNMTIxMS42NjY2NjY2NjY2NjY3LDUzOC41LCAxMzc2LjY2NjY2NjY2NjY2NjcsNDk5LjUiIHN0eWxlPSJzdHJva2Utd2lkdGg6IDAuMzE7IHN0cm9rZS1vcGFjaXR5OiAxOyBzdHJva2U6IHJnYig4MCwgODAsIDgwKTsgb3BhY2l0eTogMTsiLz48cGF0aCBjbGFzcz0ibGluayIgbWFya2VyLWVuZD0iIiBkPSJNMTIxMS42NjY2NjY2NjY2NjY3LDUzOC41LCAxMzc2LjY2NjY2NjY2NjY2NjcsNTM4LjUiIHN0eWxlPSJzdHJva2Utd2lkdGg6IDAuMzE7IHN0cm9rZS1vcGFjaXR5OiAxOyBzdHJva2U6IHJnYig4MCwgODAsIDgwKTsgb3BhY2l0eTogMTsiLz48cGF0aCBjbGFzcz0ibGluayIgbWFya2VyLWVuZD0iIiBkPSJNMTIxMS42NjY2NjY2NjY2NjY3LDUzOC41LCAxMzc2LjY2NjY2NjY2NjY2NjcsNTc3LjUiIHN0eWxlPSJzdHJva2Utd2lkdGg6IDAuMzE7IHN0cm9rZS1vcGFjaXR5OiAxOyBzdHJva2U6IHJnYig4MCwgODAsIDgwKTsgb3BhY2l0eTogMTsiLz48cGF0aCBjbGFzcz0ibGluayIgbWFya2VyLWVuZD0iIiBkPSJNMTIxMS42NjY2NjY2NjY2NjY3LDUzOC41LCAxMzc2LjY2NjY2NjY2NjY2NjcsNjE2LjUiIHN0eWxlPSJzdHJva2Utd2lkdGg6IDAuMzE7IHN0cm9rZS1vcGFjaXR5OiAxOyBzdHJva2U6IHJnYig4MCwgODAsIDgwKTsgb3BhY2l0eTogMTsiLz48cGF0aCBjbGFzcz0ibGluayIgbWFya2VyLWVuZD0iIiBkPSJNMTIxMS42NjY2NjY2NjY2NjY3LDUzOC41LCAxMzc2LjY2NjY2NjY2NjY2NjcsNjU1LjUiIHN0eWxlPSJzdHJva2Utd2lkdGg6IDAuMzE7IHN0cm9rZS1vcGFjaXR5OiAxOyBzdHJva2U6IHJnYig4MCwgODAsIDgwKTsgb3BhY2l0eTogMTsiLz48cGF0aCBjbGFzcz0ibGluayIgbWFya2VyLWVuZD0iIiBkPSJNMTIxMS42NjY2NjY2NjY2NjY3LDUzOC41LCAxMzc2LjY2NjY2NjY2NjY2NjcsNjk0LjUiIHN0eWxlPSJzdHJva2Utd2lkdGg6IDAuMzE7IHN0cm9rZS1vcGFjaXR5OiAxOyBzdHJva2U6IHJnYig4MCwgODAsIDgwKTsgb3BhY2l0eTogMTsiLz48cGF0aCBjbGFzcz0ibGluayIgbWFya2VyLWVuZD0iIiBkPSJNMTIxMS42NjY2NjY2NjY2NjY3LDUzOC41LCAxMzc2LjY2NjY2NjY2NjY2NjcsNzMzLjUiIHN0eWxlPSJzdHJva2Utd2lkdGg6IDAuMzE7IHN0cm9rZS1vcGFjaXR5OiAxOyBzdHJva2U6IHJnYig4MCwgODAsIDgwKTsgb3BhY2l0eTogMTsiLz48cGF0aCBjbGFzcz0ibGluayIgbWFya2VyLWVuZD0iIiBkPSJNMTIxMS42NjY2NjY2NjY2NjY3LDUzOC41LCAxMzc2LjY2NjY2NjY2NjY2NjcsNzcyLjUiIHN0eWxlPSJzdHJva2Utd2lkdGg6IDAuMzE7IHN0cm9rZS1vcGFjaXR5OiAxOyBzdHJva2U6IHJnYig4MCwgODAsIDgwKTsgb3BhY2l0eTogMTsiLz48cGF0aCBjbGFzcz0ibGluayIgbWFya2VyLWVuZD0iIiBkPSJNMTIxMS42NjY2NjY2NjY2NjY3LDUzOC41LCAxMzc2LjY2NjY2NjY2NjY2NjcsODExLjUiIHN0eWxlPSJzdHJva2Utd2lkdGg6IDAuMzE7IHN0cm9rZS1vcGFjaXR5OiAxOyBzdHJva2U6IHJnYig4MCwgODAsIDgwKTsgb3BhY2l0eTogMTsiLz48cGF0aCBjbGFzcz0ibGluayIgbWFya2VyLWVuZD0iIiBkPSJNMTIxMS42NjY2NjY2NjY2NjY3LDUzOC41LCAxMzc2LjY2NjY2NjY2NjY2NjcsODUwLjUiIHN0eWxlPSJzdHJva2Utd2lkdGg6IDAuMzE7IHN0cm9rZS1vcGFjaXR5OiAxOyBzdHJva2U6IHJnYig4MCwgODAsIDgwKTsgb3BhY2l0eTogMTsiLz48cGF0aCBjbGFzcz0ibGluayIgbWFya2VyLWVuZD0iIiBkPSJNMTIxMS42NjY2NjY2NjY2NjY3LDUzOC41LCAxMzc2LjY2NjY2NjY2NjY2NjcsODg5LjUiIHN0eWxlPSJzdHJva2Utd2lkdGg6IDAuMzE7IHN0cm9rZS1vcGFjaXR5OiAxOyBzdHJva2U6IHJnYig4MCwgODAsIDgwKTsgb3BhY2l0eTogMTsiLz48cGF0aCBjbGFzcz0ibGluayIgbWFya2VyLWVuZD0iIiBkPSJNMTIxMS42NjY2NjY2NjY2NjY3LDU3Ny41LCAxMzc2LjY2NjY2NjY2NjY2NjcsMTg3LjUiIHN0eWxlPSJzdHJva2Utd2lkdGg6IDAuMzE7IHN0cm9rZS1vcGFjaXR5OiAxOyBzdHJva2U6IHJnYig4MCwgODAsIDgwKTsgb3BhY2l0eTogMTsiLz48cGF0aCBjbGFzcz0ibGluayIgbWFya2VyLWVuZD0iIiBkPSJNMTIxMS42NjY2NjY2NjY2NjY3LDU3Ny41LCAxMzc2LjY2NjY2NjY2NjY2NjcsMjI2LjUiIHN0eWxlPSJzdHJva2Utd2lkdGg6IDAuMzE7IHN0cm9rZS1vcGFjaXR5OiAxOyBzdHJva2U6IHJnYig4MCwgODAsIDgwKTsgb3BhY2l0eTogMTsiLz48cGF0aCBjbGFzcz0ibGluayIgbWFya2VyLWVuZD0iIiBkPSJNMTIxMS42NjY2NjY2NjY2NjY3LDU3Ny41LCAxMzc2LjY2NjY2NjY2NjY2NjcsMjY1LjUiIHN0eWxlPSJzdHJva2Utd2lkdGg6IDAuMzE7IHN0cm9rZS1vcGFjaXR5OiAxOyBzdHJva2U6IHJnYig4MCwgODAsIDgwKTsgb3BhY2l0eTogMTsiLz48cGF0aCBjbGFzcz0ibGluayIgbWFya2VyLWVuZD0iIiBkPSJNMTIxMS42NjY2NjY2NjY2NjY3LDU3Ny41LCAxMzc2LjY2NjY2NjY2NjY2NjcsMzA0LjUiIHN0eWxlPSJzdHJva2Utd2lkdGg6IDAuMzE7IHN0cm9rZS1vcGFjaXR5OiAxOyBzdHJva2U6IHJnYig4MCwgODAsIDgwKTsgb3BhY2l0eTogMTsiLz48cGF0aCBjbGFzcz0ibGluayIgbWFya2VyLWVuZD0iIiBkPSJNMTIxMS42NjY2NjY2NjY2NjY3LDU3Ny41LCAxMzc2LjY2NjY2NjY2NjY2NjcsMzQzLjUiIHN0eWxlPSJzdHJva2Utd2lkdGg6IDAuMzE7IHN0cm9rZS1vcGFjaXR5OiAxOyBzdHJva2U6IHJnYig4MCwgODAsIDgwKTsgb3BhY2l0eTogMTsiLz48cGF0aCBjbGFzcz0ibGluayIgbWFya2VyLWVuZD0iIiBkPSJNMTIxMS42NjY2NjY2NjY2NjY3LDU3Ny41LCAxMzc2LjY2NjY2NjY2NjY2NjcsMzgyLjUiIHN0eWxlPSJzdHJva2Utd2lkdGg6IDAuMzE7IHN0cm9rZS1vcGFjaXR5OiAxOyBzdHJva2U6IHJnYig4MCwgODAsIDgwKTsgb3BhY2l0eTogMTsiLz48cGF0aCBjbGFzcz0ibGluayIgbWFya2VyLWVuZD0iIiBkPSJNMTIxMS42NjY2NjY2NjY2NjY3LDU3Ny41LCAxMzc2LjY2NjY2NjY2NjY2NjcsNDIxLjUiIHN0eWxlPSJzdHJva2Utd2lkdGg6IDAuMzE7IHN0cm9rZS1vcGFjaXR5OiAxOyBzdHJva2U6IHJnYig4MCwgODAsIDgwKTsgb3BhY2l0eTogMTsiLz48cGF0aCBjbGFzcz0ibGluayIgbWFya2VyLWVuZD0iIiBkPSJNMTIxMS42NjY2NjY2NjY2NjY3LDU3Ny41LCAxMzc2LjY2NjY2NjY2NjY2NjcsNDYwLjUiIHN0eWxlPSJzdHJva2Utd2lkdGg6IDAuMzE7IHN0cm9rZS1vcGFjaXR5OiAxOyBzdHJva2U6IHJnYig4MCwgODAsIDgwKTsgb3BhY2l0eTogMTsiLz48cGF0aCBjbGFzcz0ibGluayIgbWFya2VyLWVuZD0iIiBkPSJNMTIxMS42NjY2NjY2NjY2NjY3LDU3Ny41LCAxMzc2LjY2NjY2NjY2NjY2NjcsNDk5LjUiIHN0eWxlPSJzdHJva2Utd2lkdGg6IDAuMzE7IHN0cm9rZS1vcGFjaXR5OiAxOyBzdHJva2U6IHJnYig4MCwgODAsIDgwKTsgb3BhY2l0eTogMTsiLz48cGF0aCBjbGFzcz0ibGluayIgbWFya2VyLWVuZD0iIiBkPSJNMTIxMS42NjY2NjY2NjY2NjY3LDU3Ny41LCAxMzc2LjY2NjY2NjY2NjY2NjcsNTM4LjUiIHN0eWxlPSJzdHJva2Utd2lkdGg6IDAuMzE7IHN0cm9rZS1vcGFjaXR5OiAxOyBzdHJva2U6IHJnYig4MCwgODAsIDgwKTsgb3BhY2l0eTogMTsiLz48cGF0aCBjbGFzcz0ibGluayIgbWFya2VyLWVuZD0iIiBkPSJNMTIxMS42NjY2NjY2NjY2NjY3LDU3Ny41LCAxMzc2LjY2NjY2NjY2NjY2NjcsNTc3LjUiIHN0eWxlPSJzdHJva2Utd2lkdGg6IDAuMzE7IHN0cm9rZS1vcGFjaXR5OiAxOyBzdHJva2U6IHJnYig4MCwgODAsIDgwKTsgb3BhY2l0eTogMTsiLz48cGF0aCBjbGFzcz0ibGluayIgbWFya2VyLWVuZD0iIiBkPSJNMTIxMS42NjY2NjY2NjY2NjY3LDU3Ny41LCAxMzc2LjY2NjY2NjY2NjY2NjcsNjE2LjUiIHN0eWxlPSJzdHJva2Utd2lkdGg6IDAuMzE7IHN0cm9rZS1vcGFjaXR5OiAxOyBzdHJva2U6IHJnYig4MCwgODAsIDgwKTsgb3BhY2l0eTogMTsiLz48cGF0aCBjbGFzcz0ibGluayIgbWFya2VyLWVuZD0iIiBkPSJNMTIxMS42NjY2NjY2NjY2NjY3LDU3Ny41LCAxMzc2LjY2NjY2NjY2NjY2NjcsNjU1LjUiIHN0eWxlPSJzdHJva2Utd2lkdGg6IDAuMzE7IHN0cm9rZS1vcGFjaXR5OiAxOyBzdHJva2U6IHJnYig4MCwgODAsIDgwKTsgb3BhY2l0eTogMTsiLz48cGF0aCBjbGFzcz0ibGluayIgbWFya2VyLWVuZD0iIiBkPSJNMTIxMS42NjY2NjY2NjY2NjY3LDU3Ny41LCAxMzc2LjY2NjY2NjY2NjY2NjcsNjk0LjUiIHN0eWxlPSJzdHJva2Utd2lkdGg6IDAuMzE7IHN0cm9rZS1vcGFjaXR5OiAxOyBzdHJva2U6IHJnYig4MCwgODAsIDgwKTsgb3BhY2l0eTogMTsiLz48cGF0aCBjbGFzcz0ibGluayIgbWFya2VyLWVuZD0iIiBkPSJNMTIxMS42NjY2NjY2NjY2NjY3LDU3Ny41LCAxMzc2LjY2NjY2NjY2NjY2NjcsNzMzLjUiIHN0eWxlPSJzdHJva2Utd2lkdGg6IDAuMzE7IHN0cm9rZS1vcGFjaXR5OiAxOyBzdHJva2U6IHJnYig4MCwgODAsIDgwKTsgb3BhY2l0eTogMTsiLz48cGF0aCBjbGFzcz0ibGluayIgbWFya2VyLWVuZD0iIiBkPSJNMTIxMS42NjY2NjY2NjY2NjY3LDU3Ny41LCAxMzc2LjY2NjY2NjY2NjY2NjcsNzcyLjUiIHN0eWxlPSJzdHJva2Utd2lkdGg6IDAuMzE7IHN0cm9rZS1vcGFjaXR5OiAxOyBzdHJva2U6IHJnYig4MCwgODAsIDgwKTsgb3BhY2l0eTogMTsiLz48cGF0aCBjbGFzcz0ibGluayIgbWFya2VyLWVuZD0iIiBkPSJNMTIxMS42NjY2NjY2NjY2NjY3LDU3Ny41LCAxMzc2LjY2NjY2NjY2NjY2NjcsODExLjUiIHN0eWxlPSJzdHJva2Utd2lkdGg6IDAuMzE7IHN0cm9rZS1vcGFjaXR5OiAxOyBzdHJva2U6IHJnYig4MCwgODAsIDgwKTsgb3BhY2l0eTogMTsiLz48cGF0aCBjbGFzcz0ibGluayIgbWFya2VyLWVuZD0iIiBkPSJNMTIxMS42NjY2NjY2NjY2NjY3LDU3Ny41LCAxMzc2LjY2NjY2NjY2NjY2NjcsODUwLjUiIHN0eWxlPSJzdHJva2Utd2lkdGg6IDAuMzE7IHN0cm9rZS1vcGFjaXR5OiAxOyBzdHJva2U6IHJnYig4MCwgODAsIDgwKTsgb3BhY2l0eTogMTsiLz48cGF0aCBjbGFzcz0ibGluayIgbWFya2VyLWVuZD0iIiBkPSJNMTIxMS42NjY2NjY2NjY2NjY3LDU3Ny41LCAxMzc2LjY2NjY2NjY2NjY2NjcsODg5LjUiIHN0eWxlPSJzdHJva2Utd2lkdGg6IDAuMzE7IHN0cm9rZS1vcGFjaXR5OiAxOyBzdHJva2U6IHJnYig4MCwgODAsIDgwKTsgb3BhY2l0eTogMTsiLz48cGF0aCBjbGFzcz0ibGluayIgbWFya2VyLWVuZD0iIiBkPSJNMTIxMS42NjY2NjY2NjY2NjY3LDYxNi41LCAxMzc2LjY2NjY2NjY2NjY2NjcsMTg3LjUiIHN0eWxlPSJzdHJva2Utd2lkdGg6IDAuMzE7IHN0cm9rZS1vcGFjaXR5OiAxOyBzdHJva2U6IHJnYig4MCwgODAsIDgwKTsgb3BhY2l0eTogMTsiLz48cGF0aCBjbGFzcz0ibGluayIgbWFya2VyLWVuZD0iIiBkPSJNMTIxMS42NjY2NjY2NjY2NjY3LDYxNi41LCAxMzc2LjY2NjY2NjY2NjY2NjcsMjI2LjUiIHN0eWxlPSJzdHJva2Utd2lkdGg6IDAuMzE7IHN0cm9rZS1vcGFjaXR5OiAxOyBzdHJva2U6IHJnYig4MCwgODAsIDgwKTsgb3BhY2l0eTogMTsiLz48cGF0aCBjbGFzcz0ibGluayIgbWFya2VyLWVuZD0iIiBkPSJNMTIxMS42NjY2NjY2NjY2NjY3LDYxNi41LCAxMzc2LjY2NjY2NjY2NjY2NjcsMjY1LjUiIHN0eWxlPSJzdHJva2Utd2lkdGg6IDAuMzE7IHN0cm9rZS1vcGFjaXR5OiAxOyBzdHJva2U6IHJnYig4MCwgODAsIDgwKTsgb3BhY2l0eTogMTsiLz48cGF0aCBjbGFzcz0ibGluayIgbWFya2VyLWVuZD0iIiBkPSJNMTIxMS42NjY2NjY2NjY2NjY3LDYxNi41LCAxMzc2LjY2NjY2NjY2NjY2NjcsMzA0LjUiIHN0eWxlPSJzdHJva2Utd2lkdGg6IDAuMzE7IHN0cm9rZS1vcGFjaXR5OiAxOyBzdHJva2U6IHJnYig4MCwgODAsIDgwKTsgb3BhY2l0eTogMTsiLz48cGF0aCBjbGFzcz0ibGluayIgbWFya2VyLWVuZD0iIiBkPSJNMTIxMS42NjY2NjY2NjY2NjY3LDYxNi41LCAxMzc2LjY2NjY2NjY2NjY2NjcsMzQzLjUiIHN0eWxlPSJzdHJva2Utd2lkdGg6IDAuMzE7IHN0cm9rZS1vcGFjaXR5OiAxOyBzdHJva2U6IHJnYig4MCwgODAsIDgwKTsgb3BhY2l0eTogMTsiLz48cGF0aCBjbGFzcz0ibGluayIgbWFya2VyLWVuZD0iIiBkPSJNMTIxMS42NjY2NjY2NjY2NjY3LDYxNi41LCAxMzc2LjY2NjY2NjY2NjY2NjcsMzgyLjUiIHN0eWxlPSJzdHJva2Utd2lkdGg6IDAuMzE7IHN0cm9rZS1vcGFjaXR5OiAxOyBzdHJva2U6IHJnYig4MCwgODAsIDgwKTsgb3BhY2l0eTogMTsiLz48cGF0aCBjbGFzcz0ibGluayIgbWFya2VyLWVuZD0iIiBkPSJNMTIxMS42NjY2NjY2NjY2NjY3LDYxNi41LCAxMzc2LjY2NjY2NjY2NjY2NjcsNDIxLjUiIHN0eWxlPSJzdHJva2Utd2lkdGg6IDAuMzE7IHN0cm9rZS1vcGFjaXR5OiAxOyBzdHJva2U6IHJnYig4MCwgODAsIDgwKTsgb3BhY2l0eTogMTsiLz48cGF0aCBjbGFzcz0ibGluayIgbWFya2VyLWVuZD0iIiBkPSJNMTIxMS42NjY2NjY2NjY2NjY3LDYxNi41LCAxMzc2LjY2NjY2NjY2NjY2NjcsNDYwLjUiIHN0eWxlPSJzdHJva2Utd2lkdGg6IDAuMzE7IHN0cm9rZS1vcGFjaXR5OiAxOyBzdHJva2U6IHJnYig4MCwgODAsIDgwKTsgb3BhY2l0eTogMTsiLz48cGF0aCBjbGFzcz0ibGluayIgbWFya2VyLWVuZD0iIiBkPSJNMTIxMS42NjY2NjY2NjY2NjY3LDYxNi41LCAxMzc2LjY2NjY2NjY2NjY2NjcsNDk5LjUiIHN0eWxlPSJzdHJva2Utd2lkdGg6IDAuMzE7IHN0cm9rZS1vcGFjaXR5OiAxOyBzdHJva2U6IHJnYig4MCwgODAsIDgwKTsgb3BhY2l0eTogMTsiLz48cGF0aCBjbGFzcz0ibGluayIgbWFya2VyLWVuZD0iIiBkPSJNMTIxMS42NjY2NjY2NjY2NjY3LDYxNi41LCAxMzc2LjY2NjY2NjY2NjY2NjcsNTM4LjUiIHN0eWxlPSJzdHJva2Utd2lkdGg6IDAuMzE7IHN0cm9rZS1vcGFjaXR5OiAxOyBzdHJva2U6IHJnYig4MCwgODAsIDgwKTsgb3BhY2l0eTogMTsiLz48cGF0aCBjbGFzcz0ibGluayIgbWFya2VyLWVuZD0iIiBkPSJNMTIxMS42NjY2NjY2NjY2NjY3LDYxNi41LCAxMzc2LjY2NjY2NjY2NjY2NjcsNTc3LjUiIHN0eWxlPSJzdHJva2Utd2lkdGg6IDAuMzE7IHN0cm9rZS1vcGFjaXR5OiAxOyBzdHJva2U6IHJnYig4MCwgODAsIDgwKTsgb3BhY2l0eTogMTsiLz48cGF0aCBjbGFzcz0ibGluayIgbWFya2VyLWVuZD0iIiBkPSJNMTIxMS42NjY2NjY2NjY2NjY3LDYxNi41LCAxMzc2LjY2NjY2NjY2NjY2NjcsNjE2LjUiIHN0eWxlPSJzdHJva2Utd2lkdGg6IDAuMzE7IHN0cm9rZS1vcGFjaXR5OiAxOyBzdHJva2U6IHJnYig4MCwgODAsIDgwKTsgb3BhY2l0eTogMTsiLz48cGF0aCBjbGFzcz0ibGluayIgbWFya2VyLWVuZD0iIiBkPSJNMTIxMS42NjY2NjY2NjY2NjY3LDYxNi41LCAxMzc2LjY2NjY2NjY2NjY2NjcsNjU1LjUiIHN0eWxlPSJzdHJva2Utd2lkdGg6IDAuMzE7IHN0cm9rZS1vcGFjaXR5OiAxOyBzdHJva2U6IHJnYig4MCwgODAsIDgwKTsgb3BhY2l0eTogMTsiLz48cGF0aCBjbGFzcz0ibGluayIgbWFya2VyLWVuZD0iIiBkPSJNMTIxMS42NjY2NjY2NjY2NjY3LDYxNi41LCAxMzc2LjY2NjY2NjY2NjY2NjcsNjk0LjUiIHN0eWxlPSJzdHJva2Utd2lkdGg6IDAuMzE7IHN0cm9rZS1vcGFjaXR5OiAxOyBzdHJva2U6IHJnYig4MCwgODAsIDgwKTsgb3BhY2l0eTogMTsiLz48cGF0aCBjbGFzcz0ibGluayIgbWFya2VyLWVuZD0iIiBkPSJNMTIxMS42NjY2NjY2NjY2NjY3LDYxNi41LCAxMzc2LjY2NjY2NjY2NjY2NjcsNzMzLjUiIHN0eWxlPSJzdHJva2Utd2lkdGg6IDAuMzE7IHN0cm9rZS1vcGFjaXR5OiAxOyBzdHJva2U6IHJnYig4MCwgODAsIDgwKTsgb3BhY2l0eTogMTsiLz48cGF0aCBjbGFzcz0ibGluayIgbWFya2VyLWVuZD0iIiBkPSJNMTIxMS42NjY2NjY2NjY2NjY3LDYxNi41LCAxMzc2LjY2NjY2NjY2NjY2NjcsNzcyLjUiIHN0eWxlPSJzdHJva2Utd2lkdGg6IDAuMzE7IHN0cm9rZS1vcGFjaXR5OiAxOyBzdHJva2U6IHJnYig4MCwgODAsIDgwKTsgb3BhY2l0eTogMTsiLz48cGF0aCBjbGFzcz0ibGluayIgbWFya2VyLWVuZD0iIiBkPSJNMTIxMS42NjY2NjY2NjY2NjY3LDYxNi41LCAxMzc2LjY2NjY2NjY2NjY2NjcsODExLjUiIHN0eWxlPSJzdHJva2Utd2lkdGg6IDAuMzE7IHN0cm9rZS1vcGFjaXR5OiAxOyBzdHJva2U6IHJnYig4MCwgODAsIDgwKTsgb3BhY2l0eTogMTsiLz48cGF0aCBjbGFzcz0ibGluayIgbWFya2VyLWVuZD0iIiBkPSJNMTIxMS42NjY2NjY2NjY2NjY3LDYxNi41LCAxMzc2LjY2NjY2NjY2NjY2NjcsODUwLjUiIHN0eWxlPSJzdHJva2Utd2lkdGg6IDAuMzE7IHN0cm9rZS1vcGFjaXR5OiAxOyBzdHJva2U6IHJnYig4MCwgODAsIDgwKTsgb3BhY2l0eTogMTsiLz48cGF0aCBjbGFzcz0ibGluayIgbWFya2VyLWVuZD0iIiBkPSJNMTIxMS42NjY2NjY2NjY2NjY3LDYxNi41LCAxMzc2LjY2NjY2NjY2NjY2NjcsODg5LjUiIHN0eWxlPSJzdHJva2Utd2lkdGg6IDAuMzE7IHN0cm9rZS1vcGFjaXR5OiAxOyBzdHJva2U6IHJnYig4MCwgODAsIDgwKTsgb3BhY2l0eTogMTsiLz48cGF0aCBjbGFzcz0ibGluayIgbWFya2VyLWVuZD0iIiBkPSJNMTIxMS42NjY2NjY2NjY2NjY3LDY1NS41LCAxMzc2LjY2NjY2NjY2NjY2NjcsMTg3LjUiIHN0eWxlPSJzdHJva2Utd2lkdGg6IDAuMzE7IHN0cm9rZS1vcGFjaXR5OiAxOyBzdHJva2U6IHJnYig4MCwgODAsIDgwKTsgb3BhY2l0eTogMTsiLz48cGF0aCBjbGFzcz0ibGluayIgbWFya2VyLWVuZD0iIiBkPSJNMTIxMS42NjY2NjY2NjY2NjY3LDY1NS41LCAxMzc2LjY2NjY2NjY2NjY2NjcsMjI2LjUiIHN0eWxlPSJzdHJva2Utd2lkdGg6IDAuMzE7IHN0cm9rZS1vcGFjaXR5OiAxOyBzdHJva2U6IHJnYig4MCwgODAsIDgwKTsgb3BhY2l0eTogMTsiLz48cGF0aCBjbGFzcz0ibGluayIgbWFya2VyLWVuZD0iIiBkPSJNMTIxMS42NjY2NjY2NjY2NjY3LDY1NS41LCAxMzc2LjY2NjY2NjY2NjY2NjcsMjY1LjUiIHN0eWxlPSJzdHJva2Utd2lkdGg6IDAuMzE7IHN0cm9rZS1vcGFjaXR5OiAxOyBzdHJva2U6IHJnYig4MCwgODAsIDgwKTsgb3BhY2l0eTogMTsiLz48cGF0aCBjbGFzcz0ibGluayIgbWFya2VyLWVuZD0iIiBkPSJNMTIxMS42NjY2NjY2NjY2NjY3LDY1NS41LCAxMzc2LjY2NjY2NjY2NjY2NjcsMzA0LjUiIHN0eWxlPSJzdHJva2Utd2lkdGg6IDAuMzE7IHN0cm9rZS1vcGFjaXR5OiAxOyBzdHJva2U6IHJnYig4MCwgODAsIDgwKTsgb3BhY2l0eTogMTsiLz48cGF0aCBjbGFzcz0ibGluayIgbWFya2VyLWVuZD0iIiBkPSJNMTIxMS42NjY2NjY2NjY2NjY3LDY1NS41LCAxMzc2LjY2NjY2NjY2NjY2NjcsMzQzLjUiIHN0eWxlPSJzdHJva2Utd2lkdGg6IDAuMzE7IHN0cm9rZS1vcGFjaXR5OiAxOyBzdHJva2U6IHJnYig4MCwgODAsIDgwKTsgb3BhY2l0eTogMTsiLz48cGF0aCBjbGFzcz0ibGluayIgbWFya2VyLWVuZD0iIiBkPSJNMTIxMS42NjY2NjY2NjY2NjY3LDY1NS41LCAxMzc2LjY2NjY2NjY2NjY2NjcsMzgyLjUiIHN0eWxlPSJzdHJva2Utd2lkdGg6IDAuMzE7IHN0cm9rZS1vcGFjaXR5OiAxOyBzdHJva2U6IHJnYig4MCwgODAsIDgwKTsgb3BhY2l0eTogMTsiLz48cGF0aCBjbGFzcz0ibGluayIgbWFya2VyLWVuZD0iIiBkPSJNMTIxMS42NjY2NjY2NjY2NjY3LDY1NS41LCAxMzc2LjY2NjY2NjY2NjY2NjcsNDIxLjUiIHN0eWxlPSJzdHJva2Utd2lkdGg6IDAuMzE7IHN0cm9rZS1vcGFjaXR5OiAxOyBzdHJva2U6IHJnYig4MCwgODAsIDgwKTsgb3BhY2l0eTogMTsiLz48cGF0aCBjbGFzcz0ibGluayIgbWFya2VyLWVuZD0iIiBkPSJNMTIxMS42NjY2NjY2NjY2NjY3LDY1NS41LCAxMzc2LjY2NjY2NjY2NjY2NjcsNDYwLjUiIHN0eWxlPSJzdHJva2Utd2lkdGg6IDAuMzE7IHN0cm9rZS1vcGFjaXR5OiAxOyBzdHJva2U6IHJnYig4MCwgODAsIDgwKTsgb3BhY2l0eTogMTsiLz48cGF0aCBjbGFzcz0ibGluayIgbWFya2VyLWVuZD0iIiBkPSJNMTIxMS42NjY2NjY2NjY2NjY3LDY1NS41LCAxMzc2LjY2NjY2NjY2NjY2NjcsNDk5LjUiIHN0eWxlPSJzdHJva2Utd2lkdGg6IDAuMzE7IHN0cm9rZS1vcGFjaXR5OiAxOyBzdHJva2U6IHJnYig4MCwgODAsIDgwKTsgb3BhY2l0eTogMTsiLz48cGF0aCBjbGFzcz0ibGluayIgbWFya2VyLWVuZD0iIiBkPSJNMTIxMS42NjY2NjY2NjY2NjY3LDY1NS41LCAxMzc2LjY2NjY2NjY2NjY2NjcsNTM4LjUiIHN0eWxlPSJzdHJva2Utd2lkdGg6IDAuMzE7IHN0cm9rZS1vcGFjaXR5OiAxOyBzdHJva2U6IHJnYig4MCwgODAsIDgwKTsgb3BhY2l0eTogMTsiLz48cGF0aCBjbGFzcz0ibGluayIgbWFya2VyLWVuZD0iIiBkPSJNMTIxMS42NjY2NjY2NjY2NjY3LDY1NS41LCAxMzc2LjY2NjY2NjY2NjY2NjcsNTc3LjUiIHN0eWxlPSJzdHJva2Utd2lkdGg6IDAuMzE7IHN0cm9rZS1vcGFjaXR5OiAxOyBzdHJva2U6IHJnYig4MCwgODAsIDgwKTsgb3BhY2l0eTogMTsiLz48cGF0aCBjbGFzcz0ibGluayIgbWFya2VyLWVuZD0iIiBkPSJNMTIxMS42NjY2NjY2NjY2NjY3LDY1NS41LCAxMzc2LjY2NjY2NjY2NjY2NjcsNjE2LjUiIHN0eWxlPSJzdHJva2Utd2lkdGg6IDAuMzE7IHN0cm9rZS1vcGFjaXR5OiAxOyBzdHJva2U6IHJnYig4MCwgODAsIDgwKTsgb3BhY2l0eTogMTsiLz48cGF0aCBjbGFzcz0ibGluayIgbWFya2VyLWVuZD0iIiBkPSJNMTIxMS42NjY2NjY2NjY2NjY3LDY1NS41LCAxMzc2LjY2NjY2NjY2NjY2NjcsNjU1LjUiIHN0eWxlPSJzdHJva2Utd2lkdGg6IDAuMzE7IHN0cm9rZS1vcGFjaXR5OiAxOyBzdHJva2U6IHJnYig4MCwgODAsIDgwKTsgb3BhY2l0eTogMTsiLz48cGF0aCBjbGFzcz0ibGluayIgbWFya2VyLWVuZD0iIiBkPSJNMTIxMS42NjY2NjY2NjY2NjY3LDY1NS41LCAxMzc2LjY2NjY2NjY2NjY2NjcsNjk0LjUiIHN0eWxlPSJzdHJva2Utd2lkdGg6IDAuMzE7IHN0cm9rZS1vcGFjaXR5OiAxOyBzdHJva2U6IHJnYig4MCwgODAsIDgwKTsgb3BhY2l0eTogMTsiLz48cGF0aCBjbGFzcz0ibGluayIgbWFya2VyLWVuZD0iIiBkPSJNMTIxMS42NjY2NjY2NjY2NjY3LDY1NS41LCAxMzc2LjY2NjY2NjY2NjY2NjcsNzMzLjUiIHN0eWxlPSJzdHJva2Utd2lkdGg6IDAuMzE7IHN0cm9rZS1vcGFjaXR5OiAxOyBzdHJva2U6IHJnYig4MCwgODAsIDgwKTsgb3BhY2l0eTogMTsiLz48cGF0aCBjbGFzcz0ibGluayIgbWFya2VyLWVuZD0iIiBkPSJNMTIxMS42NjY2NjY2NjY2NjY3LDY1NS41LCAxMzc2LjY2NjY2NjY2NjY2NjcsNzcyLjUiIHN0eWxlPSJzdHJva2Utd2lkdGg6IDAuMzE7IHN0cm9rZS1vcGFjaXR5OiAxOyBzdHJva2U6IHJnYig4MCwgODAsIDgwKTsgb3BhY2l0eTogMTsiLz48cGF0aCBjbGFzcz0ibGluayIgbWFya2VyLWVuZD0iIiBkPSJNMTIxMS42NjY2NjY2NjY2NjY3LDY1NS41LCAxMzc2LjY2NjY2NjY2NjY2NjcsODExLjUiIHN0eWxlPSJzdHJva2Utd2lkdGg6IDAuMzE7IHN0cm9rZS1vcGFjaXR5OiAxOyBzdHJva2U6IHJnYig4MCwgODAsIDgwKTsgb3BhY2l0eTogMTsiLz48cGF0aCBjbGFzcz0ibGluayIgbWFya2VyLWVuZD0iIiBkPSJNMTIxMS42NjY2NjY2NjY2NjY3LDY1NS41LCAxMzc2LjY2NjY2NjY2NjY2NjcsODUwLjUiIHN0eWxlPSJzdHJva2Utd2lkdGg6IDAuMzE7IHN0cm9rZS1vcGFjaXR5OiAxOyBzdHJva2U6IHJnYig4MCwgODAsIDgwKTsgb3BhY2l0eTogMTsiLz48cGF0aCBjbGFzcz0ibGluayIgbWFya2VyLWVuZD0iIiBkPSJNMTIxMS42NjY2NjY2NjY2NjY3LDY1NS41LCAxMzc2LjY2NjY2NjY2NjY2NjcsODg5LjUiIHN0eWxlPSJzdHJva2Utd2lkdGg6IDAuMzE7IHN0cm9rZS1vcGFjaXR5OiAxOyBzdHJva2U6IHJnYig4MCwgODAsIDgwKTsgb3BhY2l0eTogMTsiLz48cGF0aCBjbGFzcz0ibGluayIgbWFya2VyLWVuZD0iIiBkPSJNMTIxMS42NjY2NjY2NjY2NjY3LDY5NC41LCAxMzc2LjY2NjY2NjY2NjY2NjcsMTg3LjUiIHN0eWxlPSJzdHJva2Utd2lkdGg6IDAuMzE7IHN0cm9rZS1vcGFjaXR5OiAxOyBzdHJva2U6IHJnYig4MCwgODAsIDgwKTsgb3BhY2l0eTogMTsiLz48cGF0aCBjbGFzcz0ibGluayIgbWFya2VyLWVuZD0iIiBkPSJNMTIxMS42NjY2NjY2NjY2NjY3LDY5NC41LCAxMzc2LjY2NjY2NjY2NjY2NjcsMjI2LjUiIHN0eWxlPSJzdHJva2Utd2lkdGg6IDAuMzE7IHN0cm9rZS1vcGFjaXR5OiAxOyBzdHJva2U6IHJnYig4MCwgODAsIDgwKTsgb3BhY2l0eTogMTsiLz48cGF0aCBjbGFzcz0ibGluayIgbWFya2VyLWVuZD0iIiBkPSJNMTIxMS42NjY2NjY2NjY2NjY3LDY5NC41LCAxMzc2LjY2NjY2NjY2NjY2NjcsMjY1LjUiIHN0eWxlPSJzdHJva2Utd2lkdGg6IDAuMzE7IHN0cm9rZS1vcGFjaXR5OiAxOyBzdHJva2U6IHJnYig4MCwgODAsIDgwKTsgb3BhY2l0eTogMTsiLz48cGF0aCBjbGFzcz0ibGluayIgbWFya2VyLWVuZD0iIiBkPSJNMTIxMS42NjY2NjY2NjY2NjY3LDY5NC41LCAxMzc2LjY2NjY2NjY2NjY2NjcsMzA0LjUiIHN0eWxlPSJzdHJva2Utd2lkdGg6IDAuMzE7IHN0cm9rZS1vcGFjaXR5OiAxOyBzdHJva2U6IHJnYig4MCwgODAsIDgwKTsgb3BhY2l0eTogMTsiLz48cGF0aCBjbGFzcz0ibGluayIgbWFya2VyLWVuZD0iIiBkPSJNMTIxMS42NjY2NjY2NjY2NjY3LDY5NC41LCAxMzc2LjY2NjY2NjY2NjY2NjcsMzQzLjUiIHN0eWxlPSJzdHJva2Utd2lkdGg6IDAuMzE7IHN0cm9rZS1vcGFjaXR5OiAxOyBzdHJva2U6IHJnYig4MCwgODAsIDgwKTsgb3BhY2l0eTogMTsiLz48cGF0aCBjbGFzcz0ibGluayIgbWFya2VyLWVuZD0iIiBkPSJNMTIxMS42NjY2NjY2NjY2NjY3LDY5NC41LCAxMzc2LjY2NjY2NjY2NjY2NjcsMzgyLjUiIHN0eWxlPSJzdHJva2Utd2lkdGg6IDAuMzE7IHN0cm9rZS1vcGFjaXR5OiAxOyBzdHJva2U6IHJnYig4MCwgODAsIDgwKTsgb3BhY2l0eTogMTsiLz48cGF0aCBjbGFzcz0ibGluayIgbWFya2VyLWVuZD0iIiBkPSJNMTIxMS42NjY2NjY2NjY2NjY3LDY5NC41LCAxMzc2LjY2NjY2NjY2NjY2NjcsNDIxLjUiIHN0eWxlPSJzdHJva2Utd2lkdGg6IDAuMzE7IHN0cm9rZS1vcGFjaXR5OiAxOyBzdHJva2U6IHJnYig4MCwgODAsIDgwKTsgb3BhY2l0eTogMTsiLz48cGF0aCBjbGFzcz0ibGluayIgbWFya2VyLWVuZD0iIiBkPSJNMTIxMS42NjY2NjY2NjY2NjY3LDY5NC41LCAxMzc2LjY2NjY2NjY2NjY2NjcsNDYwLjUiIHN0eWxlPSJzdHJva2Utd2lkdGg6IDAuMzE7IHN0cm9rZS1vcGFjaXR5OiAxOyBzdHJva2U6IHJnYig4MCwgODAsIDgwKTsgb3BhY2l0eTogMTsiLz48cGF0aCBjbGFzcz0ibGluayIgbWFya2VyLWVuZD0iIiBkPSJNMTIxMS42NjY2NjY2NjY2NjY3LDY5NC41LCAxMzc2LjY2NjY2NjY2NjY2NjcsNDk5LjUiIHN0eWxlPSJzdHJva2Utd2lkdGg6IDAuMzE7IHN0cm9rZS1vcGFjaXR5OiAxOyBzdHJva2U6IHJnYig4MCwgODAsIDgwKTsgb3BhY2l0eTogMTsiLz48cGF0aCBjbGFzcz0ibGluayIgbWFya2VyLWVuZD0iIiBkPSJNMTIxMS42NjY2NjY2NjY2NjY3LDY5NC41LCAxMzc2LjY2NjY2NjY2NjY2NjcsNTM4LjUiIHN0eWxlPSJzdHJva2Utd2lkdGg6IDAuMzE7IHN0cm9rZS1vcGFjaXR5OiAxOyBzdHJva2U6IHJnYig4MCwgODAsIDgwKTsgb3BhY2l0eTogMTsiLz48cGF0aCBjbGFzcz0ibGluayIgbWFya2VyLWVuZD0iIiBkPSJNMTIxMS42NjY2NjY2NjY2NjY3LDY5NC41LCAxMzc2LjY2NjY2NjY2NjY2NjcsNTc3LjUiIHN0eWxlPSJzdHJva2Utd2lkdGg6IDAuMzE7IHN0cm9rZS1vcGFjaXR5OiAxOyBzdHJva2U6IHJnYig4MCwgODAsIDgwKTsgb3BhY2l0eTogMTsiLz48cGF0aCBjbGFzcz0ibGluayIgbWFya2VyLWVuZD0iIiBkPSJNMTIxMS42NjY2NjY2NjY2NjY3LDY5NC41LCAxMzc2LjY2NjY2NjY2NjY2NjcsNjE2LjUiIHN0eWxlPSJzdHJva2Utd2lkdGg6IDAuMzE7IHN0cm9rZS1vcGFjaXR5OiAxOyBzdHJva2U6IHJnYig4MCwgODAsIDgwKTsgb3BhY2l0eTogMTsiLz48cGF0aCBjbGFzcz0ibGluayIgbWFya2VyLWVuZD0iIiBkPSJNMTIxMS42NjY2NjY2NjY2NjY3LDY5NC41LCAxMzc2LjY2NjY2NjY2NjY2NjcsNjU1LjUiIHN0eWxlPSJzdHJva2Utd2lkdGg6IDAuMzE7IHN0cm9rZS1vcGFjaXR5OiAxOyBzdHJva2U6IHJnYig4MCwgODAsIDgwKTsgb3BhY2l0eTogMTsiLz48cGF0aCBjbGFzcz0ibGluayIgbWFya2VyLWVuZD0iIiBkPSJNMTIxMS42NjY2NjY2NjY2NjY3LDY5NC41LCAxMzc2LjY2NjY2NjY2NjY2NjcsNjk0LjUiIHN0eWxlPSJzdHJva2Utd2lkdGg6IDAuMzE7IHN0cm9rZS1vcGFjaXR5OiAxOyBzdHJva2U6IHJnYig4MCwgODAsIDgwKTsgb3BhY2l0eTogMTsiLz48cGF0aCBjbGFzcz0ibGluayIgbWFya2VyLWVuZD0iIiBkPSJNMTIxMS42NjY2NjY2NjY2NjY3LDY5NC41LCAxMzc2LjY2NjY2NjY2NjY2NjcsNzMzLjUiIHN0eWxlPSJzdHJva2Utd2lkdGg6IDAuMzE7IHN0cm9rZS1vcGFjaXR5OiAxOyBzdHJva2U6IHJnYig4MCwgODAsIDgwKTsgb3BhY2l0eTogMTsiLz48cGF0aCBjbGFzcz0ibGluayIgbWFya2VyLWVuZD0iIiBkPSJNMTIxMS42NjY2NjY2NjY2NjY3LDY5NC41LCAxMzc2LjY2NjY2NjY2NjY2NjcsNzcyLjUiIHN0eWxlPSJzdHJva2Utd2lkdGg6IDAuMzE7IHN0cm9rZS1vcGFjaXR5OiAxOyBzdHJva2U6IHJnYig4MCwgODAsIDgwKTsgb3BhY2l0eTogMTsiLz48cGF0aCBjbGFzcz0ibGluayIgbWFya2VyLWVuZD0iIiBkPSJNMTIxMS42NjY2NjY2NjY2NjY3LDY5NC41LCAxMzc2LjY2NjY2NjY2NjY2NjcsODExLjUiIHN0eWxlPSJzdHJva2Utd2lkdGg6IDAuMzE7IHN0cm9rZS1vcGFjaXR5OiAxOyBzdHJva2U6IHJnYig4MCwgODAsIDgwKTsgb3BhY2l0eTogMTsiLz48cGF0aCBjbGFzcz0ibGluayIgbWFya2VyLWVuZD0iIiBkPSJNMTIxMS42NjY2NjY2NjY2NjY3LDY5NC41LCAxMzc2LjY2NjY2NjY2NjY2NjcsODUwLjUiIHN0eWxlPSJzdHJva2Utd2lkdGg6IDAuMzE7IHN0cm9rZS1vcGFjaXR5OiAxOyBzdHJva2U6IHJnYig4MCwgODAsIDgwKTsgb3BhY2l0eTogMTsiLz48cGF0aCBjbGFzcz0ibGluayIgbWFya2VyLWVuZD0iIiBkPSJNMTIxMS42NjY2NjY2NjY2NjY3LDY5NC41LCAxMzc2LjY2NjY2NjY2NjY2NjcsODg5LjUiIHN0eWxlPSJzdHJva2Utd2lkdGg6IDAuMzE7IHN0cm9rZS1vcGFjaXR5OiAxOyBzdHJva2U6IHJnYig4MCwgODAsIDgwKTsgb3BhY2l0eTogMTsiLz48cGF0aCBjbGFzcz0ibGluayIgbWFya2VyLWVuZD0iIiBkPSJNNzE2LjY2NjY2NjY2NjY2NjYsMTQ4LjUsIDg4MS42NjY2NjY2NjY2NjY2LDM0My41IiBzdHlsZT0ic3Ryb2tlLXdpZHRoOiAwLjMxOyBzdHJva2Utb3BhY2l0eTogMTsgc3Ryb2tlOiByZ2IoODAsIDgwLCA4MCk7IG9wYWNpdHk6IDE7Ii8+PHBhdGggY2xhc3M9ImxpbmsiIG1hcmtlci1lbmQ9IiIgZD0iTTcxNi42NjY2NjY2NjY2NjY2LDE4Ny41LCA4ODEuNjY2NjY2NjY2NjY2NiwzNDMuNSIgc3R5bGU9InN0cm9rZS13aWR0aDogMC4zMTsgc3Ryb2tlLW9wYWNpdHk6IDE7IHN0cm9rZTogcmdiKDgwLCA4MCwgODApOyBvcGFjaXR5OiAxOyIvPjxwYXRoIGNsYXNzPSJsaW5rIiBtYXJrZXItZW5kPSIiIGQ9Ik03MTYuNjY2NjY2NjY2NjY2NiwyMjYuNSwgODgxLjY2NjY2NjY2NjY2NjYsMzQzLjUiIHN0eWxlPSJzdHJva2Utd2lkdGg6IDAuMzE7IHN0cm9rZS1vcGFjaXR5OiAxOyBzdHJva2U6IHJnYig4MCwgODAsIDgwKTsgb3BhY2l0eTogMTsiLz48cGF0aCBjbGFzcz0ibGluayIgbWFya2VyLWVuZD0iIiBkPSJNNzE2LjY2NjY2NjY2NjY2NjYsMjY1LjUsIDg4MS42NjY2NjY2NjY2NjY2LDM0My41IiBzdHlsZT0ic3Ryb2tlLXdpZHRoOiAwLjMxOyBzdHJva2Utb3BhY2l0eTogMTsgc3Ryb2tlOiByZ2IoODAsIDgwLCA4MCk7IG9wYWNpdHk6IDE7Ii8+PHBhdGggY2xhc3M9ImxpbmsiIG1hcmtlci1lbmQ9IiIgZD0iTTcxNi42NjY2NjY2NjY2NjY2LDMwNC41LCA4ODEuNjY2NjY2NjY2NjY2NiwzNDMuNSIgc3R5bGU9InN0cm9rZS13aWR0aDogMC4zMTsgc3Ryb2tlLW9wYWNpdHk6IDE7IHN0cm9rZTogcmdiKDgwLCA4MCwgODApOyBvcGFjaXR5OiAxOyIvPjxwYXRoIGNsYXNzPSJsaW5rIiBtYXJrZXItZW5kPSIiIGQ9Ik03MTYuNjY2NjY2NjY2NjY2NiwzNDMuNSwgODgxLjY2NjY2NjY2NjY2NjYsMzQzLjUiIHN0eWxlPSJzdHJva2Utd2lkdGg6IDAuMzE7IHN0cm9rZS1vcGFjaXR5OiAxOyBzdHJva2U6IHJnYig4MCwgODAsIDgwKTsgb3BhY2l0eTogMTsiLz48cGF0aCBjbGFzcz0ibGluayIgbWFya2VyLWVuZD0iIiBkPSJNNzE2LjY2NjY2NjY2NjY2NjYsMzgyLjUsIDg4MS42NjY2NjY2NjY2NjY2LDM0My41IiBzdHlsZT0ic3Ryb2tlLXdpZHRoOiAwLjMxOyBzdHJva2Utb3BhY2l0eTogMTsgc3Ryb2tlOiByZ2IoODAsIDgwLCA4MCk7IG9wYWNpdHk6IDE7Ii8+PHBhdGggY2xhc3M9ImxpbmsiIG1hcmtlci1lbmQ9IiIgZD0iTTcxNi42NjY2NjY2NjY2NjY2LDQyMS41LCA4ODEuNjY2NjY2NjY2NjY2NiwzNDMuNSIgc3R5bGU9InN0cm9rZS13aWR0aDogMC4zMTsgc3Ryb2tlLW9wYWNpdHk6IDE7IHN0cm9rZTogcmdiKDgwLCA4MCwgODApOyBvcGFjaXR5OiAxOyIvPjxwYXRoIGNsYXNzPSJsaW5rIiBtYXJrZXItZW5kPSIiIGQ9Ik03MTYuNjY2NjY2NjY2NjY2Niw0NjAuNSwgODgxLjY2NjY2NjY2NjY2NjYsMzQzLjUiIHN0eWxlPSJzdHJva2Utd2lkdGg6IDAuMzE7IHN0cm9rZS1vcGFjaXR5OiAxOyBzdHJva2U6IHJnYig4MCwgODAsIDgwKTsgb3BhY2l0eTogMTsiLz48cGF0aCBjbGFzcz0ibGluayIgbWFya2VyLWVuZD0iIiBkPSJNNzE2LjY2NjY2NjY2NjY2NjYsNDk5LjUsIDg4MS42NjY2NjY2NjY2NjY2LDM0My41IiBzdHlsZT0ic3Ryb2tlLXdpZHRoOiAwLjMxOyBzdHJva2Utb3BhY2l0eTogMTsgc3Ryb2tlOiByZ2IoODAsIDgwLCA4MCk7IG9wYWNpdHk6IDE7Ii8+PHBhdGggY2xhc3M9ImxpbmsiIG1hcmtlci1lbmQ9IiIgZD0iTTcxNi42NjY2NjY2NjY2NjY2LDUzOC41LCA4ODEuNjY2NjY2NjY2NjY2NiwzNDMuNSIgc3R5bGU9InN0cm9rZS13aWR0aDogMC4zMTsgc3Ryb2tlLW9wYWNpdHk6IDE7IHN0cm9rZTogcmdiKDgwLCA4MCwgODApOyBvcGFjaXR5OiAxOyIvPjxwYXRoIGNsYXNzPSJsaW5rIiBtYXJrZXItZW5kPSIiIGQ9Ik03MTYuNjY2NjY2NjY2NjY2Niw1NzcuNSwgODgxLjY2NjY2NjY2NjY2NjYsMzQzLjUiIHN0eWxlPSJzdHJva2Utd2lkdGg6IDAuMzE7IHN0cm9rZS1vcGFjaXR5OiAxOyBzdHJva2U6IHJnYig4MCwgODAsIDgwKTsgb3BhY2l0eTogMTsiLz48cGF0aCBjbGFzcz0ibGluayIgbWFya2VyLWVuZD0iIiBkPSJNNzE2LjY2NjY2NjY2NjY2NjYsNjE2LjUsIDg4MS42NjY2NjY2NjY2NjY2LDM0My41IiBzdHlsZT0ic3Ryb2tlLXdpZHRoOiAwLjMxOyBzdHJva2Utb3BhY2l0eTogMTsgc3Ryb2tlOiByZ2IoODAsIDgwLCA4MCk7IG9wYWNpdHk6IDE7Ii8+PHBhdGggY2xhc3M9ImxpbmsiIG1hcmtlci1lbmQ9IiIgZD0iTTcxNi42NjY2NjY2NjY2NjY2LDY1NS41LCA4ODEuNjY2NjY2NjY2NjY2NiwzNDMuNSIgc3R5bGU9InN0cm9rZS13aWR0aDogMC4zMTsgc3Ryb2tlLW9wYWNpdHk6IDE7IHN0cm9rZTogcmdiKDgwLCA4MCwgODApOyBvcGFjaXR5OiAxOyIvPjxwYXRoIGNsYXNzPSJsaW5rIiBtYXJrZXItZW5kPSIiIGQ9Ik03MTYuNjY2NjY2NjY2NjY2Niw2OTQuNSwgODgxLjY2NjY2NjY2NjY2NjYsMzQzLjUiIHN0eWxlPSJzdHJva2Utd2lkdGg6IDAuMzE7IHN0cm9rZS1vcGFjaXR5OiAxOyBzdHJva2U6IHJnYig4MCwgODAsIDgwKTsgb3BhY2l0eTogMTsiLz48cGF0aCBjbGFzcz0ibGluayIgbWFya2VyLWVuZD0iIiBkPSJNNzE2LjY2NjY2NjY2NjY2NjYsNzMzLjUsIDg4MS42NjY2NjY2NjY2NjY2LDM0My41IiBzdHlsZT0ic3Ryb2tlLXdpZHRoOiAwLjMxOyBzdHJva2Utb3BhY2l0eTogMTsgc3Ryb2tlOiByZ2IoODAsIDgwLCA4MCk7IG9wYWNpdHk6IDE7Ii8+PHBhdGggY2xhc3M9ImxpbmsiIG1hcmtlci1lbmQ9IiIgZD0iTTcxNi42NjY2NjY2NjY2NjY2LDc3Mi41LCA4ODEuNjY2NjY2NjY2NjY2NiwzNDMuNSIgc3R5bGU9InN0cm9rZS13aWR0aDogMC4zMTsgc3Ryb2tlLW9wYWNpdHk6IDE7IHN0cm9rZTogcmdiKDgwLCA4MCwgODApOyBvcGFjaXR5OiAxOyIvPjxwYXRoIGNsYXNzPSJsaW5rIiBtYXJrZXItZW5kPSIiIGQ9Ik03MTYuNjY2NjY2NjY2NjY2Niw4MTEuNSwgODgxLjY2NjY2NjY2NjY2NjYsMzQzLjUiIHN0eWxlPSJzdHJva2Utd2lkdGg6IDAuMzE7IHN0cm9rZS1vcGFjaXR5OiAxOyBzdHJva2U6IHJnYig4MCwgODAsIDgwKTsgb3BhY2l0eTogMTsiLz48cGF0aCBjbGFzcz0ibGluayIgbWFya2VyLWVuZD0iIiBkPSJNNzE2LjY2NjY2NjY2NjY2NjYsODUwLjUsIDg4MS42NjY2NjY2NjY2NjY2LDM0My41IiBzdHlsZT0ic3Ryb2tlLXdpZHRoOiAwLjMxOyBzdHJva2Utb3BhY2l0eTogMTsgc3Ryb2tlOiByZ2IoODAsIDgwLCA4MCk7IG9wYWNpdHk6IDE7Ii8+PHBhdGggY2xhc3M9ImxpbmsiIG1hcmtlci1lbmQ9IiIgZD0iTTcxNi42NjY2NjY2NjY2NjY2LDg4OS41LCA4ODEuNjY2NjY2NjY2NjY2NiwzNDMuNSIgc3R5bGU9InN0cm9rZS13aWR0aDogMC4zMTsgc3Ryb2tlLW9wYWNpdHk6IDE7IHN0cm9rZTogcmdiKDgwLCA4MCwgODApOyBvcGFjaXR5OiAxOyIvPjxwYXRoIGNsYXNzPSJsaW5rIiBtYXJrZXItZW5kPSIiIGQ9Ik04ODEuNjY2NjY2NjY2NjY2NiwzNDMuNSwgMTA0Ni42NjY2NjY2NjY2NjY3LDQ5OS41IiBzdHlsZT0ic3Ryb2tlLXdpZHRoOiAwLjMxOyBzdHJva2Utb3BhY2l0eTogMTsgc3Ryb2tlOiByZ2IoODAsIDgwLCA4MCk7IG9wYWNpdHk6IDE7Ii8+PHBhdGggY2xhc3M9ImxpbmsiIG1hcmtlci1lbmQ9IiIgZD0iTTg4MS42NjY2NjY2NjY2NjY2LDM4Mi41LCAxMDQ2LjY2NjY2NjY2NjY2NjcsNDk5LjUiIHN0eWxlPSJzdHJva2Utd2lkdGg6IDAuMzE7IHN0cm9rZS1vcGFjaXR5OiAxOyBzdHJva2U6IHJnYig4MCwgODAsIDgwKTsgb3BhY2l0eTogMTsiLz48cGF0aCBjbGFzcz0ibGluayIgbWFya2VyLWVuZD0iIiBkPSJNODgxLjY2NjY2NjY2NjY2NjYsNDIxLjUsIDEwNDYuNjY2NjY2NjY2NjY2Nyw0OTkuNSIgc3R5bGU9InN0cm9rZS13aWR0aDogMC4zMTsgc3Ryb2tlLW9wYWNpdHk6IDE7IHN0cm9rZTogcmdiKDgwLCA4MCwgODApOyBvcGFjaXR5OiAxOyIvPjxwYXRoIGNsYXNzPSJsaW5rIiBtYXJrZXItZW5kPSIiIGQ9Ik04ODEuNjY2NjY2NjY2NjY2Niw0NjAuNSwgMTA0Ni42NjY2NjY2NjY2NjY3LDQ5OS41IiBzdHlsZT0ic3Ryb2tlLXdpZHRoOiAwLjMxOyBzdHJva2Utb3BhY2l0eTogMTsgc3Ryb2tlOiByZ2IoODAsIDgwLCA4MCk7IG9wYWNpdHk6IDE7Ii8+PHBhdGggY2xhc3M9ImxpbmsiIG1hcmtlci1lbmQ9IiIgZD0iTTg4MS42NjY2NjY2NjY2NjY2LDQ5OS41LCAxMDQ2LjY2NjY2NjY2NjY2NjcsNDk5LjUiIHN0eWxlPSJzdHJva2Utd2lkdGg6IDAuMzE7IHN0cm9rZS1vcGFjaXR5OiAxOyBzdHJva2U6IHJnYig4MCwgODAsIDgwKTsgb3BhY2l0eTogMTsiLz48cGF0aCBjbGFzcz0ibGluayIgbWFya2VyLWVuZD0iIiBkPSJNODgxLjY2NjY2NjY2NjY2NjYsNTM4LjUsIDEwNDYuNjY2NjY2NjY2NjY2Nyw0OTkuNSIgc3R5bGU9InN0cm9rZS13aWR0aDogMC4zMTsgc3Ryb2tlLW9wYWNpdHk6IDE7IHN0cm9rZTogcmdiKDgwLCA4MCwgODApOyBvcGFjaXR5OiAxOyIvPjxwYXRoIGNsYXNzPSJsaW5rIiBtYXJrZXItZW5kPSIiIGQ9Ik04ODEuNjY2NjY2NjY2NjY2Niw1NzcuNSwgMTA0Ni42NjY2NjY2NjY2NjY3LDQ5OS41IiBzdHlsZT0ic3Ryb2tlLXdpZHRoOiAwLjMxOyBzdHJva2Utb3BhY2l0eTogMTsgc3Ryb2tlOiByZ2IoODAsIDgwLCA4MCk7IG9wYWNpdHk6IDE7Ii8+PHBhdGggY2xhc3M9ImxpbmsiIG1hcmtlci1lbmQ9IiIgZD0iTTg4MS42NjY2NjY2NjY2NjY2LDYxNi41LCAxMDQ2LjY2NjY2NjY2NjY2NjcsNDk5LjUiIHN0eWxlPSJzdHJva2Utd2lkdGg6IDAuMzE7IHN0cm9rZS1vcGFjaXR5OiAxOyBzdHJva2U6IHJnYig4MCwgODAsIDgwKTsgb3BhY2l0eTogMTsiLz48cGF0aCBjbGFzcz0ibGluayIgbWFya2VyLWVuZD0iIiBkPSJNODgxLjY2NjY2NjY2NjY2NjYsNjU1LjUsIDEwNDYuNjY2NjY2NjY2NjY2Nyw0OTkuNSIgc3R5bGU9InN0cm9rZS13aWR0aDogMC4zMTsgc3Ryb2tlLW9wYWNpdHk6IDE7IHN0cm9rZTogcmdiKDgwLCA4MCwgODApOyBvcGFjaXR5OiAxOyIvPjxwYXRoIGNsYXNzPSJsaW5rIiBtYXJrZXItZW5kPSIiIGQ9Ik04ODEuNjY2NjY2NjY2NjY2Niw2OTQuNSwgMTA0Ni42NjY2NjY2NjY2NjY3LDQ5OS41IiBzdHlsZT0ic3Ryb2tlLXdpZHRoOiAwLjMxOyBzdHJva2Utb3BhY2l0eTogMTsgc3Ryb2tlOiByZ2IoODAsIDgwLCA4MCk7IG9wYWNpdHk6IDE7Ii8+PHBhdGggY2xhc3M9ImxpbmsiIG1hcmtlci1lbmQ9IiIgZD0iTTEwNDYuNjY2NjY2NjY2NjY2Nyw0OTkuNSwgMTIxMS42NjY2NjY2NjY2NjY3LDM0My41IiBzdHlsZT0ic3Ryb2tlLXdpZHRoOiAwLjMxOyBzdHJva2Utb3BhY2l0eTogMTsgc3Ryb2tlOiByZ2IoODAsIDgwLCA4MCk7IG9wYWNpdHk6IDE7Ii8+PHBhdGggY2xhc3M9ImxpbmsiIG1hcmtlci1lbmQ9IiIgZD0iTTEwNDYuNjY2NjY2NjY2NjY2Nyw1MzguNSwgMTIxMS42NjY2NjY2NjY2NjY3LDM0My41IiBzdHlsZT0ic3Ryb2tlLXdpZHRoOiAwLjMxOyBzdHJva2Utb3BhY2l0eTogMTsgc3Ryb2tlOiByZ2IoODAsIDgwLCA4MCk7IG9wYWNpdHk6IDE7Ii8+PGNpcmNsZSByPSI5LjUiIGNsYXNzPSJub2RlIiBpZD0iMF8wIiBjeD0iNzE2LjY2NjY2NjY2NjY2NjYiIGN5PSIxNDguNSIgc3R5bGU9ImZpbGw6IHJnYigyNTUsIDI1NSwgMjU1KTsgc3Ryb2tlOiByZ2IoNTEsIDUxLCA1MSk7IG9wYWNpdHk6IDE7Ii8+PGNpcmNsZSByPSI5LjUiIGNsYXNzPSJub2RlIiBpZD0iMF8xIiBjeD0iNzE2LjY2NjY2NjY2NjY2NjYiIGN5PSIxODcuNSIgc3R5bGU9ImZpbGw6IHJnYigyNTUsIDI1NSwgMjU1KTsgc3Ryb2tlOiByZ2IoNTEsIDUxLCA1MSk7IG9wYWNpdHk6IDE7Ii8+PGNpcmNsZSByPSI5LjUiIGNsYXNzPSJub2RlIiBpZD0iMF8yIiBjeD0iNzE2LjY2NjY2NjY2NjY2NjYiIGN5PSIyMjYuNSIgc3R5bGU9ImZpbGw6IHJnYigyNTUsIDI1NSwgMjU1KTsgc3Ryb2tlOiByZ2IoNTEsIDUxLCA1MSk7IG9wYWNpdHk6IDE7Ii8+PGNpcmNsZSByPSI5LjUiIGNsYXNzPSJub2RlIiBpZD0iMF8zIiBjeD0iNzE2LjY2NjY2NjY2NjY2NjYiIGN5PSIyNjUuNSIgc3R5bGU9ImZpbGw6IHJnYigyNTUsIDI1NSwgMjU1KTsgc3Ryb2tlOiByZ2IoNTEsIDUxLCA1MSk7IG9wYWNpdHk6IDE7Ii8+PGNpcmNsZSByPSI5LjUiIGNsYXNzPSJub2RlIiBpZD0iMF80IiBjeD0iNzE2LjY2NjY2NjY2NjY2NjYiIGN5PSIzMDQuNSIgc3R5bGU9ImZpbGw6IHJnYigyNTUsIDI1NSwgMjU1KTsgc3Ryb2tlOiByZ2IoNTEsIDUxLCA1MSk7IG9wYWNpdHk6IDE7Ii8+PGNpcmNsZSByPSI5LjUiIGNsYXNzPSJub2RlIiBpZD0iMF81IiBjeD0iNzE2LjY2NjY2NjY2NjY2NjYiIGN5PSIzNDMuNSIgc3R5bGU9ImZpbGw6IHJnYigyNTUsIDI1NSwgMjU1KTsgc3Ryb2tlOiByZ2IoNTEsIDUxLCA1MSk7IG9wYWNpdHk6IDE7Ii8+PGNpcmNsZSByPSI5LjUiIGNsYXNzPSJub2RlIiBpZD0iMF82IiBjeD0iNzE2LjY2NjY2NjY2NjY2NjYiIGN5PSIzODIuNSIgc3R5bGU9ImZpbGw6IHJnYigyNTUsIDI1NSwgMjU1KTsgc3Ryb2tlOiByZ2IoNTEsIDUxLCA1MSk7IG9wYWNpdHk6IDE7Ii8+PGNpcmNsZSByPSI5LjUiIGNsYXNzPSJub2RlIiBpZD0iMF83IiBjeD0iNzE2LjY2NjY2NjY2NjY2NjYiIGN5PSI0MjEuNSIgc3R5bGU9ImZpbGw6IHJnYigyNTUsIDI1NSwgMjU1KTsgc3Ryb2tlOiByZ2IoNTEsIDUxLCA1MSk7IG9wYWNpdHk6IDE7Ii8+PGNpcmNsZSByPSI5LjUiIGNsYXNzPSJub2RlIiBpZD0iMF84IiBjeD0iNzE2LjY2NjY2NjY2NjY2NjYiIGN5PSI0NjAuNSIgc3R5bGU9ImZpbGw6IHJnYigyNTUsIDI1NSwgMjU1KTsgc3Ryb2tlOiByZ2IoNTEsIDUxLCA1MSk7IG9wYWNpdHk6IDE7Ii8+PGNpcmNsZSByPSI5LjUiIGNsYXNzPSJub2RlIiBpZD0iMF85IiBjeD0iNzE2LjY2NjY2NjY2NjY2NjYiIGN5PSI0OTkuNSIgc3R5bGU9ImZpbGw6IHJnYigyNTUsIDI1NSwgMjU1KTsgc3Ryb2tlOiByZ2IoNTEsIDUxLCA1MSk7IG9wYWNpdHk6IDE7Ii8+PGNpcmNsZSByPSI5LjUiIGNsYXNzPSJub2RlIiBpZD0iMF8xMCIgY3g9IjcxNi42NjY2NjY2NjY2NjY2IiBjeT0iNTM4LjUiIHN0eWxlPSJmaWxsOiByZ2IoMjU1LCAyNTUsIDI1NSk7IHN0cm9rZTogcmdiKDUxLCA1MSwgNTEpOyBvcGFjaXR5OiAxOyIvPjxjaXJjbGUgcj0iOS41IiBjbGFzcz0ibm9kZSIgaWQ9IjBfMTEiIGN4PSI3MTYuNjY2NjY2NjY2NjY2NiIgY3k9IjU3Ny41IiBzdHlsZT0iZmlsbDogcmdiKDI1NSwgMjU1LCAyNTUpOyBzdHJva2U6IHJnYig1MSwgNTEsIDUxKTsgb3BhY2l0eTogMTsiLz48Y2lyY2xlIHI9IjkuNSIgY2xhc3M9Im5vZGUiIGlkPSIwXzEyIiBjeD0iNzE2LjY2NjY2NjY2NjY2NjYiIGN5PSI2MTYuNSIgc3R5bGU9ImZpbGw6IHJnYigyNTUsIDI1NSwgMjU1KTsgc3Ryb2tlOiByZ2IoNTEsIDUxLCA1MSk7IG9wYWNpdHk6IDE7Ii8+PGNpcmNsZSByPSI5LjUiIGNsYXNzPSJub2RlIiBpZD0iMF8xMyIgY3g9IjcxNi42NjY2NjY2NjY2NjY2IiBjeT0iNjU1LjUiIHN0eWxlPSJmaWxsOiByZ2IoMjU1LCAyNTUsIDI1NSk7IHN0cm9rZTogcmdiKDUxLCA1MSwgNTEpOyBvcGFjaXR5OiAxOyIvPjxjaXJjbGUgcj0iOS41IiBjbGFzcz0ibm9kZSIgaWQ9IjBfMTQiIGN4PSI3MTYuNjY2NjY2NjY2NjY2NiIgY3k9IjY5NC41IiBzdHlsZT0iZmlsbDogcmdiKDI1NSwgMjU1LCAyNTUpOyBzdHJva2U6IHJnYig1MSwgNTEsIDUxKTsgb3BhY2l0eTogMTsiLz48Y2lyY2xlIHI9IjkuNSIgY2xhc3M9Im5vZGUiIGlkPSIwXzE1IiBjeD0iNzE2LjY2NjY2NjY2NjY2NjYiIGN5PSI3MzMuNSIgc3R5bGU9ImZpbGw6IHJnYigyNTUsIDI1NSwgMjU1KTsgc3Ryb2tlOiByZ2IoNTEsIDUxLCA1MSk7IG9wYWNpdHk6IDE7Ii8+PGNpcmNsZSByPSI5LjUiIGNsYXNzPSJub2RlIiBpZD0iMF8xNiIgY3g9IjcxNi42NjY2NjY2NjY2NjY2IiBjeT0iNzcyLjUiIHN0eWxlPSJmaWxsOiByZ2IoMjU1LCAyNTUsIDI1NSk7IHN0cm9rZTogcmdiKDUxLCA1MSwgNTEpOyBvcGFjaXR5OiAxOyIvPjxjaXJjbGUgcj0iOS41IiBjbGFzcz0ibm9kZSIgaWQ9IjBfMTciIGN4PSI3MTYuNjY2NjY2NjY2NjY2NiIgY3k9IjgxMS41IiBzdHlsZT0iZmlsbDogcmdiKDI1NSwgMjU1LCAyNTUpOyBzdHJva2U6IHJnYig1MSwgNTEsIDUxKTsgb3BhY2l0eTogMTsiLz48Y2lyY2xlIHI9IjkuNSIgY2xhc3M9Im5vZGUiIGlkPSIwXzE4IiBjeD0iNzE2LjY2NjY2NjY2NjY2NjYiIGN5PSI4NTAuNSIgc3R5bGU9ImZpbGw6IHJnYigyNTUsIDI1NSwgMjU1KTsgc3Ryb2tlOiByZ2IoNTEsIDUxLCA1MSk7IG9wYWNpdHk6IDE7Ii8+PGNpcmNsZSByPSI5LjUiIGNsYXNzPSJub2RlIiBpZD0iMF8xOSIgY3g9IjcxNi42NjY2NjY2NjY2NjY2IiBjeT0iODg5LjUiIHN0eWxlPSJmaWxsOiByZ2IoMjU1LCAyNTUsIDI1NSk7IHN0cm9rZTogcmdiKDUxLCA1MSwgNTEpOyBvcGFjaXR5OiAxOyIvPjxjaXJjbGUgcj0iOS41IiBjbGFzcz0ibm9kZSIgaWQ9IjFfMCIgY3g9Ijg4MS42NjY2NjY2NjY2NjY2IiBjeT0iMzQzLjUiIHN0eWxlPSJmaWxsOiByZ2IoMjU1LCAyNTUsIDI1NSk7IHN0cm9rZTogcmdiKDUxLCA1MSwgNTEpOyBvcGFjaXR5OiAxOyIvPjxjaXJjbGUgcj0iOS41IiBjbGFzcz0ibm9kZSIgaWQ9IjFfMSIgY3g9Ijg4MS42NjY2NjY2NjY2NjY2IiBjeT0iMzgyLjUiIHN0eWxlPSJmaWxsOiByZ2IoMjU1LCAyNTUsIDI1NSk7IHN0cm9rZTogcmdiKDUxLCA1MSwgNTEpOyBvcGFjaXR5OiAxOyIvPjxjaXJjbGUgcj0iOS41IiBjbGFzcz0ibm9kZSIgaWQ9IjFfMiIgY3g9Ijg4MS42NjY2NjY2NjY2NjY2IiBjeT0iNDIxLjUiIHN0eWxlPSJmaWxsOiByZ2IoMjU1LCAyNTUsIDI1NSk7IHN0cm9rZTogcmdiKDUxLCA1MSwgNTEpOyBvcGFjaXR5OiAxOyIvPjxjaXJjbGUgcj0iOS41IiBjbGFzcz0ibm9kZSIgaWQ9IjFfMyIgY3g9Ijg4MS42NjY2NjY2NjY2NjY2IiBjeT0iNDYwLjUiIHN0eWxlPSJmaWxsOiByZ2IoMjU1LCAyNTUsIDI1NSk7IHN0cm9rZTogcmdiKDUxLCA1MSwgNTEpOyBvcGFjaXR5OiAxOyIvPjxjaXJjbGUgcj0iOS41IiBjbGFzcz0ibm9kZSIgaWQ9IjFfNCIgY3g9Ijg4MS42NjY2NjY2NjY2NjY2IiBjeT0iNDk5LjUiIHN0eWxlPSJmaWxsOiByZ2IoMjU1LCAyNTUsIDI1NSk7IHN0cm9rZTogcmdiKDUxLCA1MSwgNTEpOyBvcGFjaXR5OiAxOyIvPjxjaXJjbGUgcj0iOS41IiBjbGFzcz0ibm9kZSIgaWQ9IjFfNSIgY3g9Ijg4MS42NjY2NjY2NjY2NjY2IiBjeT0iNTM4LjUiIHN0eWxlPSJmaWxsOiByZ2IoMjU1LCAyNTUsIDI1NSk7IHN0cm9rZTogcmdiKDUxLCA1MSwgNTEpOyBvcGFjaXR5OiAxOyIvPjxjaXJjbGUgcj0iOS41IiBjbGFzcz0ibm9kZSIgaWQ9IjFfNiIgY3g9Ijg4MS42NjY2NjY2NjY2NjY2IiBjeT0iNTc3LjUiIHN0eWxlPSJmaWxsOiByZ2IoMjU1LCAyNTUsIDI1NSk7IHN0cm9rZTogcmdiKDUxLCA1MSwgNTEpOyBvcGFjaXR5OiAxOyIvPjxjaXJjbGUgcj0iOS41IiBjbGFzcz0ibm9kZSIgaWQ9IjFfNyIgY3g9Ijg4MS42NjY2NjY2NjY2NjY2IiBjeT0iNjE2LjUiIHN0eWxlPSJmaWxsOiByZ2IoMjU1LCAyNTUsIDI1NSk7IHN0cm9rZTogcmdiKDUxLCA1MSwgNTEpOyBvcGFjaXR5OiAxOyIvPjxjaXJjbGUgcj0iOS41IiBjbGFzcz0ibm9kZSIgaWQ9IjFfOCIgY3g9Ijg4MS42NjY2NjY2NjY2NjY2IiBjeT0iNjU1LjUiIHN0eWxlPSJmaWxsOiByZ2IoMjU1LCAyNTUsIDI1NSk7IHN0cm9rZTogcmdiKDUxLCA1MSwgNTEpOyBvcGFjaXR5OiAxOyIvPjxjaXJjbGUgcj0iOS41IiBjbGFzcz0ibm9kZSIgaWQ9IjFfOSIgY3g9Ijg4MS42NjY2NjY2NjY2NjY2IiBjeT0iNjk0LjUiIHN0eWxlPSJmaWxsOiByZ2IoMjU1LCAyNTUsIDI1NSk7IHN0cm9rZTogcmdiKDUxLCA1MSwgNTEpOyBvcGFjaXR5OiAxOyIvPjxjaXJjbGUgcj0iOS41IiBjbGFzcz0ibm9kZSIgaWQ9IjJfMCIgY3g9IjEwNDYuNjY2NjY2NjY2NjY2NyIgY3k9IjQ5OS41IiBzdHlsZT0iZmlsbDogcmdiKDI1NSwgMjU1LCAyNTUpOyBzdHJva2U6IHJnYig1MSwgNTEsIDUxKTsgb3BhY2l0eTogMTsiLz48Y2lyY2xlIHI9IjkuNSIgY2xhc3M9Im5vZGUiIGlkPSIyXzEiIGN4PSIxMDQ2LjY2NjY2NjY2NjY2NjciIGN5PSI1MzguNSIgc3R5bGU9ImZpbGw6IHJnYigyNTUsIDI1NSwgMjU1KTsgc3Ryb2tlOiByZ2IoNTEsIDUxLCA1MSk7IG9wYWNpdHk6IDE7Ii8+PHRleHQgY2xhc3M9InRleHQiIGR5PSIuMzVlbSIgeD0iNjgxLjY2NjY2NjY2NjY2NjYiIHk9IjkyOC41IiBzdHlsZT0iZm9udC1zaXplOiAxMnB4OyIvPjx0ZXh0IGNsYXNzPSJ0ZXh0IiBkeT0iLjM1ZW0iIHg9Ijg0Ni42NjY2NjY2NjY2NjY2IiB5PSI5MjguNSIgc3R5bGU9ImZvbnQtc2l6ZTogMTJweDsiLz48dGV4dCBjbGFzcz0idGV4dCIgZHk9Ii4zNWVtIiB4PSIxMDExLjY2NjY2NjY2NjY2NjciIHk9IjkyOC41IiBzdHlsZT0iZm9udC1zaXplOiAxMnB4OyIvPjxjaXJjbGUgcj0iOS41IiBjbGFzcz0ibm9kZSIgaWQ9IjNfMCIgY3g9IjEyMTEuNjY2NjY2NjY2NjY2NyIgY3k9IjM0My41IiBzdHlsZT0iZmlsbDogcmdiKDI1NSwgMjU1LCAyNTUpOyBzdHJva2U6IHJnYig1MSwgNTEsIDUxKTsgb3BhY2l0eTogMTsiLz48Y2lyY2xlIHI9IjkuNSIgY2xhc3M9Im5vZGUiIGlkPSIzXzEiIGN4PSIxMjExLjY2NjY2NjY2NjY2NjciIGN5PSIzODIuNSIgc3R5bGU9ImZpbGw6IHJnYigyNTUsIDI1NSwgMjU1KTsgc3Ryb2tlOiByZ2IoNTEsIDUxLCA1MSk7IG9wYWNpdHk6IDE7Ii8+PGNpcmNsZSByPSI5LjUiIGNsYXNzPSJub2RlIiBpZD0iM18yIiBjeD0iMTIxMS42NjY2NjY2NjY2NjY3IiBjeT0iNDIxLjUiIHN0eWxlPSJmaWxsOiByZ2IoMjU1LCAyNTUsIDI1NSk7IHN0cm9rZTogcmdiKDUxLCA1MSwgNTEpOyBvcGFjaXR5OiAxOyIvPjxjaXJjbGUgcj0iOS41IiBjbGFzcz0ibm9kZSIgaWQ9IjNfMyIgY3g9IjEyMTEuNjY2NjY2NjY2NjY2NyIgY3k9IjQ2MC41IiBzdHlsZT0iZmlsbDogcmdiKDI1NSwgMjU1LCAyNTUpOyBzdHJva2U6IHJnYig1MSwgNTEsIDUxKTsgb3BhY2l0eTogMTsiLz48Y2lyY2xlIHI9IjkuNSIgY2xhc3M9Im5vZGUiIGlkPSIzXzQiIGN4PSIxMjExLjY2NjY2NjY2NjY2NjciIGN5PSI0OTkuNSIgc3R5bGU9ImZpbGw6IHJnYigyNTUsIDI1NSwgMjU1KTsgc3Ryb2tlOiByZ2IoNTEsIDUxLCA1MSk7IG9wYWNpdHk6IDE7Ii8+PGNpcmNsZSByPSI5LjUiIGNsYXNzPSJub2RlIiBpZD0iM181IiBjeD0iMTIxMS42NjY2NjY2NjY2NjY3IiBjeT0iNTM4LjUiIHN0eWxlPSJmaWxsOiByZ2IoMjU1LCAyNTUsIDI1NSk7IHN0cm9rZTogcmdiKDUxLCA1MSwgNTEpOyBvcGFjaXR5OiAxOyIvPjxjaXJjbGUgcj0iOS41IiBjbGFzcz0ibm9kZSIgaWQ9IjNfNiIgY3g9IjEyMTEuNjY2NjY2NjY2NjY2NyIgY3k9IjU3Ny41IiBzdHlsZT0iZmlsbDogcmdiKDI1NSwgMjU1LCAyNTUpOyBzdHJva2U6IHJnYig1MSwgNTEsIDUxKTsgb3BhY2l0eTogMTsiLz48Y2lyY2xlIHI9IjkuNSIgY2xhc3M9Im5vZGUiIGlkPSIzXzciIGN4PSIxMjExLjY2NjY2NjY2NjY2NjciIGN5PSI2MTYuNSIgc3R5bGU9ImZpbGw6IHJnYigyNTUsIDI1NSwgMjU1KTsgc3Ryb2tlOiByZ2IoNTEsIDUxLCA1MSk7IG9wYWNpdHk6IDE7Ii8+PGNpcmNsZSByPSI5LjUiIGNsYXNzPSJub2RlIiBpZD0iM184IiBjeD0iMTIxMS42NjY2NjY2NjY2NjY3IiBjeT0iNjU1LjUiIHN0eWxlPSJmaWxsOiByZ2IoMjU1LCAyNTUsIDI1NSk7IHN0cm9rZTogcmdiKDUxLCA1MSwgNTEpOyBvcGFjaXR5OiAxOyIvPjxjaXJjbGUgcj0iOS41IiBjbGFzcz0ibm9kZSIgaWQ9IjNfOSIgY3g9IjEyMTEuNjY2NjY2NjY2NjY2NyIgY3k9IjY5NC41IiBzdHlsZT0iZmlsbDogcmdiKDI1NSwgMjU1LCAyNTUpOyBzdHJva2U6IHJnYig1MSwgNTEsIDUxKTsgb3BhY2l0eTogMTsiLz48dGV4dCBjbGFzcz0idGV4dCIgZHk9Ii4zNWVtIiB4PSIxMTc2LjY2NjY2NjY2NjY2NjciIHk9IjkyOC41IiBzdHlsZT0iZm9udC1zaXplOiAxMnB4OyIvPjxjaXJjbGUgcj0iOS41IiBjbGFzcz0ibm9kZSIgaWQ9IjRfMCIgY3g9IjEzNzYuNjY2NjY2NjY2NjY2NyIgY3k9IjE0OC41IiBzdHlsZT0iZmlsbDogcmdiKDI1NSwgMjU1LCAyNTUpOyBzdHJva2U6IHJnYig1MSwgNTEsIDUxKTsgb3BhY2l0eTogMTsiLz48dGV4dCBjbGFzcz0idGV4dCIgZHk9Ii4zNWVtIiB4PSIxMzQxLjY2NjY2NjY2NjY2NjciIHk9IjkyOC41IiBzdHlsZT0iZm9udC1zaXplOiAxMnB4OyIvPjxjaXJjbGUgcj0iOS41IiBjbGFzcz0ibm9kZSIgaWQ9IjRfMSIgY3g9IjEzNzYuNjY2NjY2NjY2NjY2NyIgY3k9IjE4Ny41IiBzdHlsZT0iZmlsbDogcmdiKDI1NSwgMjU1LCAyNTUpOyBzdHJva2U6IHJnYig1MSwgNTEsIDUxKTsgb3BhY2l0eTogMTsiLz48Y2lyY2xlIHI9IjkuNSIgY2xhc3M9Im5vZGUiIGlkPSI0XzIiIGN4PSIxMzc2LjY2NjY2NjY2NjY2NjciIGN5PSIyMjYuNSIgc3R5bGU9ImZpbGw6IHJnYigyNTUsIDI1NSwgMjU1KTsgc3Ryb2tlOiByZ2IoNTEsIDUxLCA1MSk7IG9wYWNpdHk6IDE7Ii8+PGNpcmNsZSByPSI5LjUiIGNsYXNzPSJub2RlIiBpZD0iNF8zIiBjeD0iMTM3Ni42NjY2NjY2NjY2NjY3IiBjeT0iMjY1LjUiIHN0eWxlPSJmaWxsOiByZ2IoMjU1LCAyNTUsIDI1NSk7IHN0cm9rZTogcmdiKDUxLCA1MSwgNTEpOyBvcGFjaXR5OiAxOyIvPjxjaXJjbGUgcj0iOS41IiBjbGFzcz0ibm9kZSIgaWQ9IjRfNCIgY3g9IjEzNzYuNjY2NjY2NjY2NjY2NyIgY3k9IjMwNC41IiBzdHlsZT0iZmlsbDogcmdiKDI1NSwgMjU1LCAyNTUpOyBzdHJva2U6IHJnYig1MSwgNTEsIDUxKTsgb3BhY2l0eTogMTsiLz48Y2lyY2xlIHI9IjkuNSIgY2xhc3M9Im5vZGUiIGlkPSI0XzUiIGN4PSIxMzc2LjY2NjY2NjY2NjY2NjciIGN5PSIzNDMuNSIgc3R5bGU9ImZpbGw6IHJnYigyNTUsIDI1NSwgMjU1KTsgc3Ryb2tlOiByZ2IoNTEsIDUxLCA1MSk7IG9wYWNpdHk6IDE7Ii8+PGNpcmNsZSByPSI5LjUiIGNsYXNzPSJub2RlIiBpZD0iNF82IiBjeD0iMTM3Ni42NjY2NjY2NjY2NjY3IiBjeT0iMzgyLjUiIHN0eWxlPSJmaWxsOiByZ2IoMjU1LCAyNTUsIDI1NSk7IHN0cm9rZTogcmdiKDUxLCA1MSwgNTEpOyBvcGFjaXR5OiAxOyIvPjxjaXJjbGUgcj0iOS41IiBjbGFzcz0ibm9kZSIgaWQ9IjRfNyIgY3g9IjEzNzYuNjY2NjY2NjY2NjY2NyIgY3k9IjQyMS41IiBzdHlsZT0iZmlsbDogcmdiKDI1NSwgMjU1LCAyNTUpOyBzdHJva2U6IHJnYig1MSwgNTEsIDUxKTsgb3BhY2l0eTogMTsiLz48Y2lyY2xlIHI9IjkuNSIgY2xhc3M9Im5vZGUiIGlkPSI0XzgiIGN4PSIxMzc2LjY2NjY2NjY2NjY2NjciIGN5PSI0NjAuNSIgc3R5bGU9ImZpbGw6IHJnYigyNTUsIDI1NSwgMjU1KTsgc3Ryb2tlOiByZ2IoNTEsIDUxLCA1MSk7IG9wYWNpdHk6IDE7Ii8+PGNpcmNsZSByPSI5LjUiIGNsYXNzPSJub2RlIiBpZD0iNF85IiBjeD0iMTM3Ni42NjY2NjY2NjY2NjY3IiBjeT0iNDk5LjUiIHN0eWxlPSJmaWxsOiByZ2IoMjU1LCAyNTUsIDI1NSk7IHN0cm9rZTogcmdiKDUxLCA1MSwgNTEpOyBvcGFjaXR5OiAxOyIvPjxjaXJjbGUgcj0iOS41IiBjbGFzcz0ibm9kZSIgaWQ9IjRfMTAiIGN4PSIxMzc2LjY2NjY2NjY2NjY2NjciIGN5PSI1MzguNSIgc3R5bGU9ImZpbGw6IHJnYigyNTUsIDI1NSwgMjU1KTsgc3Ryb2tlOiByZ2IoNTEsIDUxLCA1MSk7IG9wYWNpdHk6IDE7Ii8+PGNpcmNsZSByPSI5LjUiIGNsYXNzPSJub2RlIiBpZD0iNF8xMSIgY3g9IjEzNzYuNjY2NjY2NjY2NjY2NyIgY3k9IjU3Ny41IiBzdHlsZT0iZmlsbDogcmdiKDI1NSwgMjU1LCAyNTUpOyBzdHJva2U6IHJnYig1MSwgNTEsIDUxKTsgb3BhY2l0eTogMTsiLz48Y2lyY2xlIHI9IjkuNSIgY2xhc3M9Im5vZGUiIGlkPSI0XzEyIiBjeD0iMTM3Ni42NjY2NjY2NjY2NjY3IiBjeT0iNjE2LjUiIHN0eWxlPSJmaWxsOiByZ2IoMjU1LCAyNTUsIDI1NSk7IHN0cm9rZTogcmdiKDUxLCA1MSwgNTEpOyBvcGFjaXR5OiAxOyIvPjxjaXJjbGUgcj0iOS41IiBjbGFzcz0ibm9kZSIgaWQ9IjRfMTMiIGN4PSIxMzc2LjY2NjY2NjY2NjY2NjciIGN5PSI2NTUuNSIgc3R5bGU9ImZpbGw6IHJnYigyNTUsIDI1NSwgMjU1KTsgc3Ryb2tlOiByZ2IoNTEsIDUxLCA1MSk7IG9wYWNpdHk6IDE7Ii8+PGNpcmNsZSByPSI5LjUiIGNsYXNzPSJub2RlIiBpZD0iNF8xNCIgY3g9IjEzNzYuNjY2NjY2NjY2NjY2NyIgY3k9IjY5NC41IiBzdHlsZT0iZmlsbDogcmdiKDI1NSwgMjU1LCAyNTUpOyBzdHJva2U6IHJnYig1MSwgNTEsIDUxKTsgb3BhY2l0eTogMTsiLz48Y2lyY2xlIHI9IjkuNSIgY2xhc3M9Im5vZGUiIGlkPSI0XzE1IiBjeD0iMTM3Ni42NjY2NjY2NjY2NjY3IiBjeT0iNzMzLjUiIHN0eWxlPSJmaWxsOiByZ2IoMjU1LCAyNTUsIDI1NSk7IHN0cm9rZTogcmdiKDUxLCA1MSwgNTEpOyBvcGFjaXR5OiAxOyIvPjxjaXJjbGUgcj0iOS41IiBjbGFzcz0ibm9kZSIgaWQ9IjRfMTYiIGN4PSIxMzc2LjY2NjY2NjY2NjY2NjciIGN5PSI3NzIuNSIgc3R5bGU9ImZpbGw6IHJnYigyNTUsIDI1NSwgMjU1KTsgc3Ryb2tlOiByZ2IoNTEsIDUxLCA1MSk7IG9wYWNpdHk6IDE7Ii8+PGNpcmNsZSByPSI5LjUiIGNsYXNzPSJub2RlIiBpZD0iNF8xNyIgY3g9IjEzNzYuNjY2NjY2NjY2NjY2NyIgY3k9IjgxMS41IiBzdHlsZT0iZmlsbDogcmdiKDI1NSwgMjU1LCAyNTUpOyBzdHJva2U6IHJnYig1MSwgNTEsIDUxKTsgb3BhY2l0eTogMTsiLz48Y2lyY2xlIHI9IjkuNSIgY2xhc3M9Im5vZGUiIGlkPSI0XzE4IiBjeD0iMTM3Ni42NjY2NjY2NjY2NjY3IiBjeT0iODUwLjUiIHN0eWxlPSJmaWxsOiByZ2IoMjU1LCAyNTUsIDI1NSk7IHN0cm9rZTogcmdiKDUxLCA1MSwgNTEpOyBvcGFjaXR5OiAxOyIvPjxjaXJjbGUgcj0iOS41IiBjbGFzcz0ibm9kZSIgaWQ9IjRfMTkiIGN4PSIxMzc2LjY2NjY2NjY2NjY2NjciIGN5PSI4ODkuNSIgc3R5bGU9ImZpbGw6IHJnYigyNTUsIDI1NSwgMjU1KTsgc3Ryb2tlOiByZ2IoNTEsIDUxLCA1MSk7IG9wYWNpdHk6IDE7Ii8+PC9nPjxkZWZzPjxtYXJrZXIgaWQ9ImFycm93IiB2aWV3Qm94PSIwIC01IDEwIDEwIiBtYXJrZXJXaWR0aD0iNyIgbWFya2VySGVpZ2h0PSI3IiBvcmllbnQ9ImF1dG8iIHJlZlg9IjM4LjU5OTk5OTk5OTk5OTk5NCI+PHBhdGggZD0iTTAsLTVMMTAsMEwwLDUiIHN0eWxlPSJzdHJva2U6IHJnYig4MCwgODAsIDgwKTsgZmlsbDogcmdiKDgwLCA4MCwgODApOyIvPjwvbWFya2VyPjwvZGVmcz48L3N2Zz4=;" parent="1" vertex="1">
          <mxGeometry x="-1700" y="-90" width="1489" height="818" as="geometry"/>
        </mxCell>
        <mxCell id="BfW3hWLSr84F1zQKDPkD-2" value="&lt;font style=&quot;font-size: 13px&quot;&gt;Input Layer&amp;nbsp;&lt;/font&gt;" style="rounded=0;whiteSpace=wrap;html=1;fillColor=none;strokeColor=none;" vertex="1" parent="1">
          <mxGeometry x="-1100" y="480" width="120" height="60" as="geometry"/>
        </mxCell>
        <mxCell id="BfW3hWLSr84F1zQKDPkD-3" value="&lt;font style=&quot;font-size: 13px&quot;&gt;Hidden Layer&amp;nbsp;&lt;/font&gt;" style="rounded=0;whiteSpace=wrap;html=1;fillColor=none;strokeColor=none;" vertex="1" parent="1">
          <mxGeometry x="-887.5" y="480" width="120" height="60" as="geometry"/>
        </mxCell>
        <mxCell id="BfW3hWLSr84F1zQKDPkD-4" value="&lt;font style=&quot;font-size: 13px&quot;&gt;Hidden Layer&lt;/font&gt;" style="rounded=0;whiteSpace=wrap;html=1;fillColor=none;strokeColor=none;" vertex="1" parent="1">
          <mxGeometry x="-1000" y="480" width="120" height="60" as="geometry"/>
        </mxCell>
        <mxCell id="BfW3hWLSr84F1zQKDPkD-5" value="&lt;font style=&quot;font-size: 13px&quot;&gt;Hidden Layer&amp;nbsp;&lt;/font&gt;" style="rounded=0;whiteSpace=wrap;html=1;fillColor=none;strokeColor=none;" vertex="1" parent="1">
          <mxGeometry x="-780" y="480" width="120" height="60" as="geometry"/>
        </mxCell>
        <mxCell id="BfW3hWLSr84F1zQKDPkD-6" value="&lt;font style=&quot;font-size: 13px&quot;&gt;Output Layer&lt;/font&gt;" style="rounded=0;whiteSpace=wrap;html=1;fillColor=none;strokeColor=none;" vertex="1" parent="1">
          <mxGeometry x="-680" y="480" width="120" height="60" as="geometry"/>
        </mxCell>
      </root>
    </mxGraphModel>
  </diagram>
</mxfile>
